<mxfile host="app.diagrams.net" modified="2023-09-24T04:32:23.946Z" agent="Mozilla/5.0 (Macintosh; Intel Mac OS X 10_15_7) AppleWebKit/537.36 (KHTML, like Gecko) Chrome/116.0.0.0 Safari/537.36" etag="BudpFwmJ3ZIzEzZ6cm6l" version="21.8.1" type="device">
  <diagram id="B0yj9WVgsWkBsCJT9_Eg" name="Page-1">
    <mxGraphModel dx="1026" dy="580" grid="1" gridSize="10" guides="1" tooltips="1" connect="1" arrows="1" fold="1" page="1" pageScale="1" pageWidth="850" pageHeight="1100" math="0" shadow="0">
      <root>
        <mxCell id="0" />
        <mxCell id="1" parent="0" />
        <mxCell id="SJgRToUTvnGPl91xTuY3-15" style="edgeStyle=orthogonalEdgeStyle;rounded=0;orthogonalLoop=1;jettySize=auto;html=1;entryX=0;entryY=0.5;entryDx=0;entryDy=0;" parent="1" source="SJgRToUTvnGPl91xTuY3-1" target="SJgRToUTvnGPl91xTuY3-8" edge="1">
          <mxGeometry relative="1" as="geometry" />
        </mxCell>
        <mxCell id="SJgRToUTvnGPl91xTuY3-1" value="" style="shape=image;verticalLabelPosition=bottom;labelBackgroundColor=default;verticalAlign=top;aspect=fixed;imageAspect=0;image=data:image/png,iVBORw0KGgoAAAANSUhEUgAABFUAAAUACAYAAACGV207AAHGRElEQVR42uz9ebxfVX0v/r/ea+3hM545OSeAzCCDioBYsAnV/vT2dvL2Dq1UazEBIYCgKAoh88DkbCIQaEjEDhe/Ha63te2tHRQSZWpAUOZ5kJxMZ/rMe++13r8/Poki1cqQk5zzOa/nv588HPb57L3e6/3Z79cSEBEREU0Bqv+fFfkDBwCPff/Sg2d1lT7uFZ+wIjeOjI594ah5a59/5b8jIiIiOpAMLwEREREdSKoquvmDVuQP3BVLYLJnr/7o0QfP+rfe3tKnjQmCnu7iJUccdtC/6vNXLbx88emByB+4OzZ/0Kqq8OoRERHRgcRihIiIiA4IVRVsudPIvHc5AKg9tebdMexqG4Vz0zRBtd5yImJV1RXysY1zAVya3GscFpujlvzznv8Ms27dDbjkkos8rygRERHtb2yqEBER0X6nm+dbmbfJAUDjhaVHBVl+hQB/ZKzF6ETDCwBj5Cdv1HqvHgC6S7ExVuCdv8272orwqKseAwDVh6zIiRwJIiIiov2KTRUiIiLab/SehRanrfci0JfuvrBv1uw5F7USf3mxXCiOjdbUq6oxxvy8AkUBqFcvYtDTkzf1Wr1ZiOznRifG1vW97fM7VSHAo0bkODZXiIiIaL9gU4WIiIgmXbvh8bAROcEBkOzZqz+kkMuDXPCW6ngTWeYzVW9/QT/lZ3ivKiLOWgnKvQX4eusRkejL5vBPbwDgVe+2wDu9iCivPBEREU0mNlWIiIho0rTDZBcYkfaoT/rc0jMCU1iJIHhf1spQrbUyVVhj5DXXJOoVXpCV8nEQFUMgzf611Wytyh29/A4A0M0fsJh7G5srRERENGnYVCEiIqJJcceWs+yZc29zALDj4VUH9eSxArAfCcIgHBmpqxhR+7LclNfLe/UKoK87b5I000D8rbXALO960+L2Ecxb51s5dRNHgoiIiGifY1OFiIiI9ind+hGLUzZ5EdGR71xQLr1pzgWJx6JiqdAzPl6Hy5y31ph9+t+pgFfvjRjp6S1IvdqYiAP57LaXRm9409wvjgKA/mihlbesZ3OFiIiI9hk2VYiIiGifUIU8/fxGe9RhCzIAqD1+5f+MwtLiIBeeXKs2kbQyB8C8mtyU18t7rwB8GAa21J2Ha6YP2livkTlXfgOAqj5sgRO8CDgSRERERG8YmypERET0hrRDaC8yIte3c1OeWXpaEJWWwuvvOq+oVFuZqtrJbKa8kveqKnBdpTgIAgvAfRtpbZkcvubu9v/m+RbYyLwVIiIiekPYVCEiIqLXTXWjEVngAeC5Oy+dfchg/2Iv8tEgjvIjI1UVMV4AKwei4lDAQ513avr6CpKlWUsEG5MsW1U8evkwANyx+Sx75rzbOBJERERErwubKkRERPSa3fPgR+1p//IOlU+e77+z7r/E837nVxckGZblS4WhyngDWeaciDkwzZRXUsB578PQmnJXHrVKfSQXhKuGdz+x4ZB3bqqpqtx733zzzlO/xuYKERERvSZsqhAREdGrpoBg50Yrs9q5Kc1nlv4ONL8kzoe/0qglaDaTSc9Neb3aeSvGR3Fgi6UISb211WprTXD06m8CgD63McChCxzzVoiIiOjVYlOFiIiIfilVCO67yMip7dyUylOLTyrF5SvV6x9ADMYnWpmqs1OxmfJK3nsVEVcuxYG1Aoj8n2azelX+qNVb2/9fH7fAsQyzJSIiol+KTRUiIiL6T6neakTO9gDw5NZLug+fNXuROrMwiMPukZGaCtRPmVGfV/3/CVCoU0U7b6WV1ozVDdvr9VUHHXf1SPvf3GxEzvP8BhAREdEvYngJiIiI6OdR3WD0szcakbP95YDRH199zlD3rB/aIL68lbju0ZGqMyJizPRqqACACGBErBGR0ZGaayauaMLcx7slfjB7as35N91yQihynldVUb2R9RIRERH9/JqCl4CIiIheWR/o8C1Whs7JACDZsfrXfVVWxOXCvOZ4E41myylg7DQY9Xm12nkr8Lk4svlyDkmteWdk0pVyxIp/AgAd3hBg6Fwn4EgQERERvaxo4iUgIiIioJ2bsuPZP7WDR3w4A4D6Q0tPyPcUPp22/NlhGMrYRN2pqjEd1Ex5pb15K91d+cA5r0Gof9Gquetyxy79YfsaMW+FiIiIfopNFSIiImrnpuBshUD/9h8+kP/t4972aVj5mAmjWWOjVaiqm265Ka//WgCq3inE9PWVxCfJqEN6w7a702sO+8CamgICvVX25swQERHRzMWmChER0QymusEAGUQWegDwj1/9gdS6VVE+f2yt2kAzyZydIc2U/3htAKfexVFgS+UIzVrreckFi3OHXPln7c/XGyCAyLlsrhAREc1QbKoQERHNUNuGbwnm7M1NeXzl6Sa2q22cf29Sa6HSaHkDgTEy40NanfcqgM/nYpsrh3CN7HagtTQ4fMXm9nXcEMwZOjfjN4qIiGjmYVOFiIhohlF92Iqc4ABg9OFFR/b0dH8qqbvzo3xox8bqzns11hrWCK/gvFcj4nu6CzZNUx9GwS31icYXiseveOxl19WDYbZEREQzBgsmIiKiGULXbjC4OIHIhf47694bz33/ey41Yi4yYXjI+GgV3s+c3JTXfQ335K2IiO3pK0HTZLsI1j30l/d/8S2f/MuG6g0GiDgSRERENEOwbCIiIur0RsDamw0u9j/JTak9tuK/mdCuzMW5k5rNFmqNdMbmprzua7onbyWfC22hGKFZaz2sossLRy37q/bnzFshIiKaCVg+ERERdfTm/yErcqIDgPTJ5W+HjVcGcfD+LHGo1FoOCmFuyuvnvXoPoKsYmTAfwjWTf/LIVkSHL78L+NncGiIiIuo8bKoQERF1INVHrMjxDgB+/P2Pv+mgNw1d2kz8x3K5MBwba3pVzxDafch79SLQnt6CbdRbLl+MvtravfMrubd8/plX/j2IiIioc7CYIiIi6iCqKqpfMSLHu8uXnB7os1ddMnTQnO8iDC5ttVw4Olpzqp5vp+zrgsqIAcSOjtRcK3EWsB8Py323u2euvuze+08PRI53qjeYtWs38LoTERF1EL6pQkRE1AF07U0GF58HEfEA0Hhi+W+YIFoTReE7Ws0M1UaLuSn762+hgHPeFQuhzeVitJqt+5H5Zbnjln2r/fl6g3UGcsl5zFshIiKa5lhaERERTftN/HlW5GYHALVHLj8uynWtMsb8PkQwPtH0ADjqcwB4rx4AyqXYBNYiy1r/N3C6WI5e9lD77/bTvBsiIiKanthUISIimqZUH7UixzkA2L5l8ZzZb8pfUG/5ywqlfH50tKZQUTEwXOwPrHbeikFPb95Ua420VAi+vPOFnV+effqXXnrl35GIiIimF/5qRURENM20c1PutiLHuSuWwOjz154z8KbC7YhzS51HfnSk6qACw4bK1Ci2jBhVb0ZHqs6lCCHRpwfmDN6uT6+58Jvf+n0rcpy7Y/MHraryz0VERDTNcPEmIiKaJlRVsOVOI/Pe5QCg8sjKMwu5aI0JgnlpmqLSSDIDBMLglKn8N4QHslI+CqLQIknSuwPBYnvkkn8FAL3rXrtu6wN6yUXnMm+FiIhoGmDVRURENB0241vmW5m7yQFA47GlRwVhuNzD/lEYBjI63vAC5qZMJ3vzVrq7YiMAVP3/9jqxMjz8useAn83JISIioqmLTRUiIqIpTO9ZaHHaei8CfXHLJ3sH39R3QdJ0VxTKhfLYaF29ejViDF9OmYZ/WwDq4SEqvb1FqU80GoVydM3zz2+/6bAzvrRDFYJ7Fxp553o2V4iIiKYolmBERERTccOtEOBhI3KCAyDNx6/+UBDrZ2wcv7U63kCW+UzVW2MYmzLdeQ8FvA8Ca8u9BWS11qOqweejoy7fBMCrPmyBE7wIlFeLiIhoamEhRkRENIW0w0oXGJH2qE/65NIzglxhOWzwG1krw0StlYnC8t2UjvzbwwNZOR8FYTEEUvevzXp9Zf7YVZvbn8+3wEYvImyuEBERTREsyIiIiKaIzVvOsvPm3uYAoPbkyqHIBMtVcE4QBOHIeF0Fopa5KR1vb95Kb3feJKnzRvTWSjaxrO+Y614EfjZfh4iIiA4sNlWIiIgOsHu2fsSedsomLyJ63z+eVTr+6OMXeo9FhXKhb3y8AZc5b61hM2UGUQDeeW+NMd29RdQq9fE4kOsefu6lr5706zdWVCG470Ijp97A5goREdEBxKYKERHRgdo4KwTPb7Ry2IIMAFpPLf09Rbw0zsenVGsJ0lbmAG+YmzJzee8VgA/DwJa6cvBper/P7HXhkZd/AwCeem5jcOShCxzzVoiIiA4MFmlERET7WTuE9nEjcmz7iOSnlp6ayxeWwMnvea+YqKaZqmMILf2E96oicOVSHFhrAeP/MUtbK8LDlt/T/k59xAKbmLdCRES0n7FYIyIi2o9UbzEi53gASJ/8ZL9H3xJjzUeDOCiOjNRVBF4gljG09B+/O4BCnQLS1503aZo1LXCLScxqefOi7QBwx+az7JnzbuNIEBER0X7Cko2IiGi/bIg3mM9+LsPln1non9x4cfimX5s93zksy5dyB1cmGsgy50QMmyn0Kr5LgPfeh6E15a4c6pXmLhP41btHnrvlkNM21VRV7r1vvnnnqV9jc4WIiGiSsXQjIiKazA0wIBjeYGXo3AwAkieX/qYz8dJcLjqjUU/RbCYOAHNT6DVr560YH8WBLZZipLXWVp/UV+VOuOpvAUCf2xiAeStERESTigUcERHRJHhlbkrz8dVvjYt2kXfyhyIGoxMNJ6psptAb5r1XEWnnrRgBrPylyxrXBoeuuK/9XbzIAtd7NleIiIj2PRZyRERE+5jqrUbkbA8AI5sv6+o5uGuRN8H5Ngp6R0frgCpHfWgff+cABZyqN309RXFZVlVk65PR5lXFk68ea/+bm43IeZ5Xi4iIaN9hOUdERLTPNrYbDD6XQj5zgQdg9MWrzq43smWFUuHwWqWJJMnYTKFJ/g4Cqt6FYWBL3Tk0JpovBoGufmD8/2087eTvZ6oqwHoRuYDNFSIion2AZR0REdG+2MwO3xLI0DkZALhtV/2ab8iqoByf2RxvodFsOQWM5agP7SftvBX4XC6y+XyEVqP5fZclK4vHrf72K7+vRERE9PqxuCMiInqdVCHPPnezPeLw8zIAqD5w2XHF2QOXp0394zCwZmyi7rwqmyl0wLSbK+J7uvPWOadBZP+i3qheXTxq9cMAsG3714Oh2X/MMFsiIqLXiUUeERHR66B6owEWqojofbe9K/e2M377097Lx8JcOHtspAZlbgpNme9qeyRIIaavvyQ+TXepz262z+64St69rg5AVG+VvTlARERE9Oqx1CMiInpNG9QNBsggstADQOWxK/8gDAqr4nz85ka1hXqSOstmCk3J7y7g1LtcFNhiOYdGtflMvhAvkYM/8xftz280QAiRc9lcISIiepVY8hEREb1K24ZvCebsyaFIHl95urHBKluI3pc0U1RqiTcAjBHDK0VTmXNeReDz+djmiiF8s/VdA10qhy/d8srvOREREf3n2FQhIiL6JVQftSLHOQAYfXjRkT095U80G+7CXC62Y2N1570aa5mbQtOL816NiO/pLthWmvo4NDerr33FHLrm0fb3/iErcqIHmLdCRET0i/DXNCIiol9g7doNRvUGI3Kc++biN0X6wrWf7ip03Q6JLm61nB0drTlALBsqNB21A5TFjo7VXKOeGthwIVC4PXtmzWdG1l0Wi5zoVG8QXbuB9SIREdEvwCKQiIjoFXTtzQYX+5/kpjQfXfm7EgarokL89matiVqTuSnUYd/5PXkr+VxoC/kQzVbyiHF+SXzM8r9pf77e4IYAchHzVoiIiF6O5SAREdHPbC4fsiInOgBInlh8kgSFlUEc/rcscRivtpibQh3Ne/UAUCxGJsqH8Eny95KkK8zRK/4dAIZ33xIM9TNvhYiIaC82VYiIiAConm9FbnIAsOOh5QfNKkeX1lvu44ViPhwbbXhVz2YKzRjOeRUj2ttdMM1mmuVycv32ifEvDp1w3fPt++URK3K845UiIqKZjsUhERHNaKoqql81Ije5b37rD2323KqL+kvx7Qjjy9IU4ehI1al6w4YKzSTtnCAxo2M110rSAGH08VnF7tv981dfdu/i0wOR453qDWYt81aIiGiG45sqREQ0I629foO5+NSTRE4/zQFA/dFl77OBXR3FuV9ppQ61RpIZIBAGp9AMtzdvpZSPbZwP0Ww07xPvluWOWfH37c/XG6wzkEvOY94KERHNOKwUiYhoBm4Sz7MiNzsAmHh48bGFQn6lij3LiGB8oukB5qYQvdLevJVyKTaBNXBZ9n9Sly3NH738ofZ99dM8IiIiopmCTRUiIpoxVBdakfUOAF64d9HgwYOlhY1m9plCqVAYG62rKlQMeD4y0X/Ce/UiBj29BVOv1JNCOfriztHt62af+KWX2vfZo1bkODZXiIhoRuCvcERE1PHauSn/vrehYnR4zdmz+0u3SxyvcN4U9uSmwLChQvTLi0cjRtXL6EjFOYcIElwxUJ71XX1+zXnffN/vW5Hj3B2bP2hVlbcTERF1PC52RETUsdqbujuNyLscAGTPrpxrw2g1TPDutJGi2kgyKALDVgrR673H4IGsmI+CKLZIk/ROJ8niwuGrvgMAete9dt0DD+gl55/LvBUiIupIrCKJiKgzN3tbFliZu7EdQvvEp46Igt5lzpk/DmNrxsYbzE0h2of25q10d+WMQOG8+7OsNbYi/+bPPwUAetd5Vk6/mSNBRETUcdhUISKijqJbL7Q45QYvAn1xy9m9s+ccszDJ/KJiuVAeH6/BOe+NGMNDfYj28b0HQD28CKSntyD1aqNRKAbXjD73/Pq+d63fqQrBfRcaOfUGNleIiKhjsKQkIqLO2NAp5OkXNtqjDl2QAZDmE9f8oQ38FUE+99bqeB1Z5jNVbw1nfYgmlfdeAfggsLbcm4dvpA9D9bP2iMV/CsA/9dzG4MhDFzgRKK8WERFNdywsiYhoWlNV2bxlvjlz3tfauSlPLvsVm8+vgNj/miUOE7VWJgrLd1OI9i/vFSrISvk4iAoh4NJ/Q+aXyWGLvwcAunm+xdyNXkTYXCEiommLBSYREU1bW7Z8wM6d+w0HALWnrhmMQr9MM5wThkG8e7SuYkQtc1OIDijv1Xuv0tdbkCxzmRH3de+xPDpy6YsAoFvmW5m7iSNBREQ0LbGpQkRE087WrR+xp5yyyYuI/uvtHy/MO7h3YerNokKpMFCZqCNNnbfWsJlCNIU45721xnT3FVEfr4+EUXDt2DMvrJ/96zdWmLdCRETTFZsqREQ0bahCnn9+oz3ssAUZANSevPz3QtO9OMyH76hVEyStxAEwzE0hmpr25q1EYWCL3Xm4Rut+44JrzNGX/yUAMG+FiIimGxadREQ05alCgMeNyLEOAFpPLTs1yuUXwcv/9F4xUU0zVccQWqJpwntVFbjuUhxYK0BgvpW1GqvDw5bf077n51uAeStERDT1sfgkIqIpTXWTEZnvAeDFH328d3ZhYLGIWRjEUXFkpKYi8AKxjKElmm73NqCAU+9NX39R0lbWDI3evHuktXrg5FW72v/mq0bkY55Xi4iIpiqWoERENEU3XBsMkELkAv/kLSeEh7/vQ2enTb8iV8wdXKk0kGXOiRg2U4im/b0OeO99GFpTLudRq9Z3hQFWPvHIw7e85Xe+0dAv3mTufe+/yzvf9ifMWyEioimHpSgREU25tUmHN1gZOjcDgOTxVf8lNXZFoRCf0ai30GwyN4WoE7XzVoyP48AWShFa9da9GqYr84eu/HsA0J0bA8xa4ATMWyEioilUuPISEBHRVNDOTfmBEXm7A4DG0ytPzEXRFVmKD9nAyNhEw0GVzRSiDue9VxHrukphIMZArPtGrVK/rvTmNfe3nxWPW+BYzzBbIiKaCliYEhHRAad6owEWqojojoeXl/vy0RVi5XwTBP2jI3UAylEfohn1TAAU6lRh+vqKkiVpBao3JmMT1xRPvm6s/W9uNSJnM2+FiIgOKMNLQEREB27jtMHo59YbkQu8iGjtsSs/XLT2fhuHVzabrn/3SM2JCIxhQ4VoJhEBjIg1IjI6UnXNlisHcfQZLRQfTJ+9+pwrFsOInO1VbzTt/CUiIqIDtGbxEhAR0YGwbfiWYM7QORkAZM+smCcmWmHy0a8nlQS1RssBIsYIN0tEtCdvBT6Xi2y+lEer2tyi6lfnj1nybQDQ4VsC2fM8ISIi2p/YVCEiov1GFfLss+vtEUcszACg+tCnji129V+WpDgnigMzNlZ3XtVY5qYQ0c/Rbq6I7+0u2DTLNIxwa73Z+FzxqNUPA8C24VuDocGzHfNWiIhof2HRSkRE+4Vee6PB5e3clDu+/5n4V4d6LvMWHwuiaGhspApV5qYQ0at4liig6p1CTN9ASVyS7LLe35gljWvCY69qABDVW4V5K0REtD+wdCUiokneAG0wQAaRhR4AkieW/C8v8ao4Hx3fqKWoJ6mzbKYQ0Wt+tgBOvctFgS0WIzTq6VP5crBUhq743+3PbzRACJFz2VwhIqJJwxKWiIgmzctzU5pPLTstsOFqm8v9RtJIUam1vIGAuSlE9EY451UEvpCPbVyO4GrN79gIi+TgJXe/8jlERES0r7GpQkRE+5zqo1bkOAcAzR9ddkTcM/CJpOkujPJRMDZWc96rsZa5KUS07zjv1Yj4nq6CzbLMBYHcUpuofaF04prH28+lh63ICY5XioiI9iX+OkhERPvM9TdtMnrX2VbkOHfv/acH2TNXfzLq6rsdNrikkaTB6GjVAWLZUCGifa0dcC12dLzmqvXEwobn5cvF2/X5qz7znXXvjUVOcKo3GF3LI5iJiGjfYVFLRERvmF6/wdx1+vfkjFM3OQCYePjq345CvzqO45ObaQv1ZpYZIBAGpxDR/ngm7clbKeZCm8vHaLVaDwn8kvjIZd9sf36jASxEzmPeChERvSGsbomI6A1uXh6yIic6AHBPLz3Jm2hFEIa/51LFWLXlDcDcFCI6ILxXD4GWCpENcyFckn7LwK8why3Z+srnFxER0evBpgoREb0uqudbkZscADx116UHHXlw/yX1ur+0UM5HY6MNr+rZTCGiKcF79QDQ21cwjVozy5fCL1dHa18tn7Dmufbz7BErcjybK0RE9Jqx2CUiotdEVUX1q0bkJvfN951l9bk1Fx5+0KzvIspdnjpEoyNVp+qFDRUimjIFrxEjImZ0pOaS1AeQ8LJCIX+7PnvNpZcvOT0QOd6pfsWoKn9wJCKi14QLBxERvSprb9pkLj7pX0VO/zMHANWHFr83KhVXhrF9V1J3qDYS5qYQ0ZSnqlAgy+eiIJcPkbZa92orXR4ft/If25+vM+vWxbjkEuatEBHRL8fKl4iIfvkm5MHzrLztZgcAjcdWHhVEdpWB/aBag4mJhgeYm0JE08vekaDuUmyMMXDO/ZX6ZEl41IrHAOatEBHRq8OmChER/UL6o4VW3rLeAcDI96+YVT6kfGHadJ/Ol/LFsdGGevVq2Uwhoun6jAOgXr2IQU9vztRrrVYhF35p/MUff6nnjHU7AED1CStyDJsrRET0c7GpQkRE/3GjoSrAViPyDgdAdNvqD/uWucLko+Oro02kWeYAGGMM1xEimva8VwXUB4G15a48NEsfFWu++J6zr9j43X+B080ftJj7515ElFeLiIhejsUwERH9RLuZcqcReZcDgOzpNb9qY7sKJvj1tJWiUksyUQTspRBRhz4D4YGsXIyDMAzh0/T7zuDK6NBFtwOAbv6+xdwz2FwhIqKfYFVMRETtzcTms6zMu80BgPvRykO1JMuc2o9EQWB3j9bVGFHmphBR5z8MAa978la68sY7B8D/WZa0VuTfvPqp9vNyvpV5mzgSREREbKoQEc34/cPWj1icssmLiO547IJyWQ5a6KGLCqVC7/h4DS7z3li+m0JEM4/z8EYgPb0FqVfrtXxsrtm5a2L94Kmf260KwX0XGjn1BjZXiIhmMNbIREQzlCoEL2y0cuiCDACSxxZ/QOLi5UEUnlyrNZG0mJtCROS9VwA+DAJb6snDtZIfpSmuyx995Z8D0Kee2xgceegCJwKOBBERzUAslImIZhhVCLZcZGTe9Q4AkieX/kqYL18J4P1Z6lCttTJVtWymEBH9lPeqKnBd+TgICgHg3D9B3Go5aPH3AOCOzfPtvLkbmbdCRDTDsGAmIppBNn9vgZ33qxsdAIzfc+ns4uDAEu9wXhiH8e7RmhoRLxArXB2IiH4u59UrVPq6C5Jlzhn4TRhtrQhOWf1jANi8Zb6dN5d5K0REMwXLZiKiGeCerR+xp+3JTXnm1t8tHHTmOz+aZVhcKOVmVcYbyDLnRAybKUREr5Jz3tvAmO7eImqV2kgMf+3jL+5Yf+J7bqyoQu6970LzTuatEBF1PJbPREQdTBWC5zdaOaydm9J4YvnvwgTLcoXcO2rVZE9uimduChHR67A3byWKA1ss5ZC10vvVY0105JV/AwD63MYAzFshIupoLKKJiDqQKgR43Igc6wAgfWb1yUEULFYv/1O9YqKaZqqOuSlERPvA3ryV7lIcWCtAoP/QrNWX5Y9avbX9TJ5vAeatEBF1IhbTREQdRnWTEZnvAaD27ct7ojcXF0OD84MoKI+M1FUEzE0hItrnz15AAafqTV9PQbLUVY3oxl3Z2KrBoz+3u/1vvmpEPuZ5tYiIOgdLaiKijinoNxggg8hCf+/97wpO6f3Ns5uJX1koFw6uTjSRphlzU4iIJv1ZDHjvfRQFplTOoV5rbo8tVm7++80b33Pxt1v6xZvMve/9d3nn2/6EeStERB2ApTURUQc8y3V4g5WhczMAaD2x/H2ZD1YUirl3NZoJms3EAWBuChHRftTOWxGfy4U2X4zQqiV3w6arc0es+HsA0J0bA8xa4ATMWyEimtaFOC8BEdH01M5N+YERebsDgMbTK0/MhblPZ5n7YxtYGZtoOKiymUJEdAB571XEuu6uOAAUYvQvaknt86Uj1tzffpY/YIGTPMNsiYimJxbaRETTkOqNBlioIqIv3f+J0mD3wGcQmAtNEPWPjlQBKEd9iIimzDMbUPVOIaavryA+ySoOurb6wqOf7Zv3pxOqKsB6EbmAeStERNMMy20iomlVmG8wQIq9hXf10cUfMjZakS/kj67XWmgkmbNsphARTdFnOODUuzgMbKkrj2a1/rxx2fL4uFW3AtB2wzyEyLlsrhARTRMsu4mIpoltw7cEc4bOyQBAn1tzRpphTVjK/3pSbaHWaDnAiDEwvFJERFOb814F8PlcZHPdMXw9ucN4XSFHLP4OAOjwLYHsed4TEdHUxqYKEdEUpoBAf5qbMvHAJ48u9w18Js10QRiEdmyi7rxXYy1zU4iIphvvvULE93YVbOYyH+TtrbWxymdLb17zKAA88+z64PDDFjrmrRARTV0swomIpihde6PBxe3clCdvuSg84r0HfcpDLg6i8KCxkRpUmZtCRDTtn/V78lZExPT0lSRrJTus6o333/3MtaeetaHJvBUioqmNpTgR0ZQrsDcYIIPIQg8Azcev/O9q8qtyhfgtzXqCWjNlbgoRUcc9+9t5K/kotIVShFa9+aSqW5I/ZuU32p+vN0DAvBUioimGJTkR0RTy8tyU+qMrToliu9rG8W+lrQwTtcQbAMYIc1OIiDqU9+ohqsVcbKNCiKyR/EtgWkvk8FV3t9eJDcGcoXOZt0JENEWwqUJENAWoPmpFjnMA0HjyisNzha6P1avZxwvFfDA21nCqXthMISKaOZzzKka0t6doWq2mi6PwpqTa+GJ83Mqn2uvGw1bkBMcrRUR0YLFAJyI6gNbetMnonWdbkePc5UtOD7KnV18ahV23Q6JPpZkPRkerDvCWDRUiopnFWiMCMaOjVddsOAsbXBjkc7dnz1x9+f/51u9HIic41RvM2rUbuD4QER1AfFOFiOgA0Os3GJz+PZFTNzkAaD1zzX8VuFVhFJ3WbGRoNJNMBIEwOIWIiGvGnryVYj60uXyEVqP1w9D5JfbY5X/b/vxGg3UWcsl5zFshItrPWK0TEe334vghK3Jie9TnmcUnhlJYaYPwf/rMYbTaYm4KERH9XN6rF4EWC5EN8yF8I/1bl7pl0bFLH3jl+kJERPsHmypERPuJ6kIrst4BwFN3XXrQkW8auKhec58qlPLx2GjDq3o2U4iI6Jdqh9kCvT0FkzTTNIrNV8Z2V9f2nnTVC+315qc5XURENLlYvBMRTTJVFd38YSuy3n3zfWdZfeGq8w+fM/BdBNGVLkM8OlJlEC0REb36At6IERUzOlpzjVYaIgwv6+4t3q4vrrnk8sWnByLHOd38Qauq/AGViGiS8UFLRDRJVFWw5Swj877hAKDy7JJfj5FbHUbhu1oNh1ozyQyYm0JERG9orYEHsmIuCuJ8CJck94jPltkjl/9T+/N1Zt26Ii65ZAHzVoiIJgEreSKiyShyt863e0NoG48sPjLIFVYp5EPGGkxMND3A3BQiItp3vFevAHpKOQNRqHd/pT5bEh614jEAUD3PitzMkSAion2MTRUion1If7TQylvauSnbt366f1Z/90WNxH+6UMqXxkYb6lXVGo5eEhHRJKxBANTDQ1R6e0tSr9aacRh8sdpMvtJz/ModAKD6hBU5hs0VIqJ9hE0VIqJ9UcgqBHjYiJzgAIi+uPrDWWY+E+SiE6vjTaRp5gAYYwyfu0RENKm8VwXUB4G15a48fJY9auA/f8XNizddtwZe9VwLbPAiUF4tIqI3hsU9EdEb0A4BfMCIvN0BQPb0ml+1cbQMRv5L1sowUWtlorDGMDiFiIj28xrlFV6QlYpxENkALsvucE23ND5+yR0AoJt/YDH3JC8ibK4QEb1OLPKJiF5vsbrlLCtzb3MAkNx/2SHoLi+HBPPDMLC7R+oqRtQyN4WIiA4w79UDQE933mRZBmP1ayITy+2bPvs8AOjm+VbmbeJIEBHR68CmChHRa3TP1o/Y007Z5EVEd3zngnL3YXPOyzJZXCjnesfH6nCZ99YaNlOIiGjKUAW8em/ESE9vQeoT9WoQh1f75q71+eO/OKoKwX0XGjn1BjZXiIheAzZViIhefUEqeGGjlUMXZADQemLF/zJBcGWQi0+uVZtIWt4BnrkpREQ0ZXnvFTA+DI0tdeWRNVo/VATXREdefhsAfeq5jcGRhy5wzFshInp1WPgTEf0SqpAtWy4y8+Zd3z4i+dEV78iV46VQ+37nHMarrUxULZspREQ0XXivqgLXVYyDILaA9//kW9lKe+SSOwFAN19kMfd6htkSEf0S3AAQEf0n7th8kT1zTzPlx3cvmnXQIT1XukzPs0YKu8fqaox4gVjG0BIR0XTkvHqFSn93QdIsTQMxG5u2trLwpqu2AcDmLfPtvLnMWyEi+kW4DSAi+jm2br3QnnLKDV4EqsOXFp5+IriwUmkuOujg3r5cLoSIOpep5ZUiIqJO4Jz3NrCmu7uAWqW+O4S/+qXhkfVH/NrauqrKvffNN+889WtsrhARvQKbKkREL6MKef6FTfawQ+dnAPD8lqX/q9aqXe5h3lGrNtBoZi6OQjNnTkn6evMQMcgyzwtHRETTXjtvBT6KI1ssRXDN7N9dVrsuPmbNXwGAPrcxAPNWiIh+BpsqREQAVFWA+Uak/SvcS/d86jTn7eJqzf23JPWo15qZGmOtQJz3yDJFuZzD0GAJ5VIO3jt49laIiKgDeO9VRFx3Vz4QUUDk75rN6sr8Uau3ttfM+RbY6EWEzRUimvHYVCGiGU91nRG52APAyH3X9k/Udy+tNbKPQlAYHWuqteIhYl/5wMwyD1WgvyePwTll5OIIzjlkmYIHKhMR0fReGwFV7xQwfX1FyZKsKuI32HxrtcxePdL+N181Ih/jTwpENKOxqUJEM9aDD37U/vO/vEM/9cnzvXtyWf7HO5sfHh1rrQyjYGii0oBXcQL8pyG0qkCWOdjQYnZ/EQMDJQRWOBJEREQdYW9zJQytLZUKaFRrwzY0K77/481fe8+8b7c+/4WbzP/vff8uJ7/tT5i3QkQzEpsqRDQjn307d220swYWZADw0n1X/JdduxprwsCeVqmmyJxzUDWv5YhkVUWSeRRyAQZnl9HbW4RA2VwhIqKO0M5bMT6XC2y+GKFVbd0dF/xSOXjZPwOA7twYYNYCJ2DeChHNsI0FLwERzRSqkK1b55t3vKN9NOS2uy57e+bNZ8Zr2VnOOanXkkxFrDGv74BkESDNPKCKQimHgwbLKBVj5q0QEVHHaOetWNdVigM1Xq3R25Kmuy4+aukD7bX2BxZ4u2eYLRHNFGyqENGMoHqjEVmogGgyfE3384+PXJGl7gLn0T020YAxxkFg99VDsf2GiqCvL4ehwTLiKIBzns0VIiLqgDUVUKhTwPZ1F+DSbBzivzrxwthn++Z9fqId/r5eRC7gqkdEHY9NFSLq8MJvg/nc5zN85tMLPQC8dPfH5u8YtStCGxxarTfhnHcixopMxn93e/zHWovB2UUM9JdgmbdCREQds8a281aiMLDFrhzq1eZzAZrL42OuurX9+Y0GCCFyLhc+IupYbKoQUcca3n5LMDR4TgYAow9d8Z5dO7MV1pozR8YbSNLXnpvy+ovOdnMlnwsxONiF3p4cACBNPYRPYSIimuac9yqAz+dim+uK4euN2w10lRy+9N8AQIdvCWSovR4TEXUalvNE1FFUIduu/1170Mf+LgOAnVsvP66Vms+MVZpnew9Tqbec7KdmyitlmYdXoLsrhzmDZRSLMZzLOBJEREQdwXmvRsT3dBdsmjofRthQq9a+VHrzmkcB4JlnbwoOP+x8x7wVIuokbKoQUce48cZbzQUXnK0AVKvromceeHZRo64XipHZo2MNNQYeEHug3w7JMgcRg4G+ImbPLiAOIyQZf8AjIqLpb+9IkIiYnoGSZI1kuxG94Xvfuv26My/6dktVBdetF7mCeStE1BnYVCGi6V/A3bzBfDnNcOlFe3JT/v3yD+zc2VplQzm2XsuQuWzSclNef9GpSDOPOLKYNauMgb4ijAHzVoiIqDPWZgWceleIQpsv59BqNB9B1lyeO3bNX7Y/Z94KEXUGNlWIaFob3n1LMNTfntOuPrbkHduGW9cAeO9EtYVWkjmBiogxU/V/v/ftvJViKcbQ7DK6uyJABanzfEATEdG05716D0W5GJsoH8I1W982givNYUu2AsC24VuCOcxbIaJpjDU7EU1L+oOFVt6+3gHArh9ecVRSlU+MTNQXQkwwXml6EciByE15XQ9iaYfWqgI9vTkMzSqjUAh5BDMREXUM57yKEe3tLpg0SbIwDm8aG9/2xd4Tvvw0AKg+ZEVOdLxSRDTdsKlCRNPK9ddvNKf+yvfk9Hfc4p4bvjTMnsh9PMuST3iPg0cnGgDECWCn46k6qu28lSAw6OsvYXCghCDgEcxERNQZ9uatGCO2u7cE30peNFa/9NS3X1p39DnXp6o3mHXrIlxyCUeCiGj6YFOFiKaFtddvNBdfmECknZvy5B2X/U7Scld5yNuarRStJHNmiuWmvF7eKzLnEUcBhgbL6OstQIR5K0RE1Bn25q0U87HN5QI0mq0HxbnF+WNXfKv9+XqDdQZyyXlc+IhoymNThYimfvH14HlW3nazA4BtP1hySm2iucxl+G/1VoZGveVhADOFc1NeL+8VmfcoFyMMDXajXIrhvcI5D+HTm4iIpv865z2ArlJkwiiAT7JvurS2IjrmqgcAjgQR0fTAspyIpiz9wQVW3n6jA4DxH37y4ErVXrprLPl4GNpgrNLwgs5sprxSlnkoBP29eQwOlpCPAyQpf7wjIqLO4L16iEFvT940ms00F5qvvLh79CuHnvz5FwFA9QkrcgybK0Q0JbGpQkRTjqrK5rvONmee8XX3g0fODHp3v+uiepJcDDVHjU7UMZ1zU17vg9pr+5SgMDQY6C9h1kAJ1jJvhYiIOoP3CkCdMdZ29xfgm62nTGC++p6zF6377r/A6eYPWsz9cy8iyqtFRFOtVicimhLauSk1iFzsAeD57135G7V6Y4WHPb2ZJEhaaQYxwUwdfREBnPNInSIfh5gzVEJfdwHKvBUiIuoQqgoPZMVcFMSlCL6Rfi+DrooPv/Lb7c/XmXXrirjkkgVc+IhoatTovARENCWKqJflpozc+Zljdye6Ks3cB5LEo9ZotUd9TOeP+rxaznk4VXSVcpgzWEapFMM55q0QEVFn8F69Aujpio1A4NV9Q9PGsvDoNY8DgOp5VuRmjgQR0QHH0puIDij94flW3nqTA4DGg4sHd9bTi0dGmp8KoyA3UWl6VWUz5T+x9w2V/v4CBmeVEMcBUuatEBFRJ9QIANSrFzHo6c2berXRKOTt58Zf3HV9zxlf2gEAev9CKyevZ3OFiA4YNlWI6MAUSgrZctf5Zt4ZNzld/RXz4m9u+3C1kiyCypvHJxrwKk4AI8Ln1C+/loo09Ygii4GBImYPlGAM81aIiKgzeK8KqLeBtV09BfgkeRQi1125YdHXr1sJr/qwBU7wImDeChHtd9ysENH+bgDI5i0LzJnzNjkAeHLLFWe2fLomaWXzNFU0GmlmzMzNTXndD3PBT8Z/8vkYQ4Ml9HTnADBvhYiIOqSG8AovyMrFOAhMAFW3OWlmi/JvXvK9do3xAwucxDBbItq/dTgvARHtL3dsnm/3NlPGfrTqsF27K6saSfbHcMBErelFmJuyLzjn4T3Q1dXOWykWIzjXPj2IV5eIiKY779UDQE933mSpy4zFn4mOLreHf+55ANDNZ1mZdxtHgohov2BThYgm3datF9pTTrnBi0CHH1nYU9tZvqDSSK6MbVAamWioQJXNlH1LFXDOARD095cwNFhCHBkkCd9aISKizljnvHpvjTHdPQU0JuoTQRxc81Ll2fWHv+1PxlRVcN98I6d+jc0VIppUbKoQ0WQWPPL8CxvtYYcuyADgx3ct/qNKo/5pePu2sWoD3quDijGGz6LJ+xso0swjjixmzSphdn8J4BHMRETUIbz3CsCHYWBL3QVk9daDita10ZEr/zcA6HMbAxy6wDFvhYgmCzcyRDQJG3nI5i0XmjPn3eAAYMcPFp1er2dLkxZ+q9ZIUG8kmTFiRZicsr8e9M57ZJmiWIpx0Owyyl0RvFd49laIiKgDeK+qAtdVjIMgtoB338pazavDI1feCQC6+UKLuTcwzJaIJqXWJiLaZ+7YfJE9c971DgCS5z47+PxzO5c1W9m53iOaqDbVCDjqcwBlmYcq0NObw9DsLhTyEZxzyDJl3goREU1vCnio805Nf19R0jRNRf2fNDRY1XXUou0AcMeWBfbMuRs5EkRE+wybKkS0T7w8N2X7/ecWa9W+86r11pVBYAfGJxJ4dd6ymTI1ak4FsszBGIvZs4oYGCghDgQJR4KIiKhD1jnvvbeBNd3dOdSrrZ020KuCxx6+OfjN2xqqKvfeN9+8k3krRLQPsKlCRG+0cPmZ3JRt96x4/2h1YqmFecdYpQHn1e3JoeXzZsr97RRJ5pGPAwzOLqGvtwhh3goREXWIvXkrURzZYimGa7buTZPK1fk3X/tNgHkrRLRvcJNDRK9zQw7BlguN7MlNGX3gipMrNb+i1sjen6QO9VqSgbkpU38R2NNEcU5RLscYGiyjXMrBe8e8FSIi6gjeexUR192VDwQKhPo3WSNbEx6x9P52TXORBa5n3goRvb56mpeAiF4r1ZuMyPkeABrD13Rve3TXsnrqPyoi5dHxhlpjPASWD5jpJcs8FEBvbx4HDZYRx8xbISKiTqldAFV1qjB9/QXJkqyi4v6kuX3nqq53rh1v/5sNRuRc/qRARK8J9zxE9BoKkhsNsFBFRHX0D6OnHjz47FojXREGwUGVagtOnRMYy3dTpnfRmWUO1v40byWwwpEgIiLqmHVO1bswDGypnEO91tyWi6Ll9918+abTrkLGvBUieq249SGiV/WsGN5+ix0aPCcDgGfvufw3JkZbK8Ta01uNBEnmmJvScUWnIss8crkAg7O70d+bg4J5K0RE1BnaeSvic7nI5gsRkqT1/dDJCnPUlf8MALpzY4BZC5yAI0FE9Es2SrwERPSLN9YQbJlvZN4mBwAv3P2Zt3qYy2sTyYcyr6hUm05EjDF8N6UjFwgB0tTDA+gutfNWSsUYjnkrRETUIbz3ChHf05W33nm1ofxFpd74bNcxKx9s10I/sMDbmbdCRL+4ZuYlIKKfR79wo8En26M+jQcv7d42FlzRTN35UPSOjjdgjHHMTZk5ssxDIOjrK2JwsIQ4MnDOs7lCRETTv+bZMxKkIravtwCfZaPqshts48Xr5ISbK6oqwHoRuYCrHhH9B9wPEdErCosNBl/JIJ9Y6AHg6X/72IerWbgisPbIarWBzHknwtyUmfndUKSZRxhazB4oYaC/CMu8FSIi6ph1DnDqXS4KbLEUo1FtPS2aLM+/efWftT+/0QAhGGZLRC/HbRER/cS27bcEc/bkpkw8vmTe8LbmqtCad+8eayJJUgeAuSlcNOC8wjmPfD7E4Owu9PbkASibK0RE1BGc9yqAz+dim+vOwVVqt3tgRXTk0u8CwLbhW4I5Q+16iYiImyOiGU4B2Xzfx8yZp3zVAcDYA8uPnag3Pz1RSRZ4hanUW04YQks/R5Z5eAV6unIYGiyjWNxzBLMHeAIzERFNd857FRHf21WwaZr5MJYNvlX7gj1yzePAnrwVebtnmC3RzMZNEtEM9oUbbzWfXHi2ikBH/uVDUSX3pk83kuRjXjE0OtaEMXCAcNSH/lNp5mBE0N9XwuDsIuLQIuFbK0RE1AH25q2IiO3pL8E1k2F1/vrn7Lbrjj78+lRVBevWi1zCvBWimYpbJaKZWCDcvMF8Oc1w6UXt3JSnvvOZP2gkyWpj7bHVeoIsy5ibQq+x6GyP/0RRgNmzSujvy8MYw5EgIiLqkHWunbdSiEKbL0RoNlqPWJMujY5a9dftz9cbIGDeCtEMxC0T0QyzbfctwZz+9hzwyIOfeceuUb8GHr9RqSdotFJvBRAxnN6g18X7dnOlWIoxNLuM7q4coIrUeS44RETUCeuc91B0FWMTxgFcmvw/k2ZLzdEr/h1g3grRTMQal2iG0PvOt3LKTQ4AJh5dcUR1vHHp7rHWBcZIMFZpegGEuSm0TxYWAdLUQxXo6cljaLCEQj6Ec555K0RE1BGc82qMaE9vwTTrWZaLcePukYkvDpx07bMAoPqIFTne8UoRzYDal5eAqLOpqmy562wz74yvO9W1wXNbXvh4PfEfF+BNoxMNAOIE4KgPTcJ3D8gyhyAw6OsvYXCghCgQ5q0QEVFH8ApAvTPG2u7eAjRLnvOKtfff9LdrT7vqrkz1Kwa4REWEQbZEHYzbKKIOdf1Nm8wpJ/2rnHH6nzkAeOr2y3+r0UzWOODkLM3QSpibQvup6PSKzHnkogBDg2X09hYgAuatEBFRR1BVOFVXzMc2lw/RajTvs5Al4VFL/rH9+R9ZrHu3yiXMWyHqRNxOEXXi4v7geVbedrMDgF0/XP22sZHRlc6b32s0U1TriTcGMMxNof3MeQ/nFaViDgcNllAq56CunbfCwTMiIpru2nkrQHcpNkEUwCXNvzFJttQcu/JhAFB9yIqcyJEgog7DMpaog+gDC62ctN4BwPgPP3lwpRJctHO8dVkU2HCi2vAKNlPowMsyDwXQ31fA7IESCvkAScof74iIqDN4rx5i0NsTm0atleRLwRdaE5Xrc8dd82MAUH3UihzH5gpRh2BThagDqKpsvutsc+YZX3f6zx+yz5YPW9hstC4VlaNGxutgbgpNtYXH7zmCObQGA7NLmNVfgrXCkSAiIuoI3isAccaI7e4rwDVbT9lQv/iesx+46bv/8pfujs0ftPPm/rln3gpRZ9S2RDRNqaoAXxKRT3oAeP7OK943UUtWOsUZWStDM0kzIyZgM4Wm5AIkgNsz/pOPQ8wZ6kJPd455K0RE1Em1GjyQFXNREBcCuFbyffhsRXDkin9uf/5FA1zKMFui6VzT8hIQTdNFeut8K6ducgBQeWDVUdvHK6vTxP1hknpUGy0vAIzhqA9ND855eAW6SjGGhrpQKkZwTuEyD+G3mIiIpjnv1QNAd1fOAB7w/ra02ViaO+6qJwFAdb4V2cSRIKJpiE0Vomnmhz883771rTc5AHj24RUDGGl+YqxS/2QYBvmx8aaKqLKZQtORAnB73lDp7ytgcLCEOA6QJnxrhYiIOmOdUw8vAunpLUiz0ajlIvuFHS+NrR38lc/tBgD90UIrb1nP5grRNMKmCtF0WYgVcudd55t3nXGTW756rTn/v75wdq3mP+UcThyrNOBVHABjhPc1TffvuiLNPKLQYmCghNkDJRjDkSAiIuoMvh244sMgsKXuPDRNHkLgv7DooCW3Xgd41X+3wKnMWyGaJrj5Ipr6G0zZvOUBc+a8tzsAeOaOy+Zlzq1KMn13kiqajSSDYW4KddjiJO2RIOcU+XyMocESerpzANhcISKizuC9QgVZVzEObGwhHt9ttpIl+SOXfK9dA37fAmewuUI01etWXgKiqeuOzfPtmfPa87XJg1cc+sKEW1GvpWdDxExUml6EuSnU+TLnoV7R1ZXH0FAJpUIM59qnB/HbT0RE053bk7fS2503WeYyg+xP1YfLw6MWvQAAd2z5gD1z7jc4EkQ0RbGpQjQFbd16oT3llBu8CHT4kaU9zV21c8eqbkkY2u6x8QZE4NlMoZlEtd1cMRAMDBQxe3YRcWSRMG+FiIg6YqEDnHpvjTHdvUVUJioTxVywZscLoxvmzP3iqKoK7ptv5NSvsblCNMWwqUI0tTaO8vwLG+1hhy7IAOC57y/6g3orWWwUbxurtOC8d1AxxvDepZm5YHltv6ESRQFmzyphoC8PMYYjQURE1BF+krcSBrbUk0dWbz1otLnKHrn6rwFAn9sY4NAFTgQcCSKaQjUqER1gqpDNWy40Z867wQHA9rsW/0ojS5c2E/3tZjNBrZFkxogVYXIKkQBw3iNzimIxxkGzyyh3RfBe4D2bK0RENP15r6oC11WMgyAMAHV/D5+tlkOX3A0Auvkii7nXezZXiKZGbUpEB9Add1xkzzzz+nZuyg8/O/jC+I4ljbr/qBeNKxNNFQGPSCb6BbLMQxXo6c3joKEycnGwJ29FmbdCRETTnvPqBSq9PUXJ0qwlojfVkl1XdR/7pR0AsPl78+28X93EkSCiA4hNFaID5OW5KfXkynh4S3pBJW1dGQbhrIlKE86352p5pYj+c6pAljkYYzA4UMLArAKiwCLhSBAREXXIOue992FoTbkrj3q1uTMI3Zq7/7F505kXXttSVbn3vvnmncxbITog2FQh2v8L48/kpmy7e8X7x6oTi6A4vVJLkHnvoGqMMbw/iV7TvdXOW4njAIOzS+jrLUKERzATEVFn2Ju3EsWRLZZDZM3kbpPVrrFHX/N/AeatEB0o3LQR7bcNH+SZZ261Rx55dgYAw/dccXKS+SW1hvsfaepRqzUzFWMZQkv0Bha1PU0U5xTlcoShwW6USzG8d2DcChERdQLvvYpY190VB+oVxso3sqR+bXjkyh+0a87HLPBm5q0Q7a/6k5eAaPKp3mpEzvYAMPr4yvL2bRPL00b2URvYrtHxhhojHiKWNyTRvpNlHgpBf28OswfLyMcRnHPIvIJzdURENL1rS0DVO4WYvv6SZM1kAkhvqmTFNX3HXDbR/jc3G5Hz+JMC0STjHo5oUhe8DQbIILLQXwGYVS+s+ZBr+RVpgiMffnIHWo3URZG1PNSHaLLuwfZIUBhazBooob+/iMAKR4KIiKhD1jnAqXdxGNhSOUaz1nzBBGbFg2P/8PXTTv5+pqoCrBeRC7jwEU0S7uSIJmuRG74lkKFzMgBoPL5iHiK7Olcs/lqr0kCaeZcmzuzcVZNdu2vw3iMILNhbIZqsolORJB6FQoChwW709OQgYN4KERF1hnbeivhcLrT5fIR6tfn9nPql9rjl//ayutQBHAki2te4hSPax/eU6sNG5AQHAOnTS44N4uKnkkTPDQNrxicazqmawBgxBrDWotlM8NK2KsYqDYgCQcDBBKJJuTkFSDMP9UBXV4w5g2UUizGcY94KERF1Bu+9QsT3dOWtc06DUP60Vat+PnfsVT8EANUfWODtzFsh2pc1Ji8B0b6hazcYXJxA5EL/o7/7/fwJbzvlUhG9GGE0NDZShao6EWNf+TaKMQaBKEYmEgxvH0ejkcJagbUGyuWOaBJuViB1HgaCvv48hmZ3IQoNnPdsrhAR0fRf5hRQhYOo7e0twifpqFf3lZ1ju79w0MlfrnIkiGjfYlOF6A0vXD/NTQGA+pOr/pcRWR3n4+Oa9QS1Zursz2mmvFIQGHgP7Npdw/adFaSJQxgaMG+FaLLu3XbeShBaDA6WMdBThLEcCSIiok5Z59p5K7kosMVijEat9YwxzaW5o6/68/bnNxoghMi5XPiI3gDu1ojegG3DtwRz9uSmJI8vPt3GxeUmCv9r0sxQqzcdVMQYeU3zPFFo0Ewy7NhRx67dNQAe1jJvhWiyeK/InEcxH2JoTje6yxEAhtkSEVFncM6rGPh8Lra5rhhppf4dY7AsOHzpFuBncwCJ6LXjNo3odVB9xIoc7wCgdt/Swwqzcpc1mnpBvhDbsbGa816NteZ13V8eQGAMrBVUawmGt09gYqKFdgYL81aIJmsxTDMPVaCnK4fBoTKKhYh5K0RE1DGc92pEfE9XwaZp5sOC2TC+Y/TzPW+77ol2ffsDC3m7F4bZEr3mOpKIXqW1azeYi/fkptx7/+nBqbN+7xPq/MdMHB02PlKD9/7n5qa8XntDa8fGmti2fQLNZgpr2w0X5q0Q7XsKIMscjAj6+0oYnF1EHFokfGuFiIg6YZ1TQNU7EbE9AyX4VvKSiFv/9LeHrz36nOtTVRWsWy9yCfNWiF4tNlWIXs0CtPZmg4sd9gZ6NR5d9TtiZWVcyJ3SbKaoNVqvKjfl9QoCA+8UO3bXsGtXFWnqEATMWyGavKKznbcSRQFmzSphoK8IY5i3QkREnbLOtfNW8nFoC+UYrVrzQfGtlfExa/6m/fl6AwTMWyF6FbgjI/qli85DVuREBwATj65+ayFnVtog/O9Z5lCptjwAvNbclNcrDA1arQzDO6rYPVKHgEcwE02mn+StFGMMzS6juysHQJGlnisoERF1wjrnPRRdxdiEuRC+lf6DIlkaHL7iPuBn8wOJ6OdjSUj0C6g+akWOcwAwcv9lh/QO9l1Yr2SfKpRz0dho06v6/dZM+en/Jvxk/KdSbeGl7RXUq02ICPNWiCZxoUwzDxWgpyuPodklFAohXOrBn++IiKgTeK9eBOjpLZpmvZHlCtFXd+8c+8rASdc++8q6mIh+FndhRK+gqqJ3fNCKHOe++d7ft/r8mvO6e/puh4kWOYdodKTmVL3Z3w0VABABvPdIU4dSMcIxR/Tj0EN6EYYWaergvfKUIKJ9/UxA+42wwBiMjdXxxNO78NJwFR7CN8WIiKgzNoVGjELM6EjVtRIfQIJP9PV2fTd7/qpL7l1yeiBynNPNH7SqykqT6JV7NF4Coj0bJ1XBljuNzHuXA4Dmi1e/22T+miAMT09aDrV6khlBMNVyTILAIMsUO3dXsXNXDVnqEIbMWyGaLN4rnPOI4wBDgyX09hQhwrwVIiLqlJq4nbdSzMc2lwvQSpL7fapXFo5d+v/an/+RXbfu3XrJJcxbIQLYVCHas3jMtyKbHAAkTy0/xhi7UiX4Q2Msxica+zU35fUwAILQoFbPMLyzirHROkTaGSw8JYhocjjn4ZyiVM7hoKEySsUYuieDhT1NIiKa7tp5K0B3KTaBNXAu++skTZYVjln5cLt+/mnuINFMxrKPZjS9Z6HFaeu9CPSlR5f2DRXyH2s0s88UuvLFsd11VYWKgZkON4oHEFkDSDtvZXjbOCq1BEFgYAxvdaLJkmUeCqC/t4DZgyXk4wBpyh/viIioM7w8b6VaaSSlkv18bcfOdaWTvzwMMG+FiDstmpFUIcDDRuQEB0CSp65eEFh8QuLwLdXxJtIsc4AxxkzPeyQIDLz32D3WxI7tFSRJBmvZXCGarIXU7zmCOQwNZg2UMdBfhLXCkSAiIuoI3kMB7wNjbbm/AN9MHjdOvnTFxkU3X7cGXvVuC7zTiwjfkaYZWQsSzRjt3JQFRua1R30ajy2emyuXlsME782aGSZqrUwU1pjOeHk/igxaLYcdu2vYtbsKn7UbLhxNIJqEBVV+OhKUi0MMDXWhrzsHZd4KERF1Ti0ND2SlfBREcQSXZrf7NFsZHbPkOwCgmz9gMfc2NldoZtWAvAQ0YxaBzR+wMu8bDgDGHlr2pkI+WgHI2UEY2NGJhocCdgrnprwe3gNBAFhrUasn2L69grHxBkQEYWDA1Y5ocjjn4RUol2LMGepCqRjBufbbLIYHBhER0bSvMdV7r9LXmxfnPFTdn4Vil8vhVz4NALp1vpVTN3EkiGYENlWo4+k9Z1uc9jUvIvrk1ku6D+kZuMApLi8UCz3jY3W4zHk7bQd9XuU1ABDuOfp1vNLCtm0V1BstBBwJIppUe99Q6e8vYHCgC7m8QZLwrRUiIuoMzsMbgfT0FaRRaVTCnP3cyM6xGwZP/dxuANAfLbTylvVsrlBH426KOreR8LO5KUifXP77sOHiII5PqlWaSNLMoR2cMqPug3beCrBrpIqdO6tIErdnJIiPA6LJeRYp0tQjjAIMzipiYKAEw5EgIiLqEN57BeDDMLClnhzQSn8EL5+Twxf9aXsZfNgCJ3gRviRNnYm7KOrEDYwADxiRt7ePSH58xelhMbcEML+dpQ7VWitTVWtm+CsaUWDQSj2Gt09gZKwO9e2GCxFNwmL7sryVfD7G0GARPT05wAkyz+YKERFNf96rqsB1FeMgiAIA2b+5Zn1ZcOTq77Vr9B9Y4CTmrVDn1Xm8BNRJNm85y86be5sDgPFHLpldyM1aprAfDeMgGh2pKUS8QCxfymgzBrDGolpPMDw8gYlKE2L25K1wuSOaFJnz8AB6ynnMGSyhUIjgnEOWgXkrREQ07TmvXr1Kf29B0sxlRvXWtJksy5+w8iUA2Lz5A3benpxDok7ArSV1hHu2fsSedsomLyL6yD+elT/u+BPPrSd+WaFYGKhMNJBmzhvTKWf67HvtN1QEo2M1DO+oot5IEXEkiGjyKJBmDsYYDMwqYnCgiCiyzFshIqKO4Zz3NrCmuzuPeqU+EYZmzY9Hd958xKlrx1VVcN98I6d+jc0Vmva4Y6LpvS9RCJ7faOWwBRkAZI8veb8L8kuifHharZoiaWUO8MYwjfVVCQID5xS7dtWwfXcFLvEIQjZXiCbvGdY+ESiMAwwOlDCrvwgwb4WIiDqE914h8GEQ2FJXDlmz9YDxyWp71Kq/BgB9bmOAQxc45q3QdMadEk3TjQgEmG9E2ke1pU8vf3sQF66E1993XlCptjJVZ9lMeY0LH4DAANYGaLUSDG+vYPdoEwJl3grRZC3Ee/JWskxRLMQYGiqjuyuC9wLPvBUiIuqEGtOrisCVinEQhBYQ/3ettLUmd9jyewBAN19oMfcGhtnS9KzleAloulH9shH5uAKi2+/5dH/fYPciqP1oENmukZG6ioC5KfuAMQbWCiqVFl7aXkG10oK17bdZmLdCNDmyzEMV6OvJY2hOGbl4b96KMm+FiIimeQ0PKNSpqunrKUqaZk1j3E0mDK4yBy3a2f43643IQv6iQNMKt500jR7ENxpgoYqIXnHc24OV3/7tj6SN3LJid+5N1fEm0jRzIobNlH1sbxNldLSdt9JqZTyCmWiSi84sczDWYHBWCQP9JUSBQZI5eADsrRAR0XRf51S9CwJry905NCrN4TCQ1T+487mNp31oQ1NV5d775pt3Mm+FpgnuimhafE91+BYrQ+dkAJA+sfS9mYlX5MrxrzYmUjSbLaeAsRz1mVRBYJBlip07q9gxUoPPHILAgr0VoskqOtt5K3EcYHB2GX29BQjzVoiIqEN47xWAz0WRzXdHSCqNe7xma/LHrPo7gHkrNI02q7wENHU3FJDhnV+3c2b/cQYAjYevPDHX1X15lro/CoJARifqDqoMod1vCx8QBIC1Bs1Whpe2VTA21oAImLdCNFmL9J4minOKcjnC0GAXyuUcvFPmrRARUYfUmF5FxHV35QOoQoz/RtJy18RHLX2gvSe4yALXM2+Fpm69xktAU5HqrUbkbA8AjdvOzYXvOuIKA7lIgnBgZKQGgXLU5wAyBjBGUKkmGN4+jkolhQ0EgTFc7YgmSZZ5KID+3gKGBkuI4wDOebC3QkRE07/2B1TVKWD6+gviW9m4V79+59jYmoNO/nwVgKjeKnv3B0RTCbekNMUeqBsMkGFvQJW+cPUHGw2/Kl+Oj6pNNNFMM2fZTJkygsDAK7B7dw07d1bRSpi3QjS5z8g9RzBbg1mzyxjoL8Ja4UgQERF1yDoHOPUuDgNbKuXQajRfjONgubxp0SYAqp9db/DpACLncuGjKYM7H5oytg3fEszZk5uSPb38V8VEq0w+/vWk2kKtmThV5qZMNXtDM8M9IZo7dtSwa3cN3nvmrRBNatGpSDKPQj7EnNld6OnJA1A2V4iIqDNqzL15K7nY5ksRtJVuFttaLoes+A4A6PAtgQyd4wC+JE0HHrc8dMC/g6oPG5ETHABUH1pybLG7dGkrcR+No9COjdedV2UzZRrYewRzvd7Ctu1VjI83mbdCNMkLeOo81ANdXTHmDJZRLMZwznEkiIiIOsKevBXf012waZppGNmv1+qj15WOufYRAFB9wEJO8sLmCh3gmozogNC1GwwuTiByob/3zxfkTp175CcczMeDKBoaG6lClbkp01FgDCDA2EQTw9snUG+kCKzA2vbRzES0rx+m7eaKMYK+niKGBkuIQgOXebC3QkRE036Z23MEs4jYnt4SNEt2eu+uv/PuJz4/7wNfr6mqAOtF5AIue3RAcLtKB+DBeLMB/E9yU2qPLf/v1gSr40J8YqORoN5MmZvSAYLAwHvFrt017NxZQyvJEIbMWyGavGerIk09wshicLCEgd4SjOERzERE1CnrXDtvJR+FtlCK0Ko3H8+0tax0zFXfaH++3gDMW6H9j7sb2s8Pw4esyIkOAPS5Fe/wzq40+fi30pZDtdZyUIgxwnmRDhJF7SOYd+yoY9fuGgCFtYZ5K0STtKg7r8icRzEfY2hOCd3lHAA2V4iIqDN4rx6iWszFNirHcNXmv6hNloWHrbwT+NmcRqL9VX8RTTrVR6zI8e3clPsvP7ww0H1Js5ldnC/kg7GxhlP1bKZ07MLXfmvFWkG11sLw9gomJlowBrCWf3KiyVrc08xDFejuzmFosIxiIWLeChERdQznvBqzJ28lSV1YCG+sVnavLR9z3RPt/ccPLOTtzFuh/VJ3EU2a9ozjWhH5uL/3/tODk7v/28Vi9RMmjg4dH6nDe+dExHIkZGbYG1o7OtbEtuEJtFoprG03XJi3QjQZz2AgyxyMEQzMKmNwoIAosEj41goREXXIOveTvJX+ErJmss0a+erT//zi544+5/pUVQXr1otcwrwVmjzcydLkPODW3mxwcQsiF3sAaDy64rclsKviXO6UZitFrdFyls2UGSsIDJzbk7eyq4I0dQiCgCNBRJNWdLaPWw4jizmDZfT2FmGEI0FERNQp69wr8lYarQfhGityx179f9qfrze4IYBcxLwV2ve4haFJeKj9NDfFP7bqeB/LGmuD/5E5QaXa9ADAUR8CgDA0aLQy7NhRwe7dDR7BTDTJvFdk3qOcjzE0p4xyKQJUkDnWmERE1BHrnPdQdBVjE+YCZI3WPwRB80o59KoHAGDb7luCOf3MW6F9i00V2mdUH7Mib3YAsH3LRXNmH37IxxuN7BP5Yi4eG2t49Z7NFHrFdwYIrIGxgkq1hZeGK6hWmj8ZCSKiyZFlHipAX1ceswfLKOQDpCkbK0RE1Bm8Vy9i0NOdN62klcaRvWF89+jne0767IvtGvRRK3Kc45WifYG7FtoHG+Of5qa8532w//on13xUBZ80cXhMZaSOzDsHiDGGwx30iwWBgSowOlbH8PYKWq0M1gqsMUwXI5qUZzeQZg5BYDCrv4TZs0qwVjgSREREHcF7BaDOGGu7e/JQ55720LX3r/+/15921V2Zbv6gxdw/9yLCUpPeEG5y6Q0U5CrYcqeRee9yAFB/ZMV7coXcagmCX01bCSqNJDNAwNwUei2iyCBJHLbvqmFkdw1p5hEGlnkrRJNUBDjv4ZwijgMMDZbR31OAMm+FiIg6Z88CD2TFfBREUYAkTbaKx6L4qCX/DAB6170WWx9Q5q3QG6mniF77w2nzfCvzNjkAGP/Rp48pFHuWw8iHrFiMTTSYm0KvmwcQALChQb2eYdvOCsZHmbdCNNmc8/CqKJdymDNYRrEYw3uFc55NTSIimv41plcPAOWu2FgA3ulfJVpfXjhyzcMAoHqeFbmZI0H0mrFMotdE71locdp6LwLd+eAlAz2lofOTNL2i0FUojY3U1KuoMTD8YtEb/q4BCI0BjKAy0cRLOyqo1VrtDBZ+w4gm7b5ze95Q6estYGiwhDhm3goREXWOn+St9OZNtdJolQrRdTt/vPum2ad/7iWAeSv02nFnQq+u0FYI8LAROcEBkNZTV/2RDczlNheeWB1rIE0zBxhjDL9TtO8FgYH3HqMjDQzvrCJJMtjAgDE9RJNTGPi9RzCHFgMDRczqZ94KERF1Du9VAfVBYG25twDfbD1hRK674uYrN123Bl71bgu8k3kr9KprJ6JfqJ2bssDsHfVJn1rxriCXWwFr35fWM1QarUwUliG0tD9EgUErddixs4Zdu2tQ9QgCywtDNBkFgrRHgpxTxLkQcwa70NudA5i3QkREnbPXaeet5KIgzkXwSXpHs1ZbXnzLmu8CgN7xAYt5t7G5Qv95zcRLQL/wIbP5LCvzbnMAsOOxVQf1RsEyBc4JAhuMjNfVQJS5KbS/GQNYa1GrJxgermBsogEjgjBsnx5ERPuecx7eA11dOcwZKqNYiOCcIvMeXASIiGi625u30t2dMz71EKu32qi2QuZc/SwA6Nb5Vk7dxJEg+rnYVKH/QLd+xOKUTV5E9Ll75hcPGjjioiTDokIx3zM+0YDLnLfWsI6mA/cdBRDuCa2dqLTw0rZx1Bsp81aIJvO+U8A5B0Aw0F/A7NldyIUGCd9aISKiDikwncIbEenpzUuj1qiEgXyuMbJzbdepa8cBQH+00Mpb1rO5Qj+Duw96ecEsTz+/0R512IIMAFrPLP1fRnJXBGF4aq3aQpJmDu3gFH5vaMoIAgPnFLtH69i5s4IkcQgCAx7lTTRZa4UizTziKMDsgSJmDRQBYd4KERF1Bu+9ihgXBCYodefgW8kDJsIXZM7iP2svgw9b4AQvAr4jTQDYVCHsyU3BAiOyJzflmTWnBbG9Et7+nnMOlWqaqTrLZgpNVcYAgTFopR7D26vYPVIFwCOYiSazeHDeI3OKYj7G0GAZvd0RvBdkns0VIiKa/rxXVYHrKsVBEFnA+39Oa81l0bEr7mrvoX5ggZOYt0Jsqsx0m7ecZefNbeem7Lp/2UBXd7QEIueFcZgf2V1TMeIFYvmjP00HxgDWWFTrLQxvr2Ci0oSAeStEkynLPFSA7nIOcwa7UCgE7byVTMFBUSIimtYU8FDnnZr+/qIkSZYYo5vS8crKwtuu3fbK/RTNTNwqz1D3bP2IPW1Pbsozt/9O4ZA3nf6RJPNLC+XCUGW8jixzTsSwmULTUhC0z/bePVrH9h1V1JspIo4EEU1ezalAljmYwGCgv4TZAwXEgWXeChERdcw65733obWm3JNHvVofCQyueuKF4T95y3turKiq4L75Rk79GpsrMxB3GDPvgSB4fqOVPbkp2ePLfzeVYFmulH9HrdpC0kodoMxNoY6wN29l564adu2uIk0cgtCCvRWiySkovCqyPXkrg4Ml9PUWITyCmYiIOoT3XgHjoziwxVIE38rug29cbY9c9dcAoM9tDHDoAse8lZlXA9EMoArBlouMzLt+T27K6pODKPiMejkLXjFebWWqytwU6rCFDwgCwFqDVivD8PYKdo82IGDeCtGkFRYCZM7DZYpiOcJBs7pR7orhvcIzb4WIiDqixvQqIq5cigMbWEDdN1NfvzY6dPXdAKCbL7KYez3DbGdK7cNL0PlUbzIi53sAePbBK3sOLRUv94FcZIOgPDJSVxEwN4U6njGAsRbVahMvDVdRrbRgbbu5wrwVosmRZR6qQE9PHgfNKSMXR3DOIfMKtjWJiGh677EAhTpVNX09RcnSrAX1Xx2v7rh24G1rd71yH0adi9vojr7RbzTAQhURffe3PmC/c/xbz254vzJfiA+pVhOkacbcFJpx9jZRRkdrGN5RRaOVMW+FaJKLzixzMNZgcFYJA/0lBAGPYCYios5Z51S9CwJry115NOvN7SF01eZ/3HLLey7+dqt90up6EbmAC1+H4i6iU2/u4VsCGTqnnZvy2NL3OAlXRcV4brPp0Gi0nALGctSHZrAgMMgyh5276tixswrvPYKAeStEk1d07slbiQMMDZXR312AMm+FiIg6RDtvBT6Xi2y+FCOpN+8yQXN1eOiaf2jvzzYEMnSuAzgS1Gm4feioghUyvP1WO2fo7AwAqo8tOa7YVbgybeKPwsDK2ETDqTKElqi98AFBILBWUG9kGN5RwdhoAyLMWyGatKJjTxPFq6JcjDA01I1yMYbzDoxbISKizqgxvYpY190VB/AKCfGNVjW9Knfs0h+292yPW+BY5q10Un3DS9AZVG81Imd7AGg88MVc2NNYpCoLgzicPTZSg6py1IfoFzDGwBhFZSLBSzsqqNVaCKzAGsPVjmiStN9QEfT15TE0WEIcBXDOI/Ng3goREU3zvRmgqk4B09dfkqzVGrXq/2R4bPfqg07+chWAqN4qe/dvNL1xiz3tb9gNBsggstADgP54zR82am5FvpQ/tl5N0EpSNlOIXqUgMFDvsWukgR07q2glGULmrRBN4hqmSDOPKLSYNdDOW7GWI0FERNQ565xXdVEY2FI5h1ql+XwxHyyXQxfdCkD1szcafDqEyLlc+KYx7hSmsW3DtwRz9uSmpE8uP0PCaJXNR+9tVVLUGy0HiBgj/MGP6DWKIoNW4rB9ewW7RuqAKqxl3grRZBUizitS51HMhxic3YXenhwANleIiKgzOO9VID6fi2yuK0LWaG4OYl0mQ0u/C/xsHiZNz1qGphnVh6zIiQ4Aqg8tObbY33Vxs55ekIsiOzZec96rsZa5KUSvVztvxcBaQa2eYNtwBRMTTRgDWMs+JdFkFSSp81APdHXFmDPYhWKxfQQz81aIiKgzakyvIuJ7ugs2S50PQv1arTHx+dIx1z7S3uc9biHHemGY7bSrYWia0LUbDC5OIHKhv+nZi8Jz9JCPi9FPmSgaGhutQj1zU4j2tSAwgAJjE00Mb59AvZG281Zs+2hmItrXix2QOgcjBn19RQzNLiKKLFzqwd4KERFN+2VuzxHMImJ7+orQVrrTCb6SjDz5heLJG5uqEIB5K9MJt9/T4cZbe7PBxf4nuSnJYyveLzZYE0TRW5tJglozdZbNFKJJFQQG3it27a5h+84q0sQhDJm3QjR5RWc7byUMAwzOKmGgvwhjOBJERESdss4BTr0r5EKbz0Vo1JtPBCZeHB19+V+2P7/RAMxbmQ64G5jyN9tPR32yR1ecgly00gbB72SZw3i15Q0A5qYQ7T9hZNBqeezYUcWu3TUACmsN81aIJon3imxP3sqcOd3oKucAKJsrRETUKeuch0ALucjGxQi+1fynTLE8PnzJ3cDP5mjS1MRtwBSl+ogVOd4BwPP3X3bImwZ7PlGvuo8XSsVgdLTuoZ7NFKIDcW96wAYG1gLVWorh7RN78laEeStEk1ispJmHV6CnO4c5g2UUCiGc88xbISKijuCcV2PaeStJ0nJRHN/YGq18MfeW1c+8cn9IUwt3AFNtw6Yqql8xIse7yxefHugzqz9+cF/fdyG5T6WZBKMjFQf1hg0VogO0uTOA9x5p6lEshDjqiH4cflgvoihAmjp4r3xrhWhfr41oj+BFgcH4eAOPP7kLL22rwHtFFHA5JCKi6a990IjY0bGaqzedRWA+FhTzt7tnr77i3vtPD0SOd6o3mLVrN3Dhm2r7A16CqWHt2pvNxRe3IHKxB4DGE8t/IwyiFTaOTm81UtSaSWaAgPkNRFNPEBg457BzVx07dlbhnEMQBGyuEE0SrwqXeYRRgDmDZfT1FiDCvBUiIuoMe/NWirnQ5vIxWvXmfVmqK0snLPvb9uc3GqyzkEvO48I3BbDknxI3zctyUx5Zchzi/AoTmg+oCsYmml7A3BSi6SAMDZqNDNt3VjAy2gCw5/QgIpoU3iuyTFEqx5gzWEJXKYL3gtR7vopLRESdsM55D6C7FJsgskiT1t+FBkvl0KUPvHIfSQcOmyoHkOpjVuTNDgCq939iqNg/6+JGM/tkvlTIjY02vKqHGDH8IxFNk3saQGANjAgq1SZe2l5FtdZEYAwM72SiSbP3DZWe3gLmzCohnw+QpPzxjoiIOoP36kUMenpzplFrpfmc/erozpEv9p3y+Rfb+8pHrchxbK4cIPwh50BsvH6Sm/Jmd/liGH3h6o/m+2bfjjC+MvOSGx2pOlUvhg0VomlFADjnkWYOpVKMY47sx2GH9MBa89O8FV4mon0uCAysFYyM1PDYU+28FYjwTTEiIuqMTbsRo+pldKTmklRDBNGl3bMGbtcfr7748sWnByLHOb3jg1ZVWWoeoD0A7SeqKthyp5F573IA0Hrqql8LxKwyYXBmmqaoNJibQtSJm70sc9i+q47du6vIMo8wsMxbIZqMokYA5xTOecRxiKGhEnq7mbdCREQdtaeEU3WlQmzjKIBLsns11kXhwYv/FQD0rnsttj6gctG5XPj2V/3BS7Cfvvyb51uZt8kBQO3Byw+PSsVVMMGHrbUYHW8wN4WogxkDWGtQr6cY3lnB2GgTIu0MFlVeH6LJ4JyHV0W5lMPQYBmlYgzv2w0XNjWJiGi68169Augpx0YE8D77/1SbS8MjrnocAFTPsyI3cyRoP2BZMcl064UWp9zgRaAv3X1h39DsORfUE7+o2FUojo3U1atXI8awwCPq8GcBgNAYwCgqEwle2lFBrdpqjy0YAXsrRJMjyzwUQH9vAUODXYhjg5R5K0RE1CH1pf4kbyVv6tVGqxCHn932zK4bDnr3F4YB5q3sD9zKT9YXXCFPP7/RHnXYggyAtJ666o+Mlc8EufAt1fEm0tQ7AMYY/g2IZpogMPDeY/dIAzt2VtFKMgRBO+CWiCZjTVZkmUcQWsweKGLWQAnGCEeCiIioI3ivCqgPAmvLPQVomjwmqXz2io2LvnbdGnjVuy3wTi8i/B1vErCC3/eFm2zessCcuWfUJ3t+5enWxitg7G9krQwTtVYmCst3U4goCgxaqcf2nRPYvbsOr4ogsHwwE01GwSPtkSDnFLm9eSs9BQDMWyEioo7Zi8IDWSkfBVEYwmXu9marvrx03KrbAUA3f8Bi7m1sruzrGoOXYN+5Y/NZ9sx5tzkAGLtv6cFdvbmlGWR+GNho92hdxYha5qYQ0R4eQGAAay1q9QTDwxWMT7TzVnhqCdHkcc7De6C7K8bQUBeKhQjOOWRZOwOJiIhoWteYXj0E6O7KmyzN1Ab4uk11hRy15FkA0K3zrZy6iSNB+wibKvvAPfecbU877WteRHTHg2eV+rqOP6+VyJWFrnx/ZbSBNHPeWpZpRPTzKYBwTxNlbKyJ4e0TaDRTBIEBTwMjmqT7ToHMOQgMBvqLGJxdRByHSJKMF4eIiDqiwHTqvRErPf0FqY7XxwuRufb5ynPrj3jbn4wBgP5ooZW3rGdz5Q1itf7GCjIBHjYiJ7SPSH5s6f9AkF8c5aNTatUWkiTZk5tieJ2J6FUJAgPnFbt21bB9RxXOOTZXiCZ1LVekmUccBZg9q4T+/iIMj2AmIqIO4b1XiLgwsEGpuwDXbD1oA1wnh1z5F+118GELnOCF5ya8bqzSX18BJsB8I/I1BwCNJ5e9I5fPL4XK+12mqNRamapaNlOI6PXYewRzK8mwfXsVIyN1KDgSRDSZxZDzHlmmKJZiDM0uo7srgvcC79lcISKi6c97VRW4rmIcBGEAiPvHtNpcFR274q72HvcHFjiJeSuvs46g10D1S0bkUg8AjR9d3RsW3VIVe14QBcWRkZqKGC+A5Y/KRPRGGQNYY1GttbBtewWVSgti2qNCyuWOaFJkmYcq0NOdw9BgGYVCCOcUWabMWyEiomm+mQU81Hmnpr+vKGmaJSJ6izW63By6ZCcAbN5ylp039zaOBL0G3Pq/2u+f3miAhSoi+s1vfSB6//FvXdBwbnmhVBiqTDSQZc6JGDZTiGifC4L22esje/JW6s0UEUeCiCZxzQeyzMEEBgP9JQwOFBAFFglHgoiIqEPWOe+9D0Nryl051KvNkTjGqicefvjm43/ztoaqyr33zTfvPPVrbK68CqzIf9kXDhAM32Jl6JwMABoPL/pNE+WXRYX86Y1agmYrc4BnbgoRTbogMHBOsXNXFTt2VuGcbx/BzKcP0SQVnYos84jjALNmlzDQW4Qwb4WIiDqE914B46MosMVSjKyV3Ouy6lW5Y67+vwCgz20McOgCx7yV/xxL8V9YSEGAHxiRtzsAaD6z7C1xlF/kUnzQWIOxiYaDKpspRLT/Fj7sPYLZoNXKMLy9gt2jDQiYt0I0aYXSniaKc4pyMcLQnG50lWM458C4FSIi6oga03sVEdfVlQ8MFDD6N861rgoOXXEfAOjmiyzmXs8w219UK/AS/EcvH/WZePai7pIbusJbe56Ngr6RkToEcCLCUR8iOmCMMTBGUKk2sX17FROVJqwVBMxbIZo07TdUBD29ORw0WEYcB3DOI/MA25pERDS998CAqncKMX09BXHeVVX9evixa8MjPre7/W82GZH5/EnhFdgW+Jkv0gYDpBC5wAOAe3rx2c0st6JQyh1eqzbRTDJnmZtCRFPI3ibKrtEadu6ootXKeAQz0aTWCu2RIBtazO4vYdZAHtZaZJmHB5srREQ03de5dnMlDANbKufQqNaHQxus3PjdP7/l/HMeTtsvIIQQOZfNlT1Yde/98gxvCGTo3AwA9IXV73YarLD58NdaEwnqjZZThbGWoz5ENDXtDdHcm7fiPfNWiCa36Gw3V3K5AIODZfR2F5i3QkREHaOdtwKfy0U2X4iRNlp3GuOuDo5Y9q2X7Z8dwJGgGV1ut3NTHjcixzoAqD6x8vhiOfeprOHmB2FgxsbrTpmbQkTTYuEDgkBgrUW90cLwcBVj4w2IAQLL386JJqWIEiBN22+odJdjDM0uo1SM4TzzVoiIqFNqTK8i1vV05QLvHExk/jSp1T8fH7PyQQAY3v6nweDsD8/oMNsZ2yzQtbcaueRsDwC1P1+Qi844+nIjuMjko1lju6tQVR6RTETT0t68lfGJOoaHK6jV0z0NF+atEE2WvXkrfX15DM0qIc5FcC5j3goREU3/vfPL81b6S+Jayaiqu2nkkR9dNfhb36gCENVbReTsGfmTgsy8L8TP5qboj68+q9lwK3OF3LG1agvNJGVuChF1hCAwgAI7dtewfWcVaStDGDJvhWjyagxFmnlEocWsWSUM9JVgLUeCiIioU9Y5wKl3cRjYUncezVrj6VwuXCkHX/GnAFQ/e6PBp2de3sqMqqy3Dd8SzBk6JwOA5vNrTgsyXGWL8fuSaopas+WgIsYIf1Aioo4SBgZJ6rB9Rw27R2rw6hFY5q0QTVZh5bwiTT2KxRCDs7vQ25MDwOYKERF1Bue9CsTn85HNdeWQ1et3BFYXyyFLtwCADt8SyJ5990xZ+zue6iNW5HgHAKMPLzqyp7vrU2mi54WhDUbHG169CkNoiahTeQCBMbBWUKu3sG24iomJJowBLPNWiCanwNqTt6IKdHXlMGewhGIxhnPMWyEios7gvFcj4nu6CjbLMh/E9tZk18g18duue6K9D3/Yipzg0eFhth3dSNCbNhmc9F2R0291T95yUXjE+w7+BDwuMXF0yPhoFd4zN4WIZpYgaDdRxsaaGN5RRaPRgrXMWyGaTGnmYQTo6ythaHYRUWiR8q0VIiLqhD33nrwVEbE9vUUgS7fB6Q3//v2nPn/ahzY2VW8wWBdBLunckaCObCfo9RsMTv+eyKmbHAA0nlr1OwayJsrFJzWbCWoN5qYQ0cwWBAbeK3buqmLnrhqS1CEMDMxMjm4nmtSis523EkcBZg2UMNBfhDEcCSIiok5Z59p5K8VcaHP5CK1G8zGjsjg6Zulftz9fb4CgI/NWpPP+mA9ZkRMdAGRPrDpFIlluTPj+zCnGqy1vADA3hYioLQwNWq0MwzuqGBmpA2iPBLHpTDQ5vFdk3qNYaB/B3N2VA7widZ73HRERdcI65yHQYiGyUT5E1kr/X2DT5XLI8nuAn8057RQds3y/PDel9fhlh0T5vo/VG9knC6VCODZa96qezRQiov/w7Gw3UawVVKstDO+oYGKixbwVokmWZR4qQE93+wjmQjGEyzzzVoiIqCM459UY8T3dBdtstlwuH64bGx9f13vCNU+/cv8+3U37illVRfUrRuR4d/ni0wN96doLw6j/dgTR5WmGcHSk4lS9YUOFiOg/EgG890hTh2IxwlFH9OPww3oQRgHS1MF7D/54TrTvBYFBYAzGRut44uldePGlCryXn+QeERERTWftg2DEjo7VXDNxFkHwiXK+fHv69DWfvvf+0wOR453qDWbt2g3TfuGbtrXy2rUbzcUX1yBysQeAxhMr/0sURitNFJzeaqSoNZLMCALhu7RERK95s5c5xa5dVezaVUOaZQiCgKMJRJPEe4VzHmEc4KDBMnp6CjDCvBUiIuoMqoBz3hULoc3lY6TNdKtLsxX545Z9q/35eoN1BnLJedNy4ZPp+Uc5z4rc7ACg+dyaowM1qwVyljfAxETLC5ibQkT0RkWhQaORYdv2CkbHGhABf0UnmkTOeTinKJXbRzB3lXJwexoubGoSEdF05716BdBVik0QWKRZ65thpkvk6GUPtff5P81HnU6m1RKt+oQVOcYBwM77lw0M9EefaLb0k7lCnB8bq6uqqDFgxU9EtC8WPgVCayCmnbfy420V1GpN2MDAGu7wiCZLlnlAgZ6+AubMKiGfD5CkfGuFiIg6pMb06kUMenrzpl5tJIVi9OXtz4x9eWjutdva+/5Hrchx06a5Mi2qYlUVbPmQkXl/4QCIvnDN/Mzrp4IoPKEy3kCWOQfAGMMqn4hoMgSBgVdgdLSO7TsqaLUyWCuwxvAIZqLJqX2QZh6RNRiYVcKsgRKsFY4EERFRR/BeFVBvjLXdfQVokjwhmf/y/334gZt+73f+0unmD1rM/XMvIlO+1JzSTQhVFeBOI/Ku9hHJL1wzzxqshA3ek9YzVButDIqAvRQiov0jCAyyzGH7rhp2764hyzzCwHI0gWgyijT56UhQHIcYGiyhv7cABfNWiIioM6gqPJCVilEQGossTe/yiitzRy/5DgDcede99r6tD+hFF507ZRe+KVsG65b5VuZucgDgn1tymEd+pXfy4TC0ZmS8wdwUIqIDxACwoUG9nmF45wTGRpvMWyGaZM55eFWUSznMGexCqRTBOUXmPPjbEhERTWsKeFUPAN1dOeOdh4h+Q7JkqT165RPAz+aqTjVTbhnWrRdanHKDF4E++68f7TnoqMMWZqm/Il8qdI+N1OC998by3RQiogO89iG0BhDF+ESC4R0V1GotBNaAT2iiybvvXOYBCPr78hia3YUoNkiZt0JERB2yzqmHF4H09BakXq03C6XwuvGx1g09J6zcoQoBHjVTLW9lylS+qpCnn99ojzpsQQYAzWeu/mAguNzmwrdVx5tI04y5KUREU1AQGHjvsXukgR07q2gl6Z6RID6uiSajcPN78lbCMMDsgSJmDRRhDPNWiIioM3gPBby3gbVd3QX4NHnUNeRz0ZsXfa29DN5tgXdOmbyVA17xqqps3rLAnDmvPeqjL6w5A7BLEAS/lbUyTNRamSisMazOiYimsjAwSFKP4R1VjIxUoaoIrJ1m58wRTQ8vz1vJ52MMzS6hpycHgHkrRETUGdQrvCAr56MgLERAlv2rNlurzNHL7wAA3fwBi7m3HfDmygEtdTdvOcvOm3ubA4DWQ4vnmEJ+CcR8NLBBuHu8pkbEG4hlQU5END0YA1hrUasn2DZcwfhEE9YA1jJvhWiyOOfhPdDdlcPQUBnFQgjn2qNCTJ8jIqLpznv1KkBvV95kqYOIbrJpstIcu/I5ANCt862cuumAjQQdkHbFPVs/Yk87ZZMXEf3+X80vvuPUI85LUywulPL94+MNuMx5Y/huChHRdLU3tHZ0rIntOybQaKQIAsORIKJJogpkzkFgMNBfwOzZJcSxRZrwrRUiIuqMdc6r90as9PQWpFGtj9vAXtMa3b6+69S14wCgj1xo5fgb9ntzRfbzhRC8sNHKoe3cFPfs4venvrAszsWn1motJK2EuSlERB0k+P+z9+/Bsm77Wd/3HZf37fttrstce0s60pEQN0cFsiEFTsrBxC4qdoJxpSqp2IkxIIO5GVsGjAlCR0gqgxwKjEGALQQxTgpiQ9k4AQImwoWDoUTQxUJICOnsteatu2ff++37+46RP3rOtfeR9tm3tXqtOXs+n6pTqlra0jnnXXP2O8bT4/cMbymKyGC4oNfPKIpC4YrIQddakd0uUCp5njyp8/SkBlYjQSIichxCCNEYU3jvfL1VoVhvfsg58/vNV/3uPwfwk8+/13/t535tYQxvbCTojaxq9y29v9ka88cKgOzHv/0ba3X/BaL5lUURmWe7PMbCKUwRETk+9mb8Z7PJb/pWloCuYBY52OLupm8lLyKNWomnTxu0mmVCiISgcEVERO6/EGKMhqJZK3mfODDhr7DJv9V8/vd8/z6D+DUOvveN9K0cPMSI8U9aY35DADj/77658/SrT76FYL8pKfvGaLSMxhAMxulLSxGR42YtOOuYL9Z0exmzbI01hsRbYtTzETmEPA/ECO1OhWdPGlSrnqKI5HnEKtcUEZH7LEIgFiFG+6hdM/lut3K2+DPzy+ILrV/6bX340h7XQzlYlBHjH7fwb0ZjTLz6f/7v00f/k2/414td/L3lRuUrssmKXZ4XxliFKSIiD4z3lgiMx0t6/YzlekeqkSCRw605I+R5gbWWp0/qPHlcJfWebV7o4YiIyFG850IIIUmcbbSqLGeLQSlx3/4TP/4j/+nP+1/9uVWM0Xz/3/819n/6T/2Zg7z4Xv8KNmLiF7/Hma/9phwg+6l//1fYvPyFSr32S1bLDev1roCo3hQRkQfutm/lerBgcD1nVwT1rYgcdNEZyfNAUvKcPm3wuFPFGPWtiIjIcQghRLAhLXlXqyfk6933m93qO/zP/o6/BBCff6/nAH0rr23luu9N+UFrzC8sANb/6Nu/oVTzvz3f8a85Z5lMVwpTRETkAy8+8P4DfSu9OaPxGojqWxE5EGP2Vy3nRaTeSHn3tEm9XiaEAtWtiIjIcawxQzTGFY1myTtjwBT/xXqz+a7K137h7wHE+I8c/OzwusKV1xJwfHDUp//Xf33j0c/63O+Izv4W59POaJRhTCwMGvUREZEPZ63FWsM8W9PtzZjPtzhn9qNC6lsROYjbEyrtTpV3T+uUSjd9KyGiWFNERO6zGCHGWESiPWnXTL7Lly7mf2Q1XfyB2jf+gcn+n/nT1phf88pfKZhX+w/6PRZyjPk3A0D+k9/6r26C//ZqrfT5RbZhvc0Lp94UERH5hG5DlMF4yXV/xmajK5hFDrvo3I8EOec4fVLn0eMa3hmNBImIyJG85yDGUCTeuXqjwmq5uvCJ+8IP/af/rz/zi7/zb+f7AyIJxnzTZ37xfeZV6lX3T/l3nv26HKB48YX/BUX6BVtLf9l2vmWx2hQxYp3TqI+IiHx6+xLNHb3BksF1RggB7x3KVkQOtejchyvlsufZaYN2u4pBfSsiInIc9n0rhHI5dZV6ynK+/tsVG7/Vft3v/W8BYvdPeXOTb3xan2p5GsEQf8ga8wsKgPkP/3tfX3/U+Z3bTfi1aerteLosYozWqTdFRERe6cX3ft/Kcrmj25szma4xFrzTYILIQdz0rRQBWo0yz57VqddKFIX6VkRE5FjWmCFiTGg3K64oiugT82dX6+UfqH7dt/8ofLa+lU8cfsQ/8sctv3Xfm/J9//E/V/pnftU/+zuI5jdan7w7GS+IMeqKZBERee28tWAi02zL1dWc1WqDcwbn1Lcicii3J1ROHlV552mdNPUUu4CyFRERue/2I0EUEF3nUZ3dejsgFv/Ji/e63/mzfvkfW+4v4fm/GmN+9Sd67ZmP/zf8Hgs7jPmNAWD9j37v/w6fflupUv65q8Wa5Xqn3hQRETk47y0hwGC4oHedsdvmJInFvu578UTkZg0Y2eWBUuJ4/KTO40d1nNVIkIiIHM97roixKKfe1Rpl1ovVT8Vov6369b/nPwP4A9/1x+3v/B0f37fykVHIB3tTwk9+xy/Oid+eVEu/YrvOmS82wWKw1ugctoiIvDFJYtluc3r9JYPhgkjAO/WtiByCAYoQ2RWBWiXh2dMm7XYFiOx2Qb93IiJy74UQA8RYqZRcuZYQNpu/ab35veYr/s9/Cz6+b+VDX4Ux/kNnzM8rADY/+u9/bdpp/1vrRf6by5XETyarEEIwKqEVEZG38uJjPxLknGGx3HDVzZjN1li772ARkdfPALs8EGOk1arw7LROraq+FREROR5FCNEaE9qtqttt85Ck7k/Pp/Pvav4T3/GPAGL8UYf5+cHwpYekvyQY+SN/7Hvtb/1Na4z5TeH7f88v8b/o3/iXfmtB/GaXpl85GWfEEAuMVZwiIiJ3gvf7EGUyWXPVm7Fe73BuH7iob0Xk9YtxP/5jLZyc1Hn2tE6aWHYaCRIRkSN5z8UYCmOMa3fqkG+vioI/9gN/+x//wV/8r37vOv6h77aUU8xvfH8kyADEP/G9ll/0t4z5RX+6AFj++Lf9C9a77yhVSt+4Xm5YLHeFc+pNERGRu2nftxK5HizoDzLyXYH3FqMXl8iBFp03fSup4+mTBk8e1cCob0VERI7lPQdFDEWlnLhqNWWTbf6hTXe/J/2a3/cX9//7P2HBY8w3BfN93/et/p/9Z78tB4hn3/INIVZ+n/X+V+Xbgmm2CRbUmyIiIvdCklg2m0C3P2M0WgLvn2YRkdfrtm8lzwO1eol3nzZoNFOIhrxQuCIiIvdfCDFgiLVq6tJaQlju/nJk+y3+a77w9wG+7/u+1RuAzff/u++mpye/bbmJ/061Vkom40WIUWGKiIjcLzHycvwnyzZc9OZks/XLK5hF5DDyPBAjtDsVnj1tUK3oCmYRETkeRRGitSa0WxW3XRd5WnZ/bDgc/+HHv+D3v2e6f+93/dtPn3Z+s0ntz5qOVoRQFGCd1dpTRETuMe8tMcJ4sqTbW7DZbPaBi7W6glnkAPZ9KwXOWp48rfPkcRXvnEaCRETkaN5zMYbCWuNaJ3XCbvdiNFr8UXP+d745njzukOc2DyH3elQiInJMUm/Z5gXXwyXXg4wiD3ivK5hFDiWESFEEktTz7rMGnXYVo74VERE5incc+xsnE1e4GN3FxRDzP/6VbwohxNjuNGyz1Sbxnrwo9LREROQ4Xn6Av7luebnK6ffmjCYrjFHfisghFSFS5IF6o8y7zxo0aiVCiOyKgG6SFBGR+yhJHUUeuLwccnU+CcSI+dG/9utjjJEQCrxPaLVb1BsNMIagcEVERI5FAJtYrDFk2ZqLqzmL1QZvLVY7PJGDuT2h0u5UeedJnUrFs93p1IqIiNwf3nuMiQyGcy6fX7NYbPGJwzq7D1VerjdDIIaCtFym0+lQqVbZBy568YmIyDG9GC0hBsbjFd1exmab453CFZFDub2C2TvH0yc1Hj+u453RSJCIiNzdd1cAl1i8c2TzjLP3BkymK4yxX3La+UtClVuh2Le11+pVOp0WSVKi0KkVERE5Mt5b8ryg118yGGcE9a2IHIwxUBSBooiUywnPTut02lVAfSsiInJ33PampKlntdlydT6idzUF4s2JlZ/2fvuwUAWACHmR46yl0WzR7LSwxujUioiIHBV727ey3HHVmzGdbjAGEq9bgkQOpSgCIUSazQrPTuvUayWKIlKEgDJNERF5m3zqiEWk3xtzcTZisylIU4e1hvghi8MvH6rcCDEQ8kBSSmm1WtQb9f2fK1wREZEjEYHEWrCG+XzF5VW271vRSJDI4X7v4j5cAcPjRxWePq1TSjw7nVoREZG3wHuLtZbBcMbFiyHZfI33Du/th4Yptz42VLm171sJVCoVWo/alEsV9a2IiMhRvlBDgMFowfX1vm8l8RajmSCRg4gxstsFktRx+qTB48c1rK5gFhGRNyCEgPce5x3LbMn52YjR9Rzj7Ce+JfIThyq3iqIgEqnXG3RabZJySp7n+tsQEZGjknjLdlfQ7S8YDTMiEe8cmk0Qef32fSuRoghUKiXePa3TbJUhQK4v8ERE5DX7YG/KdrPl4nxEvzslxA/vTfnId9inDVUAiFAUOc57Gq0mzWYTo74VERE5Mvu+FcdiseWqN2c6W+NuOlhE5DDyIhCJtBoVnp02qFUTiiKS5xGrXz0REXkNvPdAoN+bcHE2Yr3ekab+y/amfJTPFqrcCCEQioK0VKLZaVGvqW9FRESO8cW7n6WdTNf0+jNWqx1eI0EiBxMj5HmBMZYnj6v7vpXUs93qNkoREXm1NZ21lsl4ztmLIbPJCp98fG/KR3mlUOVWCIEQAtVKhdZJh3K5rL4VERE5yhdxUUQGwwW9QUaxKxSuiBxQjJFdHiilnqdP6jx5VAP1rYiIyKcQwn4N5xPLMltz/mLEYDTHRvCJe+X//68lVLlVFAUYaDQatNptkiRR34qIiBzPSxnwN+M/m01Ot5cxGq+A+InLzETkUy5WgSIE8iJSqyQ8e9ai1SxDiOpbERGRL79u+0Bvym6X070c070YsysCSeJe25dirzVUgf03CkVR4J2n2W7SbDchqm9FRESOy23fSpZtuOhOWS62YAzJKxwfFZGPlueBaKDdqvDsSZ1qtURRFOpbERGRn8F7jyFyfT3h/GzEarn9zL0pH+W1hyq3QgjEoiApl+l02lRqVYjqWxERkWN7Ye9DlPFkSbc/Z7PONRIkckC3fSvOWx49rnP6qIr3TiNBIiICAazfX4c8nSw4fzFgOl1hrSVJDvPF18FClZf/nUKAEKjU67Q6HUppor4VERE5Ot5b8iIy6Gf0RwuKvMB7h7IVkcOIMbLNA5WS59nTFp1OGaO+FRGRB+m2N8UllvVyw+X5kOvejBgNSeoO+u998FDlVlEUgKHRbNDutLHeE9S3IiIiR/UyNzhnWK9yuv05o/EKY1DfisihFrI3IUpRQL1R4t1ndRr1MkVRoO/vREQexvrrtjclz3O6VyOuzifkxb7vzlgDB0483lioAvtvFEJR4JKEVqtFo9m4eRB664mIyPGwFqw1TGdb+r0588UG5w3eqW9F5FBuT6icdKo8O61TKnmKIpAHUKwpInJ8YoQksWAMw+GMy+cDssWWxHusP3yYcuuNhiq3QgjEEEnLJTqdNuVqFTQSJCIiR+a2b2U0XtDrzVlvCpJEfSsih1tgR/I84Jzl9Gmdx4/qOGc0EiQickTevyLZMZ9lvHgxZDpcYt3helM+ylsJVV4+jCIAkWq9RrvTIU1TihCICldEROSIpN6yyQv6gyWD64wQgvpWRA7oNlyplBNOT5u0W+pbERG5716GKd6y3my5PB/S784IIZIkHmt5KyeC32qocvvSCyFgjKHVbtFoNvF+Pw8lIiJyPIsAg3OO5XLDVW/OdLpW34rIgRVFoIjQqpd49qxJvZaqb0VE5N4tpAC7vyI5xkCvN+bybMxmszvIFcmf1lsPVW7FGCnygrSU0my1qDfqNwtRvfVEROR4eGvBwmy+5vIqY7na4J3BqW9F5GBe9q2cVHnntE6aeIqgvhURkbvutjfFWBiPMs5fjMimK1zi8d7cibXTnQlVboWb8Z9SpUK706FSKVPEiL5SEBGRY+K9JQQYDhd0rzN221x9KyIHXZhHdrtAWnI8eVzn8Ukd72CnkSARkTvndtQnSQzZfMP52TWjwQJjLEl6t76IunOhysuHWBREoN6o0+50SJKEosj1LZ6IiByVNLFstgW9/pzBcAmAc1Z9KyKHWPgCRYjsikCtkvDuaZNmqwJE9a2IiNyl9VHq2Wy3XF2O6F/NyPPwVntTPvLdcldDFfhA34q1tNstGo0mzjv1rYiIyNEI7EeCnDMslluuujNmsw3W7sMVETnAApj9CZUYodUq8+y0Qa2aUBRBh6NFRN7Wguhlb0rBdX/KxdmI9Xp/c6Jz5s4esLjTocqtGCMhDyTlhHa7Q7Vehai+FREROS63pbXjyZqr7ozNZodT34rIAdeYsMsLnLc8elTn9HGVxDudWhEReYNC3J/cNcYynWScPx8wm69w7u70pnyUexGqvHzYIRBCoFyp0DnpUC6XKWKxT7VERESOhPeWoohcDzMGgwXbXUHi1bcicpDFMBBCJC8Caep5dlrnpFPTFcwiIgff34P3kCQJi8WK8xcDBtcZxhjS1N2bL5TuVahyqygKABqNBq1OG594irzQT6WIiByVJLGsN4Fef8ZwtMSgK5hFDrvA33er1Gpl3j2t02iWIe4DFxERed3rHE+e77i8HNG7mJIXd7c35aPcy1AFbkaCioBPLI1Wm0ajgXWOQn0rIiJyJGIE7yzWGWbzNb1exmy+wXlwVuGKyKHkN30r7XaFZ6cNqhVPsQs6HC0i8hp478FErvsTrl6MWKy2JIm7t+PO9zZUeX/Bue9bScsp7U6Haq36suBWRETkeBYg+4XGeLyk25+z2eQ4Z7AKV0QOtMaE/KZv5cmjOk+e1PHOaCRIROQzCAHS1GKtYTJZcP5ixGyyxHl774v5732o8v5f0r5vpVav0ep0KJVSiqC+FREROS7eW/I8cj3IuB5mFHmB915XMIsccI1ZFJFSyXN62uCkXVXfiojIJ/4MBecgST2r5YbLixG9qxnGgPfuKNYvRxOq3MrzHGMtjUaDdruFTRKCRoJEROSIWLsfC1qscrq9OZPJ6mZxolMrIodSFPtwpdHYX8HcbJQIxb5vRaGmiMiH84knhpyrywlXl2N2m4IkdVhrjuZmw6MLVeCDfSueZqtFo9kAA0ElYyIicizvOsA5izWGebbh8nLKYrXdd7BY7fBEDiXPAxF4dFLl9HGdcsWz22mNKSLyQf7m1sLhcMbF8wGL5RbvHM7bowlTbh1lqPJywRkioSgoVcq0Ox0q1Yr6VkRE5CgXLiHAeLKg28vYbvN94KJwReQwa8wY2eUB7xxPn9R48qSOs+pbEZGHbX9FssX7fcH+xYsBk/ECY+xRn6Y96lDl/b/cAiJUajU6Jy3StEyukSARETkyaWrZbAv6vQWDyYKQh6OZVxa5c4toA0URKYpAuex5dtqi0y4D6lsRkYclhP1ocpp61pstl+dDet0ZBPDJ8a9DHkSocivPc5y1NFotmq0W1hmNBImIyPEsagBvwTnHYrml25szna4xBhJviXpEIgdRFIEQoNks885pg1otpSgieR7QBV0icuy898QY6PXGXJ2PWK8L0iPrTfkoDypUgfdvCUqTlGa7Rb1Rf/nnIiIix7PA2e/kpvM13asZi9UO7yzOGoUrIgcQI+RFgcXs+1ZOG6SpU9+KiBz1WsNYy3g04+LFgPl8g7MOn9gHEabcenChyq3bcKVaqdDqdChXyupbERGRo5N4SxFgMMzoDbJ9636yL48Tkdfvtm8lST2nj+o8flzDWo0Eicix7KP3YYpLHMtsxfmLa0aDBcbaB3sL4YMNVW4Vxb5vpd6o0zxpU0pS9a2IiMjxLH4ADzjv2ey29HoZo8mKGPYlmyhbEXn9C2zz/hXMlUqJd0/rNNtlKCDXF3gich/XEx/oTdlst/QuxnQvJxQx4r1/0P1tDz5UAYhEirzAOk+73aTRbGKM0akVERE5KvambyVbbOn2ZkxnG6y96VvRTJDIQeRFIAZotco8O61Tq972rUT1rYjIveG9Bwque3POzwesVzvS1D+Y3pSPolDlA0IIxKIgKZXodDpUatWXfy4iInI8CyOLiTCaLun2M5arHanXSJDIocQIeV5grOXJkzpPH1UpJZ5tXujhiMidXzNYa5mM55y9GDGfLHHe4RNH1DcygEKVD3Xbt1Kp1Wi3W5TL6lsREZHjXCgVReR6sKB/nVEUxT5wUbgichAx7m8ESlLPO6cNTjpVjFHfiojctf3wTW+Ks6xWa87PRoyu5/u1Q+L0gH4ahSofoSgKLFBrNGh12iRJor4VERE5nkUTt1cwWzabnG4/YzhaYuDBls2JHHzxbfYjQUUeqdVS3n2nSaOeEoJGz0XkLa8LPtCbstvldC/HXF2MKULAe6cvXb7c57pClY8WY6QoAt5Zmu02zVbz5gdOLz0RETke1oK1jmyxodudM1tscGYfruh0r8hh5HkgGug0K7z7Tp1SKaEoAnmO+lZE5I3z3oOJDPoTzs9GrJdbEvWmfCyFKp/Qvm8lkpQTOicnVKsVYlS4IiIix7ag2oco48mSy96c3SbXSJDIAd32rThnefykztNHdbw3GgkSkTe00QXrLd4bppMlZy8GzCYrrLMkib5Y+SQUqnzan7kQIEKlVqbVeUSplBJvOlhERESOYG2FZR+u5HnkepjRH2SE/Pbor56RyCHEGNnmgUrJ8+y0waNOjUhUuCIiB9rX7t/1PrGsVhvOnw8ZXs+Jcd+bYi0KVD4hhSqf6a0HRSiwxtBotWi2mnjv1bciIiJHttgyOGdYrnZ0+xmT8Qpj1LcicrCF+U1pbRGhWU9457RFvV6iKAr0/Z2IvK73+21vSp7n9K4mXF2M2eQFqXca9fksn90KVT67fd9KQZIkNFst6s0GBo0EiYjIcbHWYm1kOtvS7c5ZrDZ4Z3DWokWEyGHsT6gYTk4qPHtSp1T2+76VsD9NJiLy6fevkCT7kd7BaM7le9dkiy3ee7xXmPJZKVR5DUIIxBAplUu0Ox0qlTIRhSsiInJcvLcQoT9ccH2dsd2qb0XksBug/fiPSxynj2s8flTHOfWtiMin3a/ejvoYZpMll+cjxsMFxlsSFdK/MoUqr/OHtSiIQK1Wo33SIU1TgvpWRETkyCSpZbst6PeXXA8yIOKcVd+KyIHEEMmLQKWccHrapN0uY0Dhioh89P407E+bpqllvdlydT6k350RQsQnHmvQidPXQKHK637pxUgIAWMMjXaLVlN9KyIicnyLtNu+lcVyS7eXMZmucNbgnAYTRA6luOlbaTVLPHvaoF4rUQT1rYjIT39RAxZS7ylioNcbc3k+ZrPOSVP1prxuClUOJMZIkRckpZRWp0W9Vr9ZiOqtJyIix+N2JGgyW9PtZSxv+1acjhOLHMrtCZVHj+o8e1onTSxFHtAqU0Re9qZYy2Q05/zFkPl0hUscXqM+B6FQ5cD2fSuBUrlC++Smb+XmNIuIiMix8N4SQmQwXNK7nrPbFi/L8ETkEBunfd+KTxynpw0ed2pYq5EgkYe779y/i5PEkWUrzp5f73tTjCFJncKUA1Ko8qZ+yG/6VuqNOu12hyRNNBIkIiJHJ0ksm3VBf7BgMF5ACHjv9GBEDraR2vet1Colnr3ToNVIAcM2D7olSOQBSVPPZrfj6mxEvzelyMO+N8WiQOXAFKq8QbcnVJy1NNstGs0mzjmFKyIicjzvOsBZu+9bWWy47GbMszXWoL4VkUMt6IFdHogRWq0y75w2qFVT8kJ9KyLHznsPsWBwPeXsbMR6tSNJPM6pN+WNfQYrVHkLC86bcCVNElonHWrVqq5gFhGRI1zo7We3J9M13d6M9XqHU9+KyAHXmLDLCxJvOenUePq0RuodO40EiRzX73rY38RnrWUyyTh7PmA+W+GcelPeBoUqb9HtdcuVWo12u0O5nBKLiGrGRETkmHhvKYrI9SBjMFyw2xV4r74VkYMs7oHiZiSoVPI8e1yn86iGNepbEbn/+0dwHnySsFqsuDwb0e/PsMbgU6f7kd/W565ClbevyHMwhnqjSbvTIvEJeaGRIBEROS5pYllucvr9jNFoCdzcHiQiB9qA7ctsa7US777ToFEvw03BLco0Re6dJPXkux3dqwlXl2PybSDRFclvnUKVOyLGSCgC3nmanRb1Rh3r3D5wEREROYYNXoTEWYwzZNmay25GNl/j3L6DRUQOI88D0cBJs8rT0zrVime306kVkfvCew8UDAczLl6MWC63ePWm3BkKVe6Yl30raUr7pEO1WtUVzCIicoQLxP3M93iypNubs9nk+3DFGp1eFjnQGjPPA85bnjyu8/RxHeeMRoJE7urvbACXWrwzzKcLXjwfMh2vsM7qlOcdo1DljrrtW6lVa7QedSiVUoq80IMREZGj4r0lzwuuh0uuBxlFXuC9R3UrIgdY+LPvWymKQFLyvHvaoNOuYtS3InKHNoKA21+RvFpuuLwYcd2dEQHvnd6Pd/GzVaHK3ZbnOcYaGjd9K9558kLhioiIHA9rwTvLYrmjf50xGq8wRn0rIodUFIFYQL1Z4tlpg3q9RCj2gYs2bSJvj08cMUS6lyOuLsdsNgWpelPuNIUq90CMN98oJJ5mu0Wj0QADodA3CiIichxChNRZsIb5bM1lf85iscE7i7Xa4YkcSp4HYoRHjyo8e9qgVFLfisjbsD+FYhheT7k4G7BYbnVF8j2hUOU+LThDJIaCUrlMu9OhUq2ob0VERI5wYWkJAYajBf3rOZttQaIrmEUOJkbI8wKfOJ4+rvHkcR1r1bcicvj93f6d5xPHbJZx8WLIZLzEGPWm3CcKVe7jL9/N+E+1XqPd6ZCmKbluCRIRkSOTeMt2F+j2M0ajBSFGEi0yRQ6zKTBQ3Iz/VMoJp6dNOu0yoL4Vkde+nwv70dc09aw3W67OR3S7UwgRn6hX7N59fipUuaci5EWOt55Gu0Gj1cIao1MrIiJyVKwF5xyL5Zar7ozZbI0xRt/giRxQUQRCgOZt30qtRFHsbw+y+tUTeWXeeyKBXnfM5fmIzVq9KfeZQpV7LoRAKAqSUolWp0W9Vn/55yIiIsezAN3v5CaTNd3ejNV6h1PfisjBxLgPV7CGx50ap09rpCXHbqs1psirvMuMsUzGM85ejMimK5x3+ES9KfeZQpUjEUIghkClUqF10qFcLqtvRUREjnJBGkLkerCgP8jId8XNIlXhishr3ygAIUZ2u0CSek6f1nj8qI7VFcwin2Kftn93OedYrVacPR8yGswxVr0pR/NZqVDluBQ3fSv1RoN2p02SJOpbERGRo7IfCbJstzndfsZwuAKiFqcih9owmP2plbyIVCsl3jlt0GqlEAy5vsAT+VAf7E3ZbLf0rsZcXkyIAX0ZcGyfkQpVjs/tCRVnLY12i2aziVHfioiIHJnbvpUs29Dtz5nONjgDTuGKyMHc9q20WmXeedagWklu+lai+lZEPsB7D0SuexMuLoasljvS1Ks35QgpVDli+76VSFpK6Jx0qFSrL/9cRETkeBaulsi+b6V307eibwFFDuf2CmZrLY+f1Dl9XCX1nm1e6OHIg2dvxnom44zzsyGz8QrrLYl6U46WQpUHIIT9NwqVaoV2p0W5UiGGoHBFRESOiveWoogMhgt6/YyiKPDe6WpKkQOJcX8jUCn1nJ42OOlUMepbkQe539q/g3xiWa02XDy/pn+9wEbwqdMDOnIKVR6QoijAGBqtBq1mC594Cn2jICIix7KoBfxN38pmk9PtzxmOVhhQ34rIoTYTBvIiUOSRRiPl2WmLRr1ECLowQR7Ae+cDvSnbXU7/asTV5YTdNpCkDmMNaLd9/J+DClUelhjj/pu7xNFqdag3G/tmd730RETkiFgL1t70rfSmzOZbnDP7USGtfEQOIs8DEUOnVeadd+qUS8m+4DZHfStyhBsr8IkHExlezzh/MWC53JIkHufUm/KQKFR5oEIIxCKSllPanQ7VWoUYFa6IiMhx8d5iIgzGS676c3abXH0rIofcZ96MBCXO8fjJ/gpm741GguSINlJgvcV7w3Sy5PxswGy8wjj1pjxUClUe+mdCCBCgUq/SOulQShOijmuKiMiRSb1jmwd6gxmD6yUhBPWtiBxQjJFtHqiWEk5Pm3Q6ZQzqW5H7vG/6QG/KesPVixHXvSlFNCSJw1g06vNAKVQRIFIUAWsMjWaDZruN91YvPRERObLFsME5w3qVc9mdM5muMEZ9KyIH22gY2OWBEKFZL/HOaYN6rUQRCvT9ndyn98dtb0q+y+n1JlxejMg3AZ86XZEsClXkfbd9K0mS0Gq3qDcaNx8keuuJiMjxsNZibWQ629LtzlmsNnhncE7HtkUOZf9lneHkpMKz0zqlNKUocoUrcsf3R+xPoZjIeJRx9t6QbLEm8R7rVUIrewpV5GcIIRBDpFQu0e50qFQqRDQSJCIix8V7CzFwPVzRv56z2RQkifpWRA63Qd33rTjnOH1a5/GjGs6pb0Xu4n7odtTHMJuvuXwxYDhY4NSbIh9CoYp8+Q+ToiACtXqNdqdDmqYURSBGvfhEROR4pKllsynoXS8ZDDOi+lZEDuo2XCmXE56dNjlpl4mob0XuwP4ngLWGNHVsN1suzkf0+1NCHvGJx1oUqMjPoFBFPvalF0LAGEer3aDZauKcJ89zPRwRETmaRfRt38pisaPbnzOdr7GAc+pbETmU/LZvpVnmndP6vm+lUN+KvI0XAWDBe0+MBb3elMvzEZv1jjTxWF2RLB9BoYp8IjFGijwnLZVodlrUa/WbhajeeiIicjz2pbWGyXRFt5exWm1w6lsROag8Dxjg0aMqp0+blBLLVqdW5I3tc9iPflrLeDTn4sWQ2XSFTzzeK0yRj6dQRT6Vfd9KoFSr0G61930rUX0rIiJyXLy3hBC5HmT0BwvyXYH36lsROdzGdj8S5FPH6ZM6j0/qWKuRIDnkvga8hyRJyOYrzs+HjK7nGGNIUqcwRT4xhSry2T6E8oJooN5o0O60SZKEPC9QBbaIiByTJLFstjndXsZotAR0BbPIYTe6kbwI1Golnj1t0GqWIUZ2xf40i8hr+3xPPdvdjt75iG53Sp4HEvWmyGegUEU+s9sTKs5amu02jWYD6xyF+lZERORY3nUBnLc4Z8iyDVe9OfNsjTVGfSsih9qgALs8ECO0OxVOn9SpVROKIqhvRV6Z9x6IXPfHnJ+N2ay2+MTj1Jsin/UzS6GKvPKC8yZcSZOU9kmHaq1CjOpbERGRY1uIW0yE4XRJt5ux2ezUtyJy0DUm7PIC5y2PO3VOn1bx3mkkSD61EPY3vRlrmU0yzp4Pmc1WOGdx3uqwvbwShSryGj+sAiEEKrUKnXaHUrlMURR6MCIiclS8txRF5HqwYDDM2O4KEvWtiBxmswIUIVIUgbTkefa0QadTxhqrcEU+wf4EnIck8awWG87Ohgz6M4wxeO/Qx7a8ls8phSryuhV5AcZSb9Zpt1t47xWuiIjI0UkSy3qTc9XLmIzVtyJy+A3yvsy21kh597RFo16CENkWAavNsXzo57SnyHOuriZ0L0fstoEkdVirUR95fRSqyEHEGClCwHtPq9Wk0WxijFG4IiIiR/SuA+8s1kbm2ZbLXkY2X+O9xWqHJ3IwtydUWq0K777TolKybHc6tSLv895jTGRwPeHixYjlaov36k2Rw1CoIgdecEZCEUjLKe1Oh2q1qiuYRUTkCBfw+16V0XhJrz9nvdndBC46uSJymDUm5HlBkjhOHtU4fVzHOaORoAcsBEjSfbH4dLLk/MWQ6XiJdVanCOWgFKrIG/qQ27e11xpVWu0OpVKyHxMSERE5Iqm3bPOC3vWC4WhBkQfN7YsceI1ZFJFSKeHZaZ1HnSoRFK48qJ8BcG5/RfJqueXqYki/OyMSb06s6BnJYSlUkTcqz3OctTQaDRqdFolPyHUFs4iIHMviHvB2f3Jlsczp9uZMJiuMUd+KyCEVRSBEaDZKnD5t0KiXKIpIrr6Vo+dTTyxyri6ndC9HbNYFaUm9KfLmKFSRNy7GSFEUJGlCq9Wh3qiBgVDoGwURETkOIUCaWDCG6WxNtz9nsdjcjARphydymDXmPlyJGJ48qvD0SZ1yKWW7ywmAYs3j4r3FGBgOMy6eX5MttiSJ0zX38sYpVJG3uOAMxBAolcu0Ox0q1Yr6VkRE5CgX/iEEhqMV/euMzTbXFcwiBxRjZLcrSFLP6eMGjx9XsVZ9K8exf9h/prrEsZgtOXsxYDJcYNSbIm+RQhV5+x+ONzcCVet12p02SZpSaCRIRESOTOIt211Bt79gNMoIMZJ4pwcjcohNjtmfWsmLSLWS8Oxpk3arDEZ9K/dyvxDAWkhTz3az5eJ8RL87JUT1psgd+LxRqCJ3QozkRYGznka7SavZwFirUysiInJUrAXnHIvFlqvenNlsjTH7wEULMpHDKIr9hQnNZpl3TuvUajd9K3lAF3TdD957INDvTrg4H7Fe70hTr94UuRMUqsidEkIgFgFfSmh1OjRqNeLNn4uIiBzPBmG/k5tM1nT7MxarHYmzOGsUrogcQIyQFwXWWh51apw+rZGWHLut1ph3/bPSWhiPMs5eDMimG5x3+ES9KXJ3KFSRO+ll30qlQuekQ7lcVt+KiIgc5YahKGAwzLgeZmy3BYm3WKNwReQQ9n0rgaTkOX1S5/FJDWs1EnS39gHv96YssxXnL4aMBnOMVW+K3E0KVeRuf6gWBQFoNBr7vpVEVzCLiMhx2Y8EWTbbnG4vYzRaAVGbB5FDbYBu+laKIlKpJLzzrEWnVSYv9AXeW133f6A3Zbfd0b0YcXE5IYaIT9SbInf4M0Whitx5MZIXAe8czXaTRrOJcYagbxREROSI3PatZNlm37eSrbHGkDj1rYgcSl4EYoB2q8yzZw2qleSmbyWqb+UN2/emRHr9CVfnI1bLrXpT5F5QqCL3xr5vpSAplWmfdKhWKy//XERE5Hg2FhYTYThZ0uvPWa5zUl3BLHIwMUKeF1jveHpS48mTKql3bPNAAJStHJa1Fuct00nG5Yshk/ES6x2JelPknlCoIvdOCPsG91q1QutRm1JaJsagcEVERI6K9468yBkOl/T6C4qiwHunI/AiBxLj/kagUslx+rTBSaeG0RXMB1rP7wNkn1hWqw0XZ0P63RnGGJJEV83L/aJQRe6toiiwGBrNBs12C5skBPWtiIjIUW069n0r601OrzdnOF5hQH0rIofaHN2EKEUBjUaJZ6d1GvUyIRTo+7vX87l225uS73K6VyOuLifstoEkdTqRJ/fzc0OhitxnMcb9N3eJo9VqU282MWgkSEREjou1YJ1jPl/TvcqYL9Y4Z/Bex+NFDiXPAxHodCq8e9qgVPLqW3mldTskyX6UcXA94/xsxHKxJkk8zqk3Re4vhSpyFPZXMEfSckq706FSrYKuYBYRkSNzG6KMxgt6/YzNJt93sOjbXZGDBQF5XpA4x+MndR4/ruGd0UjQp1qn3476GGbTNWfP+8ymK4yx6k2Ro6BQRY7rQ7sIQKRSq9HqtCiXyhQhEBWuiIjIEUm9ZZsXXA+W9K8zQgjqWxE5oBgj2zxQLXtOnzZ41KkRiQpXPmpdHsB6S+ot682Wy7Mh1/0ZRQFJ4jAWdLWZHAOFKnKMrz2KPGCsodVq0Wg18d6Tq29FRESOaLPivcE5w3K1o9ufMxmvMUZ9KyIH2zgZ2OWBGCONepl3ThvU6yWKQn0rP/3zyVrwqSfmOb3+hMuzCZvNTlcky3F+NihUkWN127eSJAnNdotGo3HzQa+3noiIHA9rLdZGprMt3e6cxWqDdwbndKxe5FBuT6icnFR5dlqnlHqKIjz4cOWDvSnD0ZzLF0Oy+RrnPd4rTJHjpFBFjt5t30qpXKJ90qFSqRDVtyIiIkfGewsxcj1c0L/O2GyKl5sbETlEgLAf/0kSx5PHdZ48qmPdw7yC+bY3xSWG5WzJ2dmI4XCBs+pNkeOnUEUezod9URCAer1Gu9MhTVOKIhCjwhURETkeaWrZbAK9fsZwvCCGgHPqWxE5XKAQKYpApbK/grndKgOQ7wIc++9dAGsNPnVst1suzkdcX00pQsQnHrvPekWOmkIVeVhipAg3fSvtFo2G+lZEROTYNnjgPTjnyBZbur05s2yNBZxT34rIoeR5IEZoNsu886xBrZpSFAV5gKP7zQvAbW9KUXDdn3JxNmK93umKZHlwFKrIgxRjpMgL0lJKs9OiXqvfLER1akVERI7HbWntZLrmqjtjvd7h1LciclC7vMAaw6OTKqdPm5QSS54HjmWV+bI3xVom4zlnz4dk0xUuUW+KPEwKVeRBCyEQQqBaqdDqdChXyupbERGRo+O9JYTI9WDB9WDObhfwXn0rIody27eSpp6nT+o8Oqlgrb3XfSu3p+CSJCHLVpyfDRldzzHGkKROYYo8WApVRICiKACoN+q0Ox2SJNFIkIiIHJ0ksaw2Of1+xnC41BXMIgcWQiQvArVaiWdPG7SaZSCy2wbMPfvVSxPPLt9xcT6ifzUlLwKJelNEFKqI3Lo9oeK8pdFq02w0sM5RKFwREZGjedeBdxbrDPNsQ7c7Z75YY41R34rIoTZcwO6mb6XdqvDstE61llDk9+MKZu89mMh1b8L52ZD1Sr0pIl/yO65QReSnLzj3xzXL5ZR2p0O1WiWikSARETku3u97VcaTJd3enM0mxzmrjZLIwdaYsNsV+MTyqFPn9Gkd782dHAkKEdLEYq1lOsk4ezFkNlnhvMV5C/qMEHlJoYrIl3uZ3IQolfK+b6VUTl+OCYmIiBwL7y15EekPMkbXC7ZFQaK+FZHDbL4MFMX+CuY09Tw7rXPSqWEMdyJcCQGcgyT1rBYbzi+GXHdnN6OCXlezi3zY77VCFZGPluc5xjkatTqtTgvnPUHhioiIHNOCkJu+lVXg6nrGZLwE1LcickghBPI8Um+Ueee0TqNeftnBYt9SeJEknlDkXF2NubqYsNsWJKl6U0Q+8h2qUEXk48UYCUWBTxKarSaNZgOMIRQaCRIRkSPZ4EVInMVaw3yx5rI7J5tv9sf9rb6eFjmUPA8Q4eSkwrMnDcoVz3b3ZteY+1MokcH1jPOzAavlFu8czuv6dZGPo1BF5FOIMRLyQFpJ6XROqFQruoJZRESOzm3fymi8oNfP2Gx2OOewCldEDrTG3J+Odm5/BfOTxzWcO2zfyv6KZIv3htlsydnzIdPxEuusTqmJfAoKVUQ+00soEGKgVqvTOmlRSkrqWxERkaPjvSXPA71+xnC8oMgD3jv1KogcYmP2gb6VUinhnWdNOq0yvOa+lRDAWkhTz3qz5fJsSK87A6J6U0Q+y++uQhWRzy7Pc5y1NFotmq0m1lmNBImIyFGxBpx3LJdbur05k+kaY/YdLBoLEDmMogiECM16iWfPGtRrpX3gEgKvmnn41BOLQLc35up8xGZdkKb7k2j6nRb59BSqiLyiGANFEUiShFa7Q71RA9BIkIiIHM+7Dki8BSLT+Zbu1ZTFaoe/6WARkcP83hV5AAyPTiqcPqlTKnt2n7FvxXuLMZbxaMbZ2YBsuiFJ1Jsi8qoUqoi8JiEEYghUKhWanTaVivpWRETk+HhvCSEyGC/p9TJ2u1xXMIscUIyRXR5IErfvW3lUx9pPNhL0wd6ULFtz/mLAZLgAq94UkddFoYrIa3bbrVKv12mdtEmTlDzP9WBERORoWPYbtc2uoNtfMBwtIEZt0kQOtWkz+5GgoohUKgnPTpu0W2Xgw8OVD/ambDc7Ls6HdLtTYogkiXpTRF7r76dCFZHXL8ZIURRY72k1mzSbDYy1OrUiIiJHxVpwzrFYbLjqzZnNNhiDwhWRA8qLQAzQbJZ557RBrZZQFJCHwO1v3u3vYL834eJswnq9IU29elNEDkChisgBhRAIRUFaKtHudKjVakQ0EiQiIsfldgM3mazp9mas1juc+lZEDifCriiwxvL4UY2nT2qUUkeI+1Mtk8mC8xdD5pMV1jsVS4sckEIVkTcghEAIgUqlRvukRblcVt+KiIgcHe8tRYDBIKM/yMh3xU05psIVkUOIMbLbBUoVx7OnTerVhBfPB4yu5xhj8InTQxI5MIUqIm/Qvm/F0mjUaHXaJEmivhURETkq+5Egz3a7pdvLGI5WgPpWRA7Fe8tmG5hNFiQuYmLAe/WmiLyx30E9ApE3xzlHjJH5bM5ysaDZadNsNMAZQq5TKyIicv+FACHkOGf53Fd1OOlUuehOyRZbnDF4Xd8q8lpYu7/mfD5bM5+t2O1yOq0ypcRT6HdM5I1RqCLyhhljcN4RQmA8HJHN5rRPTqhWKzeLUYUrIiJy/+3DlYJaLeXrv/YJ48mSbn/OZp1rJEjkFVi7X0+u1xumkzXbzRZjDNZajIGgQEXkjVKoIvLWXoj7Y9B5njPo9qlUK7QedSiVUmJQ34qIiByH2+teTzpVmo0Sg+GSXn9BCAXeO40oiHyazZu3bHcF88mC1XJDZH8SGiDoCJjI2/m91CMQebustWBhuVqyPl9SazZpt9v4xKtvRUREjsZ2G/De8M6zFq1WhW5/zmS80hXMIp9kvegtsQhMJ0vm8xWhiFhr+ZILtpSpiLwVClVE7oiXfSvTKavlkkarue9bMUanVkRE5P5vCu37fSul1PL5z7WZt6t0ezPmix3Oob4VkZ/xe7PvTVnM18xna3bb/XXlzimIFLkrFKqI3CH7vhVPURQMhyOW2YJ2p0OlUiaivhURETkO+3Al0miWqDeeMBovuOpnbDf7vhVrjL50lwfPOct6kzOfLVgvcoyNeK8rkkXuGoUqIneQtRYLbDcb+t0ulVqNTqdFUioTQ1C4IiIiR+G2b+XJSY1Ws8z1YEn/OiNX34o85HWgs+R5wXQ8ZznbAQHnLaBfCJG7SKGKyJ1+qTqIkeViwXq5pNFq0Ww18V59KyIicjzWN30r777ToN0qc9WbM52uMRa8xhzkwaz7LDEEstmS+WxDURQ3N/rod0DkLlOoInLXGfOyb2UyHrOYL2g9alNv1CBoJEhERI5gM/mybyVQKiX8rM+fMJ6uuerOWC53eG9wTn0rcqw//xZDZL3cMJmu2G13WKveFJH7QqGKyD1hjMF7TxFyhr0+2ax807dSIUZdwSwiIschhMA2QKtZptEoMxwu6F9nbDY5SWIxmgmSI+KcZbvJmcyWbBZbjH3/imQRuR8UqojcM/srmC3b9YbeVZd6o0673SZJU4qiIOprPBEROQK3fSunj2u0W2W6/QXDYQYEnFPfitz/9VxeFMxGC5aLDSHc9qaIyH2jUEXkvr6Mb0aCsnnGarGi2W7SaKhvRUREjss6D3jn+NxXtnh0UuGqO2c2W2MtGo+Q+7d+s5ZIIMtWzGdr8l2hK5JF7jmFKiL3mPlA38p4MCbLFrTbbaq1GqCRIBEROYJNKPuRoBCgWkn4uq/Z9610exnr9Qbn1Lci9+Dn2FqMiazWG+aTFZvNvjfF63SKyL2nUEXkCBhjcIkj3+3o93qUKxU6Jx3K5bL6VkRE5GjcjgR12mWajRLXw4zBYMF2W+C9+lbkjm64nGWzy5lPlyyy7c0pK/WmiBzN77gegcjxsNZirWWzXtO/vKLWqNPqdEiSRCNBIiJyNG7DlXdOG5y0K3T7GcPREkPUN/9yp9ZlIQQmo4xssSUUQT+fIkdIoYrIEbodCZrPM1arNc1Wk3qjgXWOQuGKiIgcie024L3nq7+qw0mnSrc3Z55tsEZ9K/L27HtTIovlmvl0xW6b46xTEa3IkVKoInKkbvtWQggMrkdk84x2Z9+3opEgERE5jnfd+30r9VrK133+EePJkm5vzmaT7/tWrEV1K/ImWGswxrBZ75hMlmw3OcaA9xr1ETlmClVEjn7BaUgSx263o9ftUanW6DzqULq5gllEROQY3I4EnXSqtJoV+tcZ/WHGdlfgva5glsOy3pLvcubTFcvFBtBpKZGHQqGKyEN52d/0rayXC67WSxqNJq1OG+csodCpFREROQ634cq779z0rfTmjGYrTITE69SKvP71VYyB+WTJfLqiCBHvLCjEE3kwFKqIPDDO+33fymzGarmk2W7RaDTAGIJOroiIyJHY7QJp6vnqrz7hJFtzeTVnsdzgncVa7Xjl1VhrgchqtWY6WZJvC12RLPJAKVQReYDe71spGF0PyeZzOp0OlWpVfSsiInI0ihAgQKNe4uu/LmE4WtO/nrPZ7ki8w1pD1NEV+RSs3a+jNpsds+mSzTIHC069KSIPlkIVkQfMGIvzsNvu6F91qTbqNNstSqWybgkSEZGjcTsSdPq4SrtVpn89YzBcsdsVJIn6VuSTsdaSFwXz6YIs22DZd6mIyMOmUEVE9kdYrSWbZ6wWSxqtFs1WE2utTq2IiMjRWOcB7+Arv6JDp1Oj28uYTlc3N7Rocyxffp0UY2Q+XzKfrShy9aaIyPsUqojI+x8I3hNjYDIas1hktDod6tUa3FxZKSIicq83x0AIUISCaiXha7/mhMl0Sa83Z7HaqW9FvvTnxYLBsFitmU/X7LY7jFFvioj8tD2UHoGIfJAxFp9Yirxg2OuzrFRodTqUK2X1rYiIyHG863h/JKjdqtBsVBiMFvSu52y3BYm3GM0EPdyfD7s/nbJZ58xnS1arLYZ9H52IyE+nUEVEPtTtSNBqvWZ1dUW90aDdaZEkCXmuW4JEROQ45HnAAqePa3RaFbr9jOFoATHoRMJD3BxZSxEKxtMFy/mKEMA5/RyIyEd8bugRiMhHcc7dXME83/ettJs0m02MMTq1IiIiRyEAIQ84B5/7yhaPOmWuenNmszXGGIUrD8DtFcmzbEU2W7LbRZyz6HCKiHwchSoi8rH2C0pHCIHxYMxintHutKjV6kTUtyIiIschBAihoFpN+brPP2IyWXPVm7Fe7/AaCTpK1kI0hs1qw3S6YrvZKUgTkU9FoYqIfIqFh8VayPOcfu+aSi2j3e5QLqtvRUREjsfLvpV2mUajxGCwoHedkeeFwpVjYfZjPfkmZzpbsVpuQL0pIvIZKFQRkU9tH65Y1ss13eUVjUaDVqeNSxJCnusBiYjIUcjzgLXw7FmTTqdMrz9nMFpjUN/Kvd4AecuuCEwnS7LpkhDBWV2RLCKf8TNFj0BEPquXfSvzOcvFgla7TaPZ1BXMIiJyNPYjQTneWz73lSd02hsu+3Oy2RrnDd5ZYtRzug9ue1MW2ZrpZEW+K7DOoh5aEXkVClVE5JUYsz8qG0JgNBiRZXPanRMq1crNYlThioiI3H+3fSv1esrX1x4xGi/o9TNW65w00UjQXWYtGGNZr3fMJ0vWmxxjIk6njUTkNVCoIiKvacFiwcJul3Pd7VOpVug8apOUysQQFK6IiMhRuO1beXJSo9Uscz1Y0r9eEEKB9w5lK3dss+Mt203BfDZnudwAt1ck6y9KRF7T54wegYi8TrfhynK1ZHmxpNVq02w28YknV9+KiIgcifU24L3h3XcanLQrdPszRuM1xqC+lTuyHokxMJ0umc82hKLAWqvQS0ReO4UqInIQt30rk/GYeZbRbrVoNBrqWxERkSPZtN+OBAWS1PLVn+tw0t5y2Z+xyHZ4vz8Rob6VN/33YjEmkmVr5rM1u90OZ+3N6RQRkddPoYqIHIwxBu89oSgYDYcssox2p0OlWtEVzCIicjT24Uqk0SzxsxtPGA0XXF5nbLY5ia5gfmOcs2w2O2bTJevlFmMNXlcki8iBKVQRkYPbt+3DdrOh1+1Sq9dotzok5VR9KyIicjRe9q08rtFslekPFwyuM0II6ls58DojLwqmwwXL5QoCOK8wRUTeDIUqIvLmFj03I0GLbMFysaTZbNFsN/FefSsiInI81nnAO8dXvtPipFXhqjdnOl1jDbpx5rWuK/YzWNl8yXy+osjjfvxHeYqIvEEKVUTkjbq9gvm2b2WxWtBqt6jX6oD6VkRE5Ag2+zfvsxCgUkr42q/pMJ1vubqaslzt8M6ob+VVnu9Nb8pquWE2XbHd7rDqTRGRt0Shioi8FcYYfOIpdjnD3jVZOaN90qZSUd+KiIgcjzwECNBqlGjUnjAcLuhfZ2w2BUmivpVPa9+bkpPNFqwWW7D7L2tERN4WhSoi8lbtr2C2bDdreldd6vU67U6bJE0pioKor/FEROQI3PatnD6t02qX6fczBuMlFBHndNXvJ1kvhFAwHi1YLFbEQr0pInI3KFQRkbuxWLoZCcqyjNVyRbPdpNFo4LynUN+KiIgcifUu4J3nq76yQ6ddpdvPmM3WWIvGVz5sfWAtMQYW2Zr5bMVuV+CcxWoXIyJ3hD6OROTO+GDfynAwJMsyOp0TqrWqRoJEROQ4QgLe71up1VK+7vMnTCZrrnozlusdifpW9s/ppjdlvdownbzfm+JV9Csid4xCFRG5c4wxJElCvsvpdbtUahXa7Q7lcpkiRlC4IiIiR+B2JKjdLtNolLgeZgwGC7bbAu8fbt+K9/velPlsxSLb3Jzi0aiPiNzRzyw9AhG5q6y1WGtZL9Z0l1c0Gg1a7TZJmugKZhERORq34cq7pw1O2hW6/YzhcIkx8UGdzLDWEmJgMs7I5htCEXUyRUTuPIUqInLnOb8fCZrP56wWKxrtJs1mA5wjKFwREZEjsd4GvPd87qs6nLSrXPbmZIs1zpij7lux1hKJLJZr5pMV+S7HWofzau8VkbtPoYqI3Au3fSshBsajEYsso33SoVpV34qIiBwHa97vW6nXU76+9ojxdEm3O2ezyXHO7G/NO5b/vnZ/69F6vWM6W7Jd5VijW31E5H5RqCIi98ptuLLb7bi+6lKp1mg96lBOU/Ki0AMSEZGjcDsSdNKu0mxUuL7O6A8zdrsC7929v4LZekuxy5lOl6yyLaDbj0TkflKoIiL3czFmLVjLYrlgvV7TaNRpdNo4ZwmFTq2IiMhxyPOABd59p0G7XaHbmzGZrTGRe9k3cntF8ny8ZJ4tKXLwzoImfUTknlKoIiL3+0PMe2KMTGdTFsslzXaLRqMBBoUrIiJyFAIQdoFKyfP5r+4wnW3p9uYsFhu8t1h79xOJ/dhSZLlaM58s2W0LjHV47UZE5L7vR/QIROS+248EeYqiYHQ9ZDHPaHU6VKsV9a2IiMjRyG++LGg1SzQaCcPhiv51xnab39krmK01GAub7Y7ZeMVmuQOr3hQROR4KVUTkaOxHgmC73XB91aXaqNNuN0nTkvpWRETkaNz2rTx9XKPdKtO7XjAcLgixILlDYYW1lrwoyMZrFvPV/s90RbKIHBmFKiJydKx1YCPZfM5ysaDVbtFsNjHW6tSKiIgcjV0ecM7wVV/R4qRTodudM5mtsQYSb4lv7T1siQSy+ZL5bEORF1hn7325rojIh1GoIiJHyrzsWxkPx2RZRqvVod6oAShcERGRoxAChFBQrSR87edPmEzX9HozFqsd3r3ZvhVr9yO5i+WG+XTFbrvDGIvT6RQROWIKVUTkqBlj8ImnyAuG132yrELnUYdyqay+FRERORq3I0HtVplmo8RguKR3Pb+5gvmwfSvGgHWG7aZgPl2yXG0xGJxTb4qIHD+FKiLyINxewbxZr+leXFGvN2ietCklCXme6wGJiMhRuL2C+fRpjU67Qq83YzBaAvEgVzB7bynywHS8ZDZfQQDndDJFRB4OhSoi8qA454gxMp/PWa2WNJpNmq0mxhidWhERkaNwewWzc/BVX9mhc1Kl25szm28wvJ6+ldsrkmezFdlsTb676U3R4RQReWAUqojIg2OMwXtHCIHxcMgiy2ifdKjVahoJEhGRo3Hbt1Krpnzd1zxiMl1z1ZuxXO9IP+NI0G1vynq1YTpds91sMcaoN0VEHiyFKiLyYFlr99c95jmD/jWL8oxWp0OprL4VERE5Hi/7Vtpl6o0Sg+GC/iAj/xR9KwYw3lLscqaTFatsAxb1pojIg6dQRUQevP0RZliu1ixXVzSaDVrtNon6VkRE5IjkecBaeOe0TqdZpnedMRqvgPCRfSvOWkIIzCZLsumKEKNOpoiI3FCoIiJyu2i87VuZzlkuFzRbbRrNBgb1rYiIyHHYjwQFktTy1Z/b961cdedk8zXOG7yzxJvCldvelOVyzXSyIt/lWGdxVoGKiMgthSoiIh+wnwt3hCIwHo5YzDPanQ6VauVmMapwRURE7r/bvpVGLaX+tY8Yjxd0+xmr9Y5y6rHOsl5tmE/XrDc5xkSc16iPiMhPp1BFRORD3I4E7XY7et0utXqNzskJSZoSQ1C4IiIiR+G2b+XkpEa7XWU0WXF1OWU8mbOa3/amWPatKiIi8tMpVBER+Qi3ZbbLxZLlckmr2abZbuK9V9+KiIjcfwGwgLFYW2CKnNFwfnNDkE6miIh8HIUqIiKfwG3fymQyZrHIaLZbNBp1UN+KiIjcUzFCklqMsYyHM148v2a1yokh4tWbIiLyiShUERH5hIwxeO8pioLR9ZDFfE7r5IRqpaIrmEVE5N4IAby3+MQwm625eHHNZLjEOEul7FhvIxr3ERH5ZBSqiIh8StZasLDd7Li+6lKp1+i0OqTllCIEosIVERG5g0IA6w3l1LHebHnxfMR1d0oIEZ96rIUQ9ZxERD4NhSoiIp+RdRZiZJkt2KzWNJoNmk31rYiIyN0SAlgLaeqJMXB5OeLybMRmsyNJPEliIO7HgYwOqIiIfCoKVUREXoUxL/tWRsMRi9mC5qM29VrtZiGrUysiIvL2xAhpajEWxqMZ5++NyOYrXOIplxNiBHQ6RUTkM1OoIiLyGhhjSJKEPOQMe32ySpn2yQmVcpkYC5StiIjIm3Tbm5J4Q5ZtOD8bMhrMMdZSquzDlKgwRUTklSlUERF5jfZ9K5btekPv8op6o06709kHLkWhFayIiLwRpZIjz3d88b0pvYsxIQR8su9N0atIROT1UagiInIA9mYkKJtnrBZLmu02jUYD6x1FXugBiYjIYRb33gMF/d6Ui7MBq9W+NyVNvE6niIgc4nNXj0BE5DDMB/pWxqMRiyyj3elQrVaJ6ApmERF5PWKEJLFYa5mMM87PBswma5x3lErJy39GREReP4UqIiIHdhuu7HY7et0+tVqFVrtFuVImzyOgcEVERD69EMA5KJU8i8Way7MR/f5s3/NV9hgFKSIiB6dQRUTkDbHWYi0sFguWyyWNZoNWu02SeHKNBImIyKdUKjuKPPDi+TXdyzG7bSBJHdYanUwREXlDFKqIiLzpD17viTEyn85YLVc0W03qzQbGOEKR6wGJiMjHvkcMkUF/xsWLAcvlFp84SmX1poiIvPHPZD0CEZE3zxiD854QAqPrEdkH+1ai+lZERORLxQAutXhnmM0yzt4bMhuvMM6SlhNQmCIi8lYoVBEReYuMMbjEsdvuuO72qdQqtDodSqVUtwSJiMjL3pS04lktNzw/G3HdnxGJ+NRjDKAwRUTkrVGoIiJyB1hrAVhkC9bLFY1Gg2anjXWWUOjUiojIQ1UqeYqQc/FiwNXlmM2mIFVviojInaFQRUTkLn0o3/StTKczFsslrXaLeqMBoJEgEZEH9T6wGGA0nPLi+YDVcotzjrJ6U0RE7tbntR6BiMjdsu9bcYSiYHg9JJtntE86VCoV9a2IiByxEPZhivOOZbbixfNrxsMF1lnSNAEUpoiI3DUKVURE7ihjLc7CdrOhf9WlWq/RbrVIS2Vy3RIkInI0QgBroVz2rDdbzp736XdnhBhJbntTRETkTlKoIiJyx1nnIEaybMFysR8JajSbWGt1akVE5AikqSfGQPdyyMX5iPU6J0093lqdTBERueMUqoiI3AfG4J0jxMB4OGGRLWh2OtRrVUB9KyIi93Ih7i3GwHg85/zFNfPpBu8d5XKi3hQRkfvyWa5HICJyf1hjsQnkec6g12NZqdA66VAul9W3IiJyD7zsTUn2vSnnZ0NG1xnGQqms3hQRkftGoYqIyD1krcVay2q9ZnV5Rb1Rp93pkCQJea6+FRGRu+aDvSmb7Y7zn7ym351ShIBPHEbFKSIi95JCFRGRe8w5R4yR+XzOarGi2W7SaDYxzhBynVoREbkr0tSDjfS7I87PRqyWO9KSJ/VeJ1NERO4xhSoiIvecMQbvPCEExoP3r2CuVtW3IiLytllr8d4yGWecvxgwm61w1lGupMQYFaiIiNxzClVERI5o4Y615HlOv9ujVqvRancolVP1rYiIvEEve1OcZb3Z8MV/PGQ4nBGDIUkTDBCVpoiIHAWFKiIiR+a2b2W5XLJcLmk0G7TbHXzi1bciInJAH+xNyXc552cDrs4nFHnApw6bGJ1MERE5MgpVRESO1Mu+lemc1XJFo9Wk2WiAMTq1IiLyusV9b4ohct2fcv5ixGq5Jkk8adnrimQRkSOlUEVE5IgZY3DeURQF4+GAbJ5xctKhXK1AVN+KiMiruh318YljNs24eD5gPF5hnaVUThSmiIgcOYUqIiIPgLUWsOS7Hf1un2qtSvukRZKWiSEoXBER+ZRuw5S0ZFktN3zxp3oMBzNiAUnqsVZhiojIQ6BQRUTkAbHWEokssgXL5ZJms0Wz3cR79a2IiHwSX9KbkudcnI25uhix2RSkqcN4AzqdIiLyYChUERF5YAz7kaAYI5PJmMUio9lq0Wg2bjYMOrUiIvJhYmQfnJjI9WDG5dmQbL7Ge0/5pjcFhSkiIg+KQhURkQfKGIP3nqIoGA2GLBYZ7U6HSqWiK5hFRD7g/d4Uw2y25uJswGSwwDhLWb0pIiIPmkIVEZEHzloLFrbrDb2rLrV6jXarQ1pOCUVB0E5BRB40Q7ns2G63fPEfj+h3pxQhkpQ9FoUpIiIPnUIVEREBwN5cwbzIFixXS1rNNo1WA+s9QX0rIvKQBMCC954YCy4vRlxejNisd6SpxydmfzpFT0pE5MFTqCIiIi8ZY3A34cp4OGSRZbQ7bWq1GhH1rYjI8QsR0tRiDEwnc86eD5lPV7jEa9RHRER+BoUqIiLyMxhj8ElCnuf0e33KlTKdkxPK5bL6VkTkKN32ppQSxyJbcvZiwHCwwBhDqaIwRUREPpxCFRER+bKstVhr2aw3dC+vqDfqtDsdkiShyAuiDr+LyJEolRz5LueLPzWk3x1T5IEk8VirMEVERL48hSoiIvKxbkeCsnnGYrGk3W7RaDbxzpLnOrUiIvd4Mew9EOn3JlycDVmtdiSJJy15nU4REZGPf4/oEYiIyCfxwb6V4WhMli3odNpUajXQSJCI3CMxQpLsT+JNxhnnZ0NmkxXOW0rlBBSmiIjIJ6RQRUREPhVjDIlz5Lsdve41lVpGu92hXEkp8kIPSETurBDAOUhKntVizcXZiGF/TjT7K5JNRFf6iIjIp6JQRUREPpN93wqsFwu6yyWNZotWu0lyU3ArInLXlEqOoig4fz6gezlitw0kqcNao5MpIiLymShUERGRV+K8J8bIbDphtVzQarWoNxtgDKHQyRURuQMLXu8xJjLoz7g4G7BcbfHeUSqrN0VERF7xHaNHICIir8oYg/eeEALD6yHzbE6706FareoKZhF5K26vSE68YTpfcPbekOl4iXWWNE0AhSkiIvLqFKqIiMhrY4zBJY7ddsd1t0ulVqPVaVMqldS3IiJvRAhgLZTLnvVmy/OfGtDvzwBDknqM0TMSEZHXR6GKiIi8dtZawLLIFqzXaxqNJs1WE2utTq2IyEGlZUcsCi7OB1xdTNhsclL1poiIyIEoVBERkcO9ZLwnhsBkMmaRZbTaLeqtBgQUrojIa/68sRhrGA/nnL03ZLFc45yjrN4UERE55PtHj0BERA7JWIvHUhQFw+sBy2xBq9OmXKmob0VEXkkIAe89zjuWiyVnLwaMrxcY9aaIiMgbolBFRETeCGstWMtqvWZ11aVWr9HudEjThFx9KyLyKbzfm5Ky2Ww5f96n150SYsSrN0VERN4ghSoiIvJGOecgQjbPWC7WtNoNGk31rYjIJ5eWPbEIdC+HXJyPWa93pKnHqzdFRETeMIUqIiLy5pn3+1bGwzHZzUhQvVYD1LciIl9m4eotxsBkNOf8xZD5dIXzjnI5UW+KiIi8nXeTHoGIiLwtxlq8tRR5zrDXZ1mp0DrpUC6X1bciIsB+1Md7i/OO1WLF2dk1o+sFxhrSsnpTRETk7VKoIiIib92X9K1cXtFoNGh12iRJQp7nekAiD9D7vSmezXbH+Rev6V9NKELEJ+pNERGRu0GhioiI3BnOOWKMzGczlosljXaTZruFiRoJEnlQIqSpxWDodcdcnI9YLbekqSf16k0REZG7Q6GKiIjcKcYYnPeEEBgPhiyyjHbnhFqtQlS4InLcIlhn8d4ymWScPR8yn62w1qo3RURE7iSFKiIicidZa7HWku9y+t0+tXqFVqtDqZyqb0XkyLzsTUks68WGL/7kkOH1nAik6X65qjBFRETuIoUqIiJyp+3DFVgulqyXKxqNBs12G5t4gvpWRO61D/am5LucixcDLi8mFNuATx1WVySLiMgdp1BFRETuhdu+lcl0SrZc0mo1aTQbgNGpFZH7KO5PoRgTuR5MOX9vwHK5JfGetOw16iMiIveCQhUREbk3jDF47wlFwWgwIssWdDodypUyoL4VkfvgdtTHe8N0uuD8fMh0uMQ69aaIiMj9o1BFRETunf0VzLDbbuhfdanWa7RPWiRpmRiCwhWRO+g2TElTy3qz5cV7Q657M0KMJKnHWoUpIiJy/yhUERGRe8taR7SRxWLBcrmk0WzRajfx3pOrb0XkbgiAhbTsCUXO5eWYy7MRm00gTS3OGtDpFBERuacUqoiIyL1mMC/7VqaTMatFRrPdod6o7fdzOrUi8tbECElqMcYyHs44PxuSTde4xFMuu32QojBFRETuMYUqIiJyFG77VvKiYHjdJ5uXaZ90qFQquoJZ5A27HfVJEkc2X3L+YsBgsMA5S6mi3hQRETkeClVEROSo7PtWLNvNht5Vl1q9TqvTppSmFCEQFa6IHM7NqE+57NlutvzUiz7XvRl5HkjLHovCFBEROS4KVURE5CjZm5GgRZaxXqxotBs0m+pbETmImzDFpx5i5PJqyOWLMZvNjiTxlEo3VyTrSYmIyJFRqCIiIkfLmPf7VkbDEYvFgma7RaNWJ6K+FZHXIURIU4uxlsko4/xsyHy2wjmnK5JFROToKVQREZGjZ4whSRLyXc6gd01Wyeh0OpQrZfWtiHxG+94UKCWORbbh7GzA6DrDGPP+yRSFKSIicuQUqoiIyINhrcVay2a9pnvVo96o0e608UlCyAuihhNEPrFS2ZHvcp6/16d7MSUvAknisVZhioiIPBwKVURE5MG5HQnK5nNWixXNTpNGo4FzjiIv9IBEPmrx6D0Q6fcmnL8YsVlt8YnT6RQREXmY70U9AhEReYje71sJjK9HZPOMzkmHarWqkSCRnyZESJP9Sa/pJOPsxZDZZIXzlrSUAApTRETkYVKoIiIiD5oxBpc48t2OXrdLpVKj0+lQKqcUhU6tyMMWAjgH5ZJntVhzfjbiuj/DGEjKHqMgRUREHjiFKiIiItz0rWBZLxdcrdY0mnVa7RaJT8gLXcEsD1Op5CmKnPPnA7pXI7abQJKqN0VEROSWQhUREZEPcN4TY2Q2m7JaLmm2WjSaDTCGoJMr8lAWiN5jTGRwPeXibMBisSXxjlJZvSkiIiJf8s7UIxAREflSxhi884QQGF0PWWRzWh31rchx21+RbPHeMJstuDgbMhkuMc5SKiegMEVERORnUKgiIiLyZdz2rWy3O667Par1Os12k3JaItepFTkSIYC1UC571pstL94b0uvOIEZ86jEGdNu4iIjIh1OoIiIi8jHsTYHE/grmBY1Wg2arhbVOp1bk3kvLnlgELs+HXF6M2axz0pLDWqOTKSIiIh9DoYqIiMgnYQz+pm9lMpqyWCxptTrUGzUAhSty/xaB3mIMjIczzl4MWGQbnHOUK+pNERER+cTvUz0CERGRT84Yg088IS8YXvfJ5hU6jzuUS2X1rcidF0LAe4/zjmW24vzFNYPBAucsaZoAClNEREQ+DYUqIiIin4GxFmctm82a7sUV9XqD9kmLJEnJc13BLHfL+70pKdvtjrOf6tO/mhFiIL3tTREREZFPTaGKiIjIK3DOEW/7VpZLGu0mzWYTY4xOrcidkZY9MQS6VyMuzkas1zvS1OOt18kUERGRV6BQRURE5BUZY3B+X1o7HgxZZBntdodqrQqob0Xe4kLPW4yF6WjO2dmQ2WSFSxzlcqLeFBERkdfxrtUjEBEReT2stVhryXc5/V6Paq1Cq92hXFbfirw5IezDFJdYVos152dDBv0Ma6FUVm+KiIjI66RQRURE5DW7DVdWyzWr5RWNRoNWp02SJOpbkYN5vzfFs9sVvHivR+9iShECSeIwKk4RERF57RSqiIiIHMht38p8Nme5WNJsN2mob0UOJE0tmEivO+bqfMRiuSVNPalXb4qIiMihKFQRERE5oA/2rQxv+1Y6J1SqFUB9K/KKAlhv8d4ynWRcvBgymaywzlIup8QYFaiIiIgckEIVERGRN+B2JGi3y+l1+9SqFVqPOpRKKTGob0U+ndveFF+yrFcbvvjFIcPenBAhTT1YiEpTREREDk6hioiIyBu0D1dguVqyvFjRaDVoN1tY7wlFoQckHy0AN70p+S7n4sWIy4sR220kTS2JNfuTKcpTRERE3giFKiIiIm/By76V8ZRlltHqdGjUG/t9s06tyIeIEZLUYozhejDj/Pk1y8WWxHvKZasrkkVERN4ChSoiIiJvyb5vxROKwKg/JJtmtE/aVKpV0BXMcuPlqE/imM0yzt4bMhsvMc5SLicKU0RERN4ihSoiIiJvmbUWLOx2W667Par1Gu1OhzRNCSEoXHmg9mHKviNlvdny4nmP6+6MECI+9RirMEVERORtU6giIiJyR1hriTGyyBYsF0tazRaNdnPft5LnekAPRAhgb3pTiiJweTnk8mzEZlOQpI4kMfvOFAUqIiIib51CFRERkTvEGPOyb2U8HpMtM5qdDo1a7WbDrVMrxyxGSFOLMZbB9YTLizHz6RqfeMplrxJaERGRO0ahioiIyB1kjMEnniIvGPX6LCpl2p0OlUqFqL6Vo3Pbm5Ikhnm25uLFiMH1HOcs5Yp6U0RERO4qhSoiIiJ32L5vxbJdb+hddanX67RbbZJySp4X6NjCcSiXHZvtjvOfHNHvTcnzSJp6rHpTRERE7jSFKiIiIveAvRkJyrKM1XJFo92k2WxinadQ38r9EwAL3nsg0Lsac34+Yr3akSSeUsnodIqIiMg9oFBFRETknvhg38poMGY5X9DutKnWaxoJukdihCS1WGuZTDLOng+YzlYkzuuKZBERkXtGoYqIiMg9Y4whSRy7fEev16OcVei0O5TLZWIRCShcuZMCWA8uSVhlK87PBgyuM6wxVEoKU0RERO4jhSoiIiL3lLX70w6bxZru6op6vUG7035ZcCt3S1Jy5HnO+Xt9ri7G5EUgSdSbIiIicp8pVBEREbnnnL/pW5nPWS0WNNttGs0GxjmC+lbe/mLLeyDS70+4eDFivdriE0+p5HU6RURE5L6/5/UIRERE7r8P9q2MRyMWWUa706Faq6pv5S0IEdJkf5JoOsk4ezFkNlnhvCUtJYDCFBERkWOgUEVEROSI3IYru92O626fSrVC61GHUinVSNAbEAI4B+WSZ7XYcHk25Lo/IxpIUo8xekYiIiLHRKGKiIjIEbLWgoXFcsFyvaTVaNFoN3FJopGgA0pLnpDnnD3v072ast0UpKl6U0RERI6VQhUREZFjftF7T4yR6XTCYrmg2e7QaNTAGEKhkyuv8zkbExleT7k4G5Et1iTeUS6rN0VEROSo1wB6BCIiIsfNGIPznlAERtd9FvMy7U6bSlV9K68iBPDe4hPDbLbg4sWQyXiJMZZyWVcki4iIPAQKVURERB4IYw3OerabLf1ul2q9TrvdIi2VyTUS9ImFANZBuexZb7a8eD6k151BjDcnVhSmiIiIPBQKVURERB4Y6yxESzZfsFwsabVaNFpNrLU6tfIJpKknxsDF+ZCryxGbdUGaOqw1ClNEREQeGIUqIiIiD5EB7x0hBibjMVmW0TrpUK/VABSufNiiyVushfFoxosXAxbzDc6qN0VERORBrw/0CERERB4uayx4S1EUDHt9skqZdueESqWsvhXe701x3rFcLDl/PmA0XGCsJU0TQGGKiIjIQ6ZQRURERG6uYLZs1xt6l1fUG3WanTalNH2QfSshgLX73pTNdsvle326F1OKEPHJvjdFRERERKGKiIiIvGSdIxLJ5nNWixWNdpNmq4kx5kGdWknLHkJBrzvh/MWA9XpHmnrSRL0pIiIi8j6FKiIiIvIlDDdXMIfAaDhkmS32VzDXqsBx9614bzHWMh1nnL8YMJutsU5XJIuIiMiXWTvoEYiIiMiHsdZirWWX7+j1etRqNVrtDqVyelR9Ky97UxLLarHh/GzIoD/DGkOa7pdKClNERETkwyhUERERkY90G64sl0uWyyX1ZoN2u02SJPe6b+WDvSm7Xc75ewOuLqYUeUGSOoyKU0RERORjKFQRERGRT8Q5R4yR+XTOKlvSbDdpNptwT/tW0tRiTKTXG3N1NmKx3O57U26uSBYRERH5OApVRERE5BMzxuC9I4TAcDBkMV/QPulQqVUg3oO+lQDWW7y3TCcZZy8GzCYrrHOUb8aaFKiIiIjIJ6VQRURERD61D/atXPf6VGpVOp0OSSkhhrvXt/KyN6VkWa83fPGLQ0a9OSFCmiZgISpNERERkU9JoYqIiIh8ZtZaiJHlYsF6uaR207fivSXP336w8sHelDzPuXgx4up8TF6EfchiDUT2/xIRERH5lBSqiIiIyKsx5v2+lfGU1XJJs9mi3mxgeHsjQTFCmnqMiVz3p1yeDcgWWxLvSVO3H/NRmCIiIiKvQKGKiIiIvBbGGFziKfKC0WDIIstodTpUq5U3egXz7aiPTwyz2YrL964Zj5cYZymXE2LUFckiIiLyeihUERERkdfKWgsWtpsN190u1XqNdqdDmqYUIRAPFK7chilpatlutnzx+Yj+1ZQQIz713EwqiYiIiLw2ClVERETkIOzNSNAiW7BcrGk1GzTazdfftxIAy/4q5CKneznh/GzEZrMjTTzeGZ1OERERkYNQqCIiIiIHYz7QtzKejMiyBZ1HTaq1BvDqfSsxQpJajLGMRzPOXwzIphtc4jXqIyIiIgenUEVEREQOzhiD9wlFyLnuDShVMtqdEyqV8mfqW9mP+kCSJGTzJednIwbXc5yzlCoKU0REROTNUKgiIiIib8y+b8WyXW/oXV1Rb9Rpd9okSUKRF5/4Mp5y2bPb7fjiT3bp9ybkeSRVb4qIiIi8YQpVRERE5I277VvJ5hmrxYpGu0mz2cQ7R57nP/P/4KY3xXsPRHpXY87PRqzXW5LEUyqpN0VERETePIUqIiIi8lZ8sG9lNBizmC9od9pU61WI7/et3PamWGsZj+ecvxgxn61wuiJZRERE3jKFKiIiIvJWGWNIEkee7xj0epSyGp12h1I5BSLWO1aLFZdnI/r9GdYY0pIHhSkiIiLylilUERERkTvhtm9lvVhwtVzeXMHcon9+zdXFlDwPJKnDWqMwRURERO4EhSoiIiJypzjviTEyz+b0+nMmox1JaiiVvUZ9RERE5E5RqCIiIiJ3jjEGax3GBHxidTpFRERE7iSrRyAiIiIiIiIi8ukpVBERERERERER+QwUqoiIiIiIiIiIfAYKVUREREREREREPgOFKiIiIiIiIiIin4FCFRERERERERGRz0ChioiIiIiIiIjIZ6BQRURERERERETkM1CoIiIiIiIiIiLyGShUERERERERERH5DBSqvAZFEfQQRERERERERB4YhSqvwFhDmhhOmikAQdmKiIiIiIiIyIOhUOUzMgZSZ/hzf/WCv/53r3nyqESj5glB4YqIiIiIiIjIQ6BQ5TMKESply4//VMY3f9eP8Lv/0D/g/GrJ6eOUatlqJEhERERERETkyClU+awiEA3NekK7nvD/+f4B3/SFH+A//r99kfU28OxxGWvUtyIiIiIiIiJyrBSqfFZmn6uEGHAWnrbLpInjz/zXz/l1v/cH+K/+xhW1mudxpwxRI0EiIiIiIiIix0ahymsQgCIEvDecPioznm359v/kx/lN3/5D/L1/OOZRJ6FR8xRFULgiIiIiIiIiciQUqrxGEQgh0qwmPOmU+LGfmvNv/wc/zBe++8fojze887hCpaS+FREREREREZFjoFDlNTI3/7OIEYBOI6FZS/jLf6vHr/uWv8+f/C/fI8TIs8dlUN+KiIiIiIiIyL2mUOWAigjOGp6elIlE/sSf/yK/4Qs/yH/zN7ucNFIetVKC+lZERERERERE7iWFKgd2OxKUesezJ2UuB2u+8Md/jG/+rh/mh//xjGcnKdWKpYjqWxERERERERG5T7wewZtz27dSqzj+zo9M+P4fnfAv/jPP+NW/8nN85bMKk+mO9TbHOWVdIiIiIiIiIneddu9v2L5vxfC4lVKveP7if3vJr/2WH+A/+0vPcW4/KgT724RERERERERE5O5SqPKWFCHi3P4K5m1e8If+7E/yG37fD/A3v39Ap5XQbqSEEDUSJCIiIiIiInJHKVR5i2LcjwRVSo53Hld4frni3/vD/4B/97t+hJ+6WHL6uEylsr+CWeGKiIiIiIiIyN2iTpU7IEaIMdKuJxQx8D/80Igf/LEp/+tf9ox/7Vd+jtNHZcazLds84KxyMBEREREREZG7QDv0O+Rl30qnhPeGP/eXz/l13/ID/IW/cUml5DhppISgK5hFRERERERE7gKFKndQCJE0sZw+LpOtdnznn/xH/Lbv+h/5h+9lnD4uUSpZFdmKiIiIiIiIvGUKVd4CY/b/+igf7Ft59qjMD//4jN/8nT/EH/3PfxJvzc2plYiiFREREREREZG3Q6HKm2ZgvQ6stwFrzcf+4zFCJHLSTCknju/9r1/wG7/jB/mJswXPHpfxVuNAIiIiIiIiIm+DQpU3yACbbcFXPSvzqJVweb0m3Fyt/HFCjHhveOdxmZ94nvGbv+OH+HN/5YJOM6VcthSFnq+IiIiIiIjIm6RQ5U0+bGfIlgXf+PPb/Klv+yf5V/7Fr2CxzhmMtkD82JEggCJETlolnIPf/z0/zhe++8ewQLvhKYqohywiIiIiIiLypvb5egRv/oFPs5zH7RK/41//er77W34hv/QXnjCYbJmvcqz9+L6VfZGt49njCv/Nf9flm7/rRxjNdjxqpxRBwYqIiIiIiIjIm9rjyxsXyZY5/dGWn/PVdf7gb/8n+M7f+vN4dlKmN9iy3hQf27dy27Xy7uMyP/wTM37Ld/4QP/F8xpMTBSsiIiIiIiIib4JClbfAGDB237EymeeM5zv+uV/6lD/9Hd/Ib/lXPo9zhu7gk/WtFCHyqJ3SHaz5bb//R/jBH5tyelJSsCIiIiIiIiJyYApV3iYDzkIR4Xq0Ic8jv+ZXfTV/6vd9I//y//Jd5sucweTj+1ZCiLSbKett5Hf+X/4B/78fnXD6SMGKiIiIiIiIyCEpVLkjfwnOWfIi0h2sedIp8y2//mfzR3/3L+Abf26LwXjLYvXRI0EhRBo1x7aI/PY/uA9WnnRK5LpuWURERERERORg+3m5Q5wzzBZb+uMt3/CzGvxHv+sb+D2/4WdTr3quR2viR5xaCQFaVU+eR77lj/wo750veNTSrUAiIiIiIiIih6BQ5Q5y1mIMjOY52SLnX/7l7/K9v+8b+ef/6VOG05xt/uWDlTxEmnXHJMv5Xf/RjzKa5jRqnhB1ZEVERERERETkdVKococ5C3kBV4M1tarjO3/rz+ff+T9+nuUqZ7kusF/mby8EOGkmfPFiwbf98R/DAGniCMpVRERERERERF4bhSp3/S/I7vtWlqvAcLbm//S/+Rz/wb/18/HW7ntWvsyJlSLAk5Myf+cHR3z3/+OLnDRTDBoDEhEREREREXlte3Y9gnvyF2UhBsPV9YZf/kue8u2/5edCjKw2xZcdBYoh8vRRyp//q+f81f++z5OTEkE3AomIiIiIiIi8nr26HsH9YixcXa/4n/2Tj/jd3/RzWK0L8o8ISrw1VEqeP/hnfoL3Lpc0aglFoecoIiIiIiIi8qoUqtwzBrDWcDVY8y/8slN+9b/0OYbjLebLzAEVEepVz2i25bv//BdJU4NzOq0iIiIiIiIi8qoUqtxTBsNgtOVX/6rP8U/9/Dbj6Rb3Za9ajjzulPm+v3vNX///9nnSKVEUaq0VEREREREReRUKVe7rX5yFzbbAO8Nv+T98HmNg+xFBiTGRStnxPX/xOf3JlmrZ6zYgERERERERkVfZm+sR3F/OWSbTHd/wc1r8in/6CZNZjnMf/s/GCM1awj8+y/iv/toFjXpCjEpVRERERERERD4rhSr3XCCy2wX+t//8V1ApObbb+GVvAwoh8qhV5i9+3xX90UanVURERERERERegUKVt+B1BhkGyzTL+blf2+AX/Nwms2yH/TKltREolyzXwy1/4a9f0tRpFREREREREZHPTKHKW5D4/WN/HXmGtZAXgcRb/uff+BjM/kTKlxNjpFb1/L//+x7d4ZpqRadVRERERERERD7TnlyP4M1yzpKtciplS6u+DzReNdRwxpItcr7x5zUpJZai+PL/bLy5Yvl5d8nf/eExjao/yGmVIqCwRkRERERERI6aQpU3qCgi9arj7/7QmN/+H/4Iz68WnD5OqVbcK11xbC1sdgWfe1al0yyxzcOX7VUBIO5vAvqrf7vHdhdw7vX9GFhrSBPDSdNTKlld3SwiIiIiIiJHS6HKm37g1uCd4fv+3pB/4ws/yB/+z3+S5TLnnSdlrOMzhxAhgHfwFacl8o8JVUKERtnzg/9wyvOrFdWyfS2nSooi0Gkm/Bd/7Yrv+QvvUUotT0/K+/+djq2IiIiIiIjIse3x9QjePOcMTzopqXf82b90xq/91h/kz/+VS6olx+NOGeKnH52JQMTQrCcURcR83H8Gbwgh8j/80Gjfq/KKI0AhQK3iGYw2/Jd/7ZI/8n//KX7DF36Qv/F3B5y0E9qNlBCiRoJERERERETkaChU+f+zd99xcl3l/cc/55x77/TZXtQly5Ytd7lgMJhuAw41tDQI1ZCQhJpAEooNJIGQCiG0hPzSCYEUIHQDLrhiW7ZkSS4qtsr2Ou3OLef8/piVwUa72lVdSc/79VqM5d3ZmaOZO/d+5znPc5ykqcPzFH1dWar1mI998QHe9kebuO2+cbo6fMpFjzSdf7jiABRkMmbmT+aOVbRWOAd33T+B0orD3QHknKWQ9/jeLcMMjoasW1nkod01/uCT9/PeP9/Czj11+rqz5Ga2BEm4IoQQQgghhBDiRCehynFmrSOfNfR3Ztm2c5p3fXwT7//UNgaHG/T1ZB4LIebzF+msY7rSGqnscPP4vR6PDDR4dG+dbOBxqO1PLBAEHtV6wlevH6Ct5JEkjs6iT1ebzw13jfKWD9/DX/7TwzRjS19XFt9D+q0IIYQQQgghhDihSaiyCDjXCiY6ij4d7T7fvWWIN37oXj77pZ3EqaW/O4tWzFnh4RwopRgaCzGm9e8Hk8lohsebDIyE5HIGd4jlIza1dLYFfOvmYR4ZbJDPGiyQOgcoejsy+J7mX7++mzd84B7+6/oBcllDd3trq5P0WxFCCCGEEEIIcSKSUGURSR0oVKu5q3Z8/iu7eMt1G/nfHw5SzBl6O7MEgSaeCVeca237SVJLMe+xe6jB7qGQbGAOGqo4B75RVGsJg6MhvlG4Q7jP1kI2o6lUI77xo31kvJ9/SqXWEfia3q4slVrMRz/3AL/9x5u4c/MEXZ0BbcVgXiGQEEIIIYQQQgixmEiosghZ6wg8zZKeLENjTT7y2W1cc929fPe2ITwDK/pylIoeGV/ja01HOaBc9vjiVx8hiiy+f/C/Vjfz5XmaXQN1ktRh9MKfDs5ZyoWAm+4e4/7tFdpL3gEDEufAzoxyXtKV5f4d07zj4/fxob/Zyp7BOoWckb94IYQQQgghhBAnFE+W4Njb30L2YMUZ1jrKeZ9CzuPh3TU+8MmtnLmmxGXndfC0DV2sXl4gCBQ799T512/s5gd3jtBW9EhTN+/7EHiKscmI1II6hIjN8zRpmvLlb+8jn/UO+pha1TWOzmJAnFq+edMQN989zv/744voKPk0QouWqE8IIYQQQgghxAlAQpVjzDmIU4sCgsDgnJtz60s68x/LRQ+Hx849dR7YUeU/vr0HozVKQ5I40tRRKnhorRZwZ1pTgBqhxdmDj2H+ufuWWnq6svzw9lG27pimvezPextP6hxaK5b2ZNk70uSmn4zxK1cvpxaGaCmgEkIIIYQQQghxApCr12NIKYgSS39XlnzOY3g0JEkcxhw8znAz+3Xayz69nRnyeZ8gUPhGkc96dJb9hQUqtCpGtG71VbHWoRbw49bur1Kx/Pf1+0ArPE8v8PeDda1qmTvvn8B4YJQ8JYUQQgghhFgIOzP4QvoUCnHsyRXssVxsrajXEzac1cY//fHFvPBZ/VQbCeOTTQDMPFKNNHWtKg/AaI0xGq1bTW4PlVOw0DIV5yxtJY+77p/kzk0TdJQ87ALvhKK1xSmXMWzfXWPHnnprcpAMAxJCCCGEEGJerHUYDcW8h+8d2vAJIcRhXOfLEhx7tTClu8Png79xFp/8/Qs4/8w2hidCpuvxgqtNDodipnlsxqC1WlCyrbVGa8WXv7MPbcAc4vQg5yCfMewZarB1e41i3iN1kqoIIYQQQggxF2sdFkc2o2krBRSyRipVhDgOJFQ5DhyOWs0yMh5xwZklPvn75/OH15xFb2eGwZHWlqCjHa60jreKNIVSwUMpN+9QxNpWj5d7t05z+6ZxSkWPND28Z6FnND/ZPEaUWIyRp6UQQgghhBAHPI+fmarp+4b2YkCx4M9UgMvaCHE8yNXrcaBUa9KOAsYnI6q1hJc/Zwmfv/ZC3vCyFaSpZXg8xOEwRzFb0QqaUcryvhy+MaSpnff9zwSar3x/L3HkCLzDG4fcarLrc+t9E9TDhMDTyHuCEEIIIYQQP+Vc67zZGE2p4NNW9PC1Qoq8hTi+JFQ5nhQYo7EOBkdDfKP57V89nc9fu4HnPrmXyemYiem41T9FHfFfjbWtgGTVkhyo+W3fSS20FTy2bK9w011jtJd9rD38OsOMrxifjNiyvUIuo5FURQghhBBCiBZrHWgo5lthSjbQrYoVWRohjjsJVRYJYzSNpmVwNGR5X44/fvt6/vx3z+PstWUGx0Km6wlaK45UtqIU1JopS3uynLm6SL2RzGvyjlaWTKD5n+sHqYcpwcwB/fAfv8LiuOHOMYo5g5PIXQghhBBCnOKsdaRAJuvRXvTJ5/TMn8vaCLFYeLIEi4fWAIrpWgJ1eMr5nVx0dhtf/9EAX/rWPh7ZV6e95JEJWtttDifM0FpRD2MuO6+XNUvzDI1FaHOwgzoU8gE7Bxp899ahVpVKeuS6YQWeYfPDU0xWY3zfHJEKGCGEEEIIIU40rSoUR8bX5HMevlHgJEwRYlFex8sSLMK/FN3qdzIyEdIIU179vOV84doNXPOqVRijGZ2IqDcSPK04lH62SkGzaTFa88tXL6PRtK2xygc9uFtKBcNXvreXei0hG5gjNrItTR2FnMcj+0K27qhRLngkqbxrCCGEEEKIU4dzkDqH0lAuBJSLPr5WWNnqI8TivX6XJVi8jNFY2+q3EniKt7ziNP7145dwzStXUS4F7BluMFVPcM5hlMIYhZoJRxw8Fnjs/6dS4BlFkjqGJ5q88RdXc/4ZbUzVk5kqmdlZC6VCwCN7anzvlhGKxeCIV5IEvqJSi7nvwUnMTLAkhBBCCCHEqcBaBwoKOZ+Osk82UNI3RYgTgGz/OQHs77cSNptkM5prXrGGFz5jCT++e4yv3zjEgzsrpKlDGSjkPHK+QT+h16sCmpFlvBphLbz55at47YtXMFmNYZ5VKvms4l9+PMzIeJNlPVmSBYQqDkeSgnI8Lvx53BuJcxQLPrdtnOBXXrACz9NS4iiEEEIIIU5q1gLKkct6ZDMGz7T+THbCC3FikFDlBLG/kqQRWeojDYp5j5dfuZQXPrOfbbuq3HDHKPc9OMXe4ZC9oyFpavG91g85C1Fs6ewIuHB9G7/6Cyt52kWdTE3HxIk7aJWKc5DNeoxOxvzPDwZpL3ukC2joYgyMjsf8wjP7ue+BacYmIzKBPuAbSj6juX/7NENjDbo6MtQb9qD3TwghhBBCiBONc63qFD8w5DOajD8z0Uc+VBTihCKhyglGK8Bo6g1LrR7i+5p1K4tcfHYbtVrCo4MhgyMhQ2NNRiYi4sSSyxqW9GZZ2Z/nrDUFlIKxyQgL8wosUmvpLGf5+6/uYmSsSU9XBjfPUEUpSBNQGl551TIA/u+GQfLZgAO1TPE8RWodt2yc5JeuXka1HqJll5oQQgghhDiJWOvQxlDOa4JAo5WEKUKcqCRUOQyKx/f9cMCxagPSCkNa22MqtYTJaoRvNMv6sqxdnkfpVjjx2P00iriZUqkmJLbVpHY+UUWresRjZKLJN24cIpfVaA1pOt/7qRirxJy1pswl57Sz+eEpvvod10pbDtDmVuvW3tFb7xvjV1+0HIU0VhFCCCGEECcHax1oRTbjkc8ZjJatPkKc6CRUOVSuVbLXaKbQOjYet8t/rUE/FrDETNv9f65/5gBuUarVn8UsYD+Nc1AuGL7yvQF27qnS35MjXcAYZWcdaWK58indGAWnryhRLGiSxD4WoDzxjaaQ89i5p86O3TV6OgKqjWRB91kIIYQQQojFZH/flCAwFDIGz1etMEWqU4Q44cmV6iFSChJnWdGfp9ZImay2Juio41hYoTUYrfG81pfWPPbleRpjFv7X7QdQa6Z85bt7KRb8eW/72S+MHJ1tPlde3sfASMjqpTlOX1WkWk/RB4ihnINcVrN3uMHWHRWKeU+SeyGEEEIIcUJyDtLU4flQKviUCx6epyRMEeIkIqHKYQhDy+tfuoq/fO+5LO/LMjga0ghT9EkyCzhNLZ1tAdffNsL2PTUKOcNCMhXPKCamm1x5eS/dbQGT1YSezoAzV5cIo3TWZ59GYYzmJ/dPkCQOo+RpKoQQQgghTiytrT6aUsGnrRCQDWYa0coHhkKcVORq9TCk1hE2U571pB6+cN0G3v5rp5MJDIOjIdY6jPlpuOJOsIOnBQJf06infO2Hg3i+WnBYFCeWYt7jWU/qJrFuZruU46L17WR8Pes2otQ5SgWP2+6doNJICAJ5mgohhBBCiBPkPNo6HK3pmR1Fj1xWz/y5rI0QJyO5Wj3cg6aDkfGQOLa87iUr+cKHNvCqq5ZRqcWMjkeAQx3HfiuHyqWWcing1vsm2PjAFO3FzIJ6qRijmKrEnL+uzIVntjE5HRH4mlo94uL1beRyhjixB9wu5RxkfM3YZMSWHRVyGS1vQkIIIYQQYnFfF9jWh4OBb2gv+pTyBiVTfYQ46UmocgQYo4lTx8BIg66OgPe96Qw+/YcXcsm5bYxMRNQaCdqon44vPgGqVjyvFWT8x7f3zIx5W9idttaRpIrnX9GHQ2FdK1yKE+ho91i/ukjYtLP2oNEarFPccOcYxZyHc/JuJIQQQgghFp/H+qZ4mnLBp1yUvilCnEokVDlCFK1wpVJPGBqPOPeMNv7yvedx3W+tp7cjw9BoSKNp0UYd326285CmlrZSwB2bxrjvgSnKC2wWqxQ0wpRlvRmuuLCLajV6bHpP2mp9zmXnd1FvpKhZ1kI5CHzFlocrTEzH+L5UqwghhBBCiMXFOgcaCgWftpL3074pct4qxClDQpUjzOjWeOXxqZBKNeHqp/Xxd9dt4M2vWIWnFcNjUatp1WJ+UmiFUo6vfm8AaxWet7CniTGKyUrMC67oo63sE8Y/8x9n3mTOXVciEyiSWdbCAoW8x659VbbumKZc8EmlWkUIIYQQQiwC1jqsdWQyHh3FgEJWP3aeK4Q4tUiocpQYo0kcDI+FoBRvfdVpfP7aDTzvih4aoSVN3aLss9KqUvG5d9s0t24cp73NW1AvlVaViqWj7POMS7poRvYJ/11Tryes6Mtz+qoi9VryuIa++zkHvqeo1CybHp7G0xp9DKcAWSCxljhpfSUzX4/9f2vlTVMIIYQQ4hTzuL4p5YBSTvqmCHGq82QJjh4NYDRRYhkcbdDbEfDn7z6XfcNNas0EpRbfVCCtNb7R/Od392Gdw9eadAF3UmtFtRHxtAu7Wb+2xNBIhDE/+98hjFKW9Rc4Y2WJLTuqtJVmuTHnKBYMt9wzzq+8YDm+d/TfsKxtBUNZX5PLemQzBs+0JhUp1arCiRNLM0oJm5ZoJmjBtYI0IYQQQghx8mmNQnYYT5HP+GQDLWGKEAKQUOWY2N9vZXKmt0hnm0+SLr4tQNZCueixdUeFm+8Zpa3kLyhQAVqjky38wtP7iGJ7wLFHTkHUTNmwvsy3bh6cfbSyhXzO8MDOKkPjIV3tOeqN5KcNf4/0408txUJANtOaPHTrfeNs2VFleDQkjFKUgkLOo78nw5qlBc49o0xfZ4Dv+ySJY6qaYK2VcEUIIYQQ4iRirUNpRTHXClO0bp03OydrI4SQUOWY2t+sNUrd4tx35SCf03z1e3sJw5S2or+grT9aQS1MWb00z5POb6daswfcYKbRVBsJl57bQS4wNBNLMEvfFk8r4tRxyz0TvPoFeaoNiz4Kq+eAnq4suwca/Pu39/DdHw9TCxNs0toKpFTrm5wDY8BohTGK01bkefrF3Vx2fidnry2CVUxUIpLEopQ+agGQEEIIIYQ4uqx1oCATeBRyGmNaE32kOkUI8bhrVlmCY28xXmfvn/izbWeVH945Sls5WHBDXa0Uk5WI1790JfmcT7XWOGDVhtYQxZbujoDTVxXYtrNCNjjwdB+tFQ7HbfeO86svWok5Cn1VFNDdEfDNG4f4q3/ZzthEk462gI5SgNEKrVrBiqb1T5wjta3ReTv31Nm4bQcdX3uUC85s44XPWMLTL+4k8AMmqxFRJJUrQgghhBAnEmfBKofvG4o5g28UVprQCiFmIaGKAFq9VLIZzTd+OMhUNWFJd5bULqxBbTVMWdKd4+kXdxOGyZzfb2eKWC6/sJM7t0xSLvq06kWe+H2OQtbw8N46O3ZX6e7IUG+kR6wCxAE9nQH/8o09/OU/baeQMyztyT02lSi1jic+kv07moxRlAoebUWfZmS5bdMEt947zjlrS7z6Bct5+iXdFPMeU9MJ1iFVK0IIIYQQi1xqW31TStI3RQgx32tpWQJhLWSzmj1DId/+8QidZX9BgUrriaSo1VMuWt/OGSvzTFeTOSs0rLNY5zj/jBK+Vq29qgf4Pucgn/XYN9xg644Kpbx3xEYr29TR3e7zrZuH+at/2k5n2adUMD835lk94euJa5ekDs9T9HRk6GrP8NCjdf7wr7fyjj/ZxN1bJunpylDI6QVtpRJCCCGEEMfyfNhhgULGo70YkMvoVnNaCVSEEAe9FhanPOcs7UWf/75+HxPTTQLfLPg2YufIBopXPW8p1UaKc3MPjNZKU2tYViwpsHZFnlo9YdYZ0wo8o/nJ/RNEsT0iW4CshULR59GBkL/8x4dbpZ2eIk0PdQ15LDQpFz36u7Jsfniad3xsMx/5zANM12L6ujKP/W4hhBBCCLEYzoMd1jmCwKOj5FPIG5ScrwkhFkBClVOctZZCwWPPUMj3fzxMIefhWHhFhbOWctGnvRxQynszlRmzvxtpDWEzob8nw+kri1QbFqMPnKqkqaNU8Ll14wT1MJm1/8pCKOUoZDR//9VHGJ+KyOc97BEqJHEOLI7O9oBy0eO/f7CPN3/oXr5+wyBd7f5B10YIIYQQQhxdzkHqHMYYSoWAtoJBK3XEzgeFEKcOCVVO9TcUoJjz+e4twzw6HFLIe4c0Hs4zmnoz5Q0fuJu//tedxKmjrzuLVswaIDggTRwbzmon8NWc22MyvmJ8KuL+hytkMof3tLUWSgWf+x6c5gd3DtPZtvCmvPORpg6tFf3dWSr1mOs+s433f2oblXpKT0dWuscLIYQQQhwH1jrQrXPg9pJHNpAwRQhx6CRUOZXfUICs7zE1HfFf39tHe8nDHeI7inOQ8TUox999dRfXXHsPX/vBAOVCQGd7cMA9qVprKrWES85tJxto4sTOugPIGIXFccNdYxRzBncYfVUclkLW8PUfDtBoWgL/6L4MrHUUch7dHQHfvXmIa67byG33jdPfk8HzlAQrQgghhBDH4tzXuplegh4dRZ98VvqmCCEOn4Qqp/IbS2ppL3v8341D7BsJyWUMhxvSB55hSU+W4fEm133uAd72Rxu5Z9sUvV0BhZz3uHF0WkEztiztybBqWYFm7JirXUrgGTY/NMXEdIzvaw7l/c9ayOc89gyH3LFlknLOP+QgaSGcA4WirzvLxGTMe/58M3//1UdoL3lksofey0UIIYQQQhzk/M85UucIfE172aeUn9nqI2GKEOIIkFDlVH1zsZDLaKYqMd+4cZBsoI/gbTvKeZ/ejoBND03xro9t4kOf3sbYVERvZ4ZM5qc9RawFpRRPuaCDeiNBqdn7qhRzHo/uq7N1V4VywccdQl8S5yz5jMdDuyo8sq9OPm84lkN5UusoFw3FnMff/Nt2rv30AxitKBU9rAQrQgghhBBHzP6+KZ4xlAsB5aI/M3USZLePEOJIkVDllH2TsZQKPjfcPca2nVXKRf+QeqnMGh44Byg62zPkch7fvHGQN7z/Lr7w5R1oBb3dWVCQzJRoXHRWOzB3+aXvKyr1lE0PTmO0nn1a0ByUapV53r11Et9TKHXoj9EohTEKrVuNd41p/fvBbtI68DxFX3eOb9wwwHs+sZlKLaa97P3cOGchhBBCCLFwP+2b4tE20zelNUxACCGOLAlVTlG+p4kT+PK397aa0x6lvD5NHb6n6OnM4oDPfeUR3vzBe/jmDYN0lAK62jNU6ylL+7KsWZqnHqaYWZIO61pTgG65Z4JmlBB4C3/6ag1KWe59qNLa7nSIIYYGJmsxI2MhE1Mx41MRQ6NNJqZirHMYM3e04lxrhN/Svhx3bZnknR/fxOBoSE+HL8GKEEIIIcQhstaRApmsR0cxIJ81IH1ThBBHkSdLcOpJU0tXZ5bv3DLCg7sqdLZlDrlKRalWwDDXFpr9AULG1/R1Z9kzHHLd327jOz8e5k2vWM15a8ss6cmwdlWRnbeNUMwbSA/0Jgm5rGbrjgqD4xHd7T5xw6IXkK1oDbVGyp7BOr7RC46SlIIkdYxVYtatKvKk89rp784RxymPDDTYvrvGth0VmrGloxyQCfScU43S1NHbmWH7nhrv/sT9/Ol7zmFFX5bxyRhtlDxZhRBCCCHmoXUu6/B9QyFn8I2SJrRCiGNCQpVTjLXg+Zoosfz3D/ailcaYuccZzxUINJopCigV/YOOJXaAs472ok/qDHdsnmTjtnt53tP6+YM3nsFzntzNjXeNzXlfPKNIreWWu0f5lV9YQa0eMt+Cq1YoY9g9UCdOLBl/4eOjk9RRqSa8/qUred1LVtFe8gij1tSiTGCYqERs21HlmzcN8f1bh5iuJrSXPYxWs/4ua6GnPcOeoTq/+4nN/NV7z6e3J2BiMj5oxYsQQgghxKnM0apOMUaRz/pkA41yyIhkIcQxI9t/TrU3HmfpKAbcuXmCe+6for3sHVKgkqQOpeCtr17Dst4cA8MhSWLR+uAhwP5+K93tAZmM4avf38svvvN2Hn6kRkfJJ53jIwU9E07cdt84yigW0ljFAr6nGBqLiNOFP/u1VkxMR7z66uW8/VfXEiUpuwbqDI2GDI6G7BqoETZTzl9X5v3XrOPz127gWZd2MTkVUWukc65Nah2d7QF7h0Pe+1ebmarElIoeqXy6IoQQQghx4HM763C0hhl0lAJyGS19U4QQx5yEKqcYYzRxavnyt/cS+Ap9CJ1ajVFMVWM2rG/jN199Gn/z/vN508tXk1rF8HiIwzGfAovUtvqtLOnOMlVJ+Ldv7iFObasJ7RxvnoWcx869DXburlHMmzlDmCf8MJ6nmahEpMn87uPPPubpasJpywq86WWrGJmMCMMU32g8r/XlG02SwNhkk5GJiFX9eT72zrP58G+fQ2fJZ2SitTazLbm10NXu8+AjVT7wyW0ws91JylaFEEIIIR5/zpQ6RxC0wpR8zjz250IIcaxJqHKKvQFlA8VDu6rcePfoY21LFpqrWNvat/r8p/YxPhmiteK3fmUNX7juAq58Si+T0zET1Rg9j9tu7XV1ZLOaUqG1TeZg35/PGfYMNti6fZpi3ltQeafRUKknOOcW9LitdTTjlBc9o59y0dAIE4z5+ZdPawqQRimYqiWMTsZcdXkPX/zIBn7h6UsYHW8Sxemsvzu10NOZ5fbNE3ziHx+inDcHXRMhhBBCiFOBc63t556vaS/4tBUNnlISpgghjivzttdcfK0sw6lBqdZFe7nocf6ZbezaF/Lo3gZKOzKBmVd/EWMUk9NNTl9Z4C2vWk09TIkSS62e0t2R4XmX97B+bZndAw2276mitZr3bc+XVopGZCnmfJ56URfN5vwCktQ62ksBt983wU82T1LMz7+nSpo6cPCe158BCtLk4IHR/v9ercVkM4arntJLMR9w672TpLbVuPeAv95BqeDzk/snyAWGp27ootJIUErCFSHEqfe+FUWOqDm/7aVCiCPzumtGltQ6FtOpRzrTN6WQ9ynkDJ7XClOkdYoQ4niTSpVTjHOgleZZl/bwhWsv4B2vPY18zmdoNHysyddcrHVECTz7Sb2U8h5R3Nquo7WiUk0YmYh5yvmdfPr95/N7bzyDcsFncDQkSdwRa7pqnaOt4HHbpgmq1YQgs7CncRxbFG7e7Vi0hkYz5aw1JTrbfOJ4YROHjNHUQ8vYdMRrXryCj79zPVq1phDNfrLi6GrP8PmvPsJt943T1R6QSoMVIYQQQpxiWn1TIJf1aCv65DJaRiQLIRYVCVVOQXFqGRkPiSLLr714JX937YW88qpl1MOU0fEmzNL3QwFx4igVPF5wRR9TlQT1M+mC1qAVjE6ENMKUX37+cj5/7YX82otX0IxTRsYjrDv8Tz2cA9/XjE822bJjmlww/74jitYe3PluGXKAUYp6aDl7bZEgUCTJIbzQNDgLAyMNrri4h4++/Wy0hvoswYpzEHgajeJP/+FhJqcTCjlPTiCEEEIIcUqwtvVBWhAY2gs+pbxByVYfIcQiJKHKKUjRqp5IUsfgSEhbyeN9b1rHp//gAi67oIPRyYTpaoLWP93C4mht/ZmYjnnWJV30dQWEkeVA1djGtEKOgZGQUt7jna9Zy+c+eCFXXNTFxHRMpfb42z6kJ64G6xQ/umucYs7gnF3wGizkm6M4ZeWSPIG3gMa4B7zfisHRBk/b0MmHf3s91rZu+0Ccc5RLhp17a/zNv2+nWPDQUuQqhBBCiJPYY31TPE1bwaet4D221UcIIRYjCVVOccYoanXL0HiTM08r8pe/dx4f/a0zWdqbZWi02QpOtEIriBOL78FzL+/FOYc9yLubMZpaI2V4NOK0FQX+9N1n8/F3nsPKJTkGRyPqYYp3iHvklYPAh/sfmmKiGuN5R2dKjqI1Pjqf0XS3BySp5XA3MWmtGBhp8sxLuvntXzuNqemE2XYEWws9nQHfvHGIH94xSldHRrYBCSGEEOKkZK0DrSkWfdpKHkGgsY4FDSUQQohjTUIV8di2nclKwvhUzFWX9/L3H97Ab7x6DZ6GwdEGOEW1nnLu2jIXrW9nspKglJ7fbevWbU9Mxzz94i4+f+0G3v5rp5HNaPbNs5fLz73pAoW8z6P76mx9uEJbySN1Rz5sUArSFPI5n3LBI06O0O2iGBwNeeWVS3jOU3oZn4xmbcKolcL3NX/7pR1M1WKyWXNI9SqpfMQjhBBCiEWo1TfFkc14dJQ88tI3RQhxIl1PyxKI/fZPCB4eb5KmjmtetYbPf2gDv/jc5UzXIobHm1x1eS9BoEkSFtasVUPqYHSiSRxbfv3FK/nidRfzS1cvp3aQXi4H4hz4nqJSt2x6uIJnFFrN7w4ppXALyHDS1JLJaPIFjzS1j+sjc8gvPA2pVTSajre8ahWFXEAUzd5fpa3o8fCeOl/+1l46ywE2XVis4nmaYs7HOicnKEIIIYRYFKxt9boLfEN7MaBUMCgkTBFCnGDX0TJSWfz8Bb8idTBdiehqy/Ccp/Rw9toy1XrCa160ElxrS8xCe6Komdu2Diq1mLaSz7Of1MNF55QZHo146JE6NnVks/MLLfYXdtTClOc9pQ/n7Jwjkq11lIs+G7dNcdf9UxRzBx+prFSrOW8u0LzoGf3ksoY4OTIjBrWCZjNlxZIc9XrKLfeNt+7TLN8feJptO2s89aJOOtsyNCN70PthHQSeYrqesGtvnfVrSjjnaEYpoJApzUKIxUxGKgtxfF53R32ksmuFKb5RlPM++ZzBGOmbIoQ4Qa+fZQnEbAGIMZrpesLQWJOL17fxZ+85j0ygaS5wpPCBGKOp1lMGR5uctbrMX7z3PD7822fS35tlcLRJGKUHPYFOLeRzhm07qgyMNgh8M+ebceuTD9uqatHg5rGJRs0EE8YoPH0U3uyVotaw/MIz++hqbzX/na1aJZ8xjE01+cp39pLP6Xmd6DgH2YxmYjLi7R+7lz/6woNM11KW9GTxfS39WYQQQghxTFnrsKq1jbutHBAEGidbfYQQJzAJVcSczEy/lfHpiEotIT2CncJ+tt/KVCXmeZf38XfXbuCtr1qD0YaxyQgOEnxorUis48cbxynkDJa535EtEPgKtaCHYVFGob0jP3tHa6jUI1YtzfHk8zqYriWzhkmpdXSWfb558xCPDjTI5w7enNfRClYKeYOnFV/+9l6uuXYj//GtfWQDRXdntvVpkZzJCCGEEOIostZhcWQCj46yTyErfVOEECcHCVXEvBit0fpo3TakwPB4iMNxzStX8w8fuZArNnRRradzVmS0AgjHHfdNoJTCHKSvik2gVPBRC6o60TNt54/Su77TpAk889IeMp4mnaVfigMyvqFaS/jP7+ylXPDnPUraOvB9TV9Xlmoj5mN//xC/+dGN3LpxjM4On/ZS0DrZkRMbIYQQQhxB1oJzDt83lPMB5aJBI1t9hBAnDwlVxKJ5IhqjiRPHvuEGK5fked3LVj72Zjz7G7WjkPXYsbvOzr1V8tk5tgBpSKylo+zjeWpRPfbpWsJFZ7dRyBuiaK6xzY58znDj3WPsGwnJ57x5n5Q4O7NeOUN/V4YHdtZ49yc283t/tplH99Xp78mSy7S2BMmJjhBCCCEOh5vpm6K9ma0+RY9MIGGKEOLkvJYVYlHxPM3QWJPTlhfoOEhDVucgnzXsHW2weXuFYt7MOlpZo0mSVqhitGaxtBNRGpLUUix4rF1ZIIotsxXcpA6KOZ89A3V+fM845YI372qV/awFi6OzPaCzzeemu8d5y0c28hf/72GixNLXncUzSL8VIYQQQhwSax0oKGR9OooBuYz0TRFCnLwkVBGLjqLVeT4IFJeuLxOGc28BQoFnNHdtniCO3ZxbgKIEujsyaO1wdq6KkGN98gE4uHh9O804Rc1xz5SCTMbw/VuGaTQtvjm0l3Frm5FqrQeKf/76bt7wgXv43x8MUMgbutuzMh1ICCGEEAs4n3FY5wgCj47STN8UJEwRQpzcJFQRi1KaWnCKyy7soBGlqDmu7tPU0Vbwue2+CaphQjY4cANXrSFJLJ3lgFLRI0lgsaQq1lpAsaI/TzNqfboz27jn1DpKBY97H5pmYLRBJmMO62TFWkcQaPp7skxXYq773AP81h9t4rZNE+QyngQrQgghhJiTc63zMc83lEsBbQWDUgrrZG2EECc/CVXE4qQgSlLWrijS05Wh2Zy7WsX3FWNTMZsemiaTmftprRWsXpYnTu28A4PWycJRzGBUa8RzZ3sAzqEUczYGNlqRJI4b7xwnl9OH3UK3VZLryOUMfR0Bmx+e5rf+6B6276mQDYx8wiSEEEKIA0qtQ+nWIID2okfGkzBFCHFqkVBFLEpGa2r1lOW9OdatLFCZY9QwgDEKheOmn4xSzJtZ+4xYCw7Fyv48UTx3BQy0Ju5o1ZqeY1FHLVXRShM2UzrbfJb05Ng7FBKnDjPLY9ZaoZTj9k3jeEZjjtD9alXHKLraAzK+wVkllSpCCCGEOMA5VWtEciHj0VEKyGWlb4oQ4tQkoYpYtOLUUip4rF9bIpnHG7TvGzY/XGV8Osb3zQGrNywWZSzr15SJkvl9jKIURImjGaVopTgaH75oDY3Q0teV4QvXbeDlz1lCGKaMTUWA+7nQxFpHNmPYOxyye6A+65anQ5WmDjfz2IUQQggh9nPuZ/umBBTyBoWEKUKIU5eEKmLRMkoz3Ui49Jx2skFru8tcIUAx6/HoQI1tOyqtqTgHmF6jgDSB1ctyFPMeSeIOGhxoA3FsCUOL57HgaTvzpRTUGymdbR4feOuZ/PX7zueCdW2MjkdM1x9fqeMc5DOGwdGQhx+tUSgY0iN8NiN5ihBCCCF+9twjdQ5jDKVCQLlg0DN9U2S3jxDiVCahili8T04Njbrl3HVttJd8omTuaT2+r6jWU+59sIKn9QFTAYWm0Ujp6cywsj9PPUwOGh5oNHGcEIYJRuujeuagFNQalsHxiPPWlfjkH5zHB3/jTHo6MwyOhESJa239AYynaIQpu/bVMcpICCKEEEKIo2L/iORizqe95JEN1KwN9YUQ4pS7bpUlEItZnFiyvubCs9ppNNM5+6pY5ygVfG69Z4wwSgg88/NPeA1hlNLXlWHN8hz1xty9WpwDz1NUG5bpRoJn9FH/NEbrVh+X8cmIai3hxc9awheu3cBvvHoNWMvweERqHVppclnD9t01mnGM58nLWQghhBBHisNasDhy2daI5Lz0TRFCiJ+/fpMlEIuZxYKCp1zQRSOce/yOtZDLarburDAw2iTw1QHf9B2tT1wuXt+OZwxpOndMYhREsWVqOsaYY/fYjdFYB4OjIb5RXPOK1Xzhug087/IepisxY1MRuazhkX0hzcihpVRFCCGEEEeAw5E6CHxNuehTyM1s9ZEwRQghfo6EKmKRP0E1cQxnrC7QWfaJooOMVjYKax0/3jhGIecdsP+J1ppKNeGy8zrJ5TTxHNuKHGAB39PsG2mQxLa1BegYMkbTaFoGx5os6cnx0d85i79633mcvabIZCXmoUcrpNZhPC0nO0IIIYQ4PBa0UrQVZ0Yk61Z1iuz2EUKI2a5ZhVjk6mHM8t4cZ6wuUqnPvV1H6dZ0ntvunUBpxYFKW7SCZmzp78lwxsoijciiZnkl7P/prK/YPbi/p8lxeKHq1lelljAyHnPJuZ18+g8v4A/edAaBp9g7HB7TKhohhBBCnJwsUMx75DKa1IF8XiOEEAe5VpMlEIv6CapbAUhbyWP9mhJp6lBzfFRibWsK0K69NXbsrlHMewecipOmreqUq57aS62eoObYV2StI5P12L67RpRajFHH7QRD61Yz29GJkEoj5pdesJy//8jFFLIeSXx8Ah8hhBBCnHyk+lUIIeZ5jSZLIBa71kSchIvPbsehiO3sY5D3jxreOxxy//ZpinmDPVAIM1OtcsnZ7fR2ZQmbds7bDHzN3uGQ8akI36jj/rGNMa2tPgMjIT3tPh0ljySVwlwhhBBCCCGEOJYkVBGLnqc1tUbC+evKnH9GiaGxkHo4+yQgp8DzNHduniCOHcb8/NPcaM10PWHN0jwXn93GVLWJmWNbkdHgrGPjlilyWdNqoLsIGKMJI0fzBApUrG19pal8BCaEEEIIIYQ4sUmoIk4IadqqWPnU71/A+99yJqWCx8BoSJI4jHl8GGKdo63gccf9U1TDhMDTB45ArCNO4Oor+jDGECezX+TrmTKW2zdPkA3MnFuQjvmLWJ8YL2RrW3835aJHueTR05lBa3XA7VlCCCGEEEIIcSKQUEWcMKLYEcaWlz93KV+4dgNveMkKojhlZDzCup9uCdq/XWdiosnmh6bJZfQBt+sYo5mqRVx2Xgdnry1TbaSzjiW2zpHNaLbtrLBvJCSX8WSv8QKkFjxfsbQny73bpvjND9/Lf353L6WcR2dbgHOyd1sIIYQQQghx4pFQRZxgF+eOodGQYt7jt391LZ+7dgNPv6SL8cmYSjV5rJGr0mCd4kd3jlLMmwOOVgZIUjBG8Yor+6k1EmZrrOIcFPI+jww0uHvLBOWiN+ttisez1tFe8CjmDJ/78iO85883c+8DU/zZPzzMWz96L/dsnaK3K6CY87CphCtCCCGEEEKIE4eEKuKEomhVmNQbKUNjEWuW5PnYO8/mT999DquX5RgciaiHKUYrAl+xZUeFiekY39cHvFhXwHQt5qkXdXH2aSUmK/HPbSd67HudwzOK794yQmJb/1/Mbv9693ZmGBgPefefbubT/76dbMawtDdLd2eGrdunedefbuIDn9rK4HiD/t5Ma4Sj9FsRQgghhBBCnAAkVBEn5hNXt76magmT0zHPvKSLz127gbe/Zg35nGHfSEg+Z9g7GLLl4Qrlgn/AyhKtIWxa2os+v/yC5URxSjpL09fUQXvJ59b7xtm2o0oh50tVxSzS1JLParo7Ar5x0yDXfOhe7rh/gv6eDL5RrUlFDjrLPoWsx7duGuKaazfyd1/ZhXWO3s4sSkkzWyGEEEIIIcQivzaVJRAn9BNYt7bmDI83iSLLr79kFX937QZefuUSmrFl1746mx6axvd0a0/QAXhGMzYZceVTeznvjDama/Gs45V9T+Os45+//ii5vEErGWP8RNZBV3uW1Dk++vkHue5vHyCOU7rbMzin+NkVSx0YT9HblcU5x6e/tJM3XbuRb944RFvRp6sjI/1WhBBCCCGEEIv3mlSWQJwMjNEkqWNwpEFbKeD333Qmf/O+83nOZd187UeDjE3FBP7sPx+nFk/Br79kJUnssO7AqYq1jnLR56a7xrnhzhE62jJSTTEjtaC1or87w8YHpnjzBzfy39/fR1ebTy5nsPbAAVQrNHFkfEN/d5aB4ZDrPrOVd318E5sfnKK7I6CQ06TSb0UIIYQQQgixyEioIk4qxmhq9YSR8Yh1a4p87toNvPZFK6nWYhSz90AxWjNRiXn6xV1cdXkvYxMh+gCjgJwDzyiMhr/9953UGin5nEwCSqyjveRRyBs+9+VdvOPj9zIw0qC/O4tSCjePgh7HTFPbok9XR8CdWyZ520fv4+N/9xDT9ZS+rgwZv9VvReqDhBBCCCGEEIuBhCri5HtSz0wAmqwkVKoxv/CMXooF0+rjMQdrFWHT8qZXrqGjnCEM7QFjGOugXPLYvrvGX//rQ5QLHka7IxasnEgBzf772t8ZMDjc5N0f38RnvryTXGAoF/1Zq1PmkjoHKLraA4oFj69cv5df//27+aevP4Ixit7OLJ6R57kQQgghhBBiEVx/yhKIk5XRrZHJU9V0XkGF1lCpx6zuz/Kml69istrEzVITYW2rb8jXfjDIP39tN71d2Vn7sCyEUmAMpCdAsvK4ZrQ3DPHm6+7mzvsn6e8KWtOW3OHevsMYRV9HljhN+et/2c5vfuRefnjnCFrrA1YSCSGEEEIIIcSxJKGKOLmf4LoVrsybU4xNN3n5lUt47pN7GZuMMLNcvGvtaCsFfOpLO/j6jUP0dWZmtrAs/H46wNOaJHEYpehuz+Jcq0/JYmNt66u7PUuUOK77221c99kHiGNHd8dMM9ojtD/HObDOkcsYlvbk2PZIlTd+4B6+9J295DJaeqwIIYQQQgghju81pyyBED/zgtCQJIpmbHnXa06jrzNLpZpwoFzFOQh8RSnn85HPbON/fzRAf1cGz1t4sJKmlkLesHNPlTdeew+bHpympyugXPCw6eLpIGIt+L6ivyfDXdsmeOt1G/n6jwbpap+7Ge3hUDP/OzLRpJTXXPe2s3nllUsJI4eWI5gQQgghhBDieF5DyhII8YQXhYbpakpPV5b3vXkdsbU0Y3fA7T3OQRAoClmPj3zuAT7zH7toL/qUCh5JahcUrmijGJuOuev+SX7nY/dx3d8+yNBYSF93Fs8o0tRyfAozWg88TS3FvEchZ/jcl3fyzj/ZxMBIg77uLIojV53y+L8LRTNJGRxrcsFZbXz6Dy/kdS9ZgdGKRKYuCSGEEEIIIY739aMsgRA/zzMwOhHxtA1d/OYvrWFyOpo1INkfrLQXfb7wlV2896+2MFWN6e9uNVSdz8hlrTTaObZur7C0N0sxr/naD/dxzXX38IWv7sLzFD2dGYw6HluCHNY6ujsz1OoJ7/uLLfztl3ZSKHiH3Iz2YBSgUIxPRcSx47d/aQ1//b7zWbs8z+BYSLNpkY4qQgghhBBCiON+7ShLIMSBaa0YnWrymheu4JG9db76/QH6u7O4A5Rk7B+13N3hc8OdI2zZXuGaV6zmF57ei1KayUpEkliU0gfcsuJ50Iwtt943QeAplFL0d2dphCmf/fJOvnfLMG/4xdVc+ZRu0sQxUU3AcdS3vzjXCjd6uwI2P1zhw5/ZxqMDIUt6Wr1T7NGoTlGKOLGMToVsOKuDd712LeetKzM6GRHHKUb2/AghhBBCCCEWCQlVhJhDmlgmKwnvef0ZTFYSfnjnCP2d2Zmxv4/X+hNFT2eWej3ho1/YxjdvHuKXn7+MKy7qRmmo1hLqzf2BiMbicBZWLc3xn9/Zw57BkK6yP1MV48hmNLlshn2jIe//1Ba+cUMHb3zZSjasb6fasFRrEVrrIzJ56ImsgyDQ9HYF/Ns39/Bn/+9hksTS2xmQ2qPT58VoxdhUhDGKt77qNF7zouUYoxgcCQElgYoQQgghhBBiUZFQRYg5aK0JI4sxcN3bzqL25wm33zfBkp4saTrbuGVHLmfIZjWbHpjknq2TXH5BBy959lLOX1dmeV+OKHbEiUUpaC/63HrvOJ/7z0fIZnRrU97MTTvX+irlPYo5x52bJrjn/kle/Owl/NqLVrC8L8f4VERyFJrZZgKNbxSf+IeH+cJ/7aKt4FEs+UclUNFaEUWWkekm561r4x2vXcuGM9sYn4ppxrGEKUIIIYQQQohFSW357jVOlkGIuaUWSnlDlFh+98/v5+4tk/R3ZbEH6c5qjCJNLFPVhGZsOX1FgQ1ntXH22hJ93RmakWPjA1N844ZBwqalmDdzNnw1RhHHltHJiP7uLL/6whW85Fn9WGsJI/dzfUYSC+0Fw6NDDd567UZ832AM82oqm6aWZX15HthRoVj08MzRa0Y7PR1hleJXf2EZr3vpKnzPMDHVBJRM+BHiFKY1VKuWynSCMdJJSQghhBCLj4QqQsxTmkKx4GFTy/s/uY0fbxyltyvAuYOf6BulcAoqtZgwsnhaoWfmNMdxSqHgkw30vEMLrRW1RsJ0NeaM1WU+9b7z8P3WffxZhxOqOOdoxq0tSByt3impZXQi4uy1Zd712tO45JwOJqZjwmaCMZKmCHGqk1BFCCGEEIudbP8RYp6MgWojoZTTfOxd67n2sw/wvZuH6O3MoA9SxZE6Bw7KeZ9ykcdtHTLKb/VWWUBwYa2jkDVkfM3OPVWccxijiWN3xCo7lFLkMkenOsVoxUQlwjl4/ctW8LqXrCKf8Rgcbc6stQQqQgghhBBCiMVPQhUhFhIGKKjWLbms5o9+6yyWd2f55288SiHvkc96Bx0vnDoH6QH+7BA4II4dq5bkyGV1q0rlCGcRRzpQMUoRpZbRiSanryjyO69Zy9Mu7GSiEjM6GUqYIoQQQgghhDihSKgixAJpDY3QklrH7/zaaaxelucT//gQE1MRnW1HbzLOz98PRRglrFraju8ZokaCXtTrppiqRMQJvOp5y3jrq9eQz3kMSHWKEEIIIYQQ4gQloYoQhxQQQBQ5RiYiXvysJaxZXuDjX3yA+x+u0tsR4Bl9yBUo86VoVc2sP61IIaeZrtlFOSXHKIhTx8h4k9NXFfidXz2dp13YyWQ1ZnR8cVanOMCmVoIeIYQQQgghxNzXhrIEQhzii2fm1TM4FnLmmgJ/+/4L+ZVfWMZEJWayGj/WiPZoUAqixFEqGM5ZWyJK3FFpJnv4a6SYrCZMVRNe/YJlfOaDF3LZ+R0MjjcJm4s3tPA0tJV8lAJr5bkuhBBCCCGEmOWaR5ZAiMNjtGJ8stV09XdfdwZ//p5zWbkky+BoSJI4tFEodeRfuLV6wukrC1x4ZhtTlQilFtfLObWOodGQ/u4Mf/aec3jv69fhKcXoeIhWLMpRyc5B4GkS6/jJ/VOUiz5tJQ9rJVwRQgghhBBC/DzZ/iPEEWCMJmxawijiKRu6uGB9G//+f3v4t2/uYWo0oq0ckAn046b+HN7Fv6LRSHnxs5YSBIapaooxi2c9FBBFKb/ywhW88WUrKOYCBieaYBd37xTroFDQ3H7bBL/zJ/fywmcs4c2vWMWZa4pUawnVuox6FkIIIYQQQvyUXB0IcaReTBq0gtHxEGvhLa9czd9ft4Grn9FPGKUMjzex1mEOs3LF8xSjU00uPLudFz69j8lKhDKLay0crYDixc/sp6PsMzwRolmc1Sk/yyjAKb76vX20lQJu3jjGm669h7/8p+3UwpS+rixaQ5pK2YoQQgghhBBCQhUhjvyFudE0m5ah8YilvTmue9tZ/M0fXsBzLuuh1kgYGgtpNC1aqwWHDMYoRiYiOss+f/CmdTNjlRffC9koRTOyfP7Lu0hTdUJUd6Sppb0t4PZNE9z34BTtJY+utoCMZ/iXr+/mTR+8h698fx/5rEd3ZxacbAkSQgghhBDilL/+e9trLr5WlkGII0up1lczstQbKct7szz3KT08/eJubOoYHG2yd6SBm6lc0Vo99k+tFVrNfM38O0CSOEYmmizrzfAn7ziXtSsLTFeTOYMZ6yAbaKZqCd/40SDG6CNSLaJUa4vP7N8Avqd5ZKDOJWd3sKI/Sz1M0Eot3r8zDfms4ZP/sp1H9jYoFX3S1KG1olTwqVZjfnD7GLdvnqSvK8OZawqtAC20uJk1EUIc+WNpFDmimSBaCCGEEGKxkZ4qQhxF+wOMiUqE0ZoV/Vne/9az2L2vzh33T3L9rSNs2T5NtR6TpBalFJ6n8WZ+LkkgSixGQTareeWVy3jDL66io+wzMR1zPK4xjFHEsXvc43si5yATaCamI/73h/s498wz0WrxVquk1tJRzrDpgWluuWeczrbM4/rfWOvI5z0KOXj40Qrv/sQmnnNZD2/4xVWcvrLIdCWmHkq/FSGEEEIIIU41EqoIcQyYmfShUrNMVxt0tAW89NlLeOEz+hmfbHLXlkm27azyyECDWiOhEaYoBbmMobs9w9lrizz7sm6W9uZphAnjlSbmGIYUSrXGI8exZXSiSVsxIAgUUeTw/QMnO2nq6GgL+N6to/zKi1awtDtDpWYXZV8VrTSBr/iP7+zFOoXRjif2FHYzU6s7ij6Jc3z/1mFuu3eSVz1/Ka983lK6OjJMTsfyZBdCCCGEEOIUIqGKEMfy4l0DaGqNlGo9xhhNPu/xvKf28tLnLCVNLZV6Sti0M6GKpq3oEcWOSj1hbGZ0szmGyYQxiiiyTFYjAk9x1eV9vO2X1/Af397Lv31jN3092VmnGmWMZiqK+fK39/H+a9YxXQ05yMahYy61lrZiwNbtFW65Z4y2osdcQ5pSBxpFd2eWMEr5/H/u4v9uGuQ9rz+DJ53TwXQ1QmupWBFCCCGEEOJUIKGKEMfB/nAFIAwt9TDBTURoDZ7Rj/UOqDVSpqsxzoHWrX4ox7J3h7WOsalWmPLcy3r4pauXc87pJbKB5mXPXcLXfzRAM7J45sB3yuIo5j1+cMcwr37+Uvq7c1RqCYtpl4xSilxG81/X76UWpo/1UpmLA5x1BJ5mWX+W3QMN/u0bu7n07A48rZH+tUIIIYQQQpwi13ayBEIc5xehBk9rfE9jtCZNIY4dceywtjVNyPP0Md82kySWZmS58rIePv2HF/LH7zibM1cXGZ+M2T3QYM3SPM+6pJvJSoSZJelxDnJZw/hkzDduGKSQ04uqUCW1lmLBZ/ujNa6/dZT2coA9SKDyRHHs6O/OsHV7lfHJJpnAyFQgIYQQQgghTpXrOVkCIRbZi1I//ut4UAoaoeW631rPn777XNavLTIyHjFVSVqTfzSEseUXr1pGxjPEqZ01K3HO0V7y+b8bhhkYaZIP9KIJHbTS5DOa//nhINONhKyncYe0Xopa0/KTLZNksnJYFUIIIYQQ4pS5fpMlEEI8kXOQWEtfV8BUNWFsIpppVtv670Zrpisx69cWedrFXUxMxxgze7VKJtCMTUV87foByiUf545/qmIt5LOaPUMh3755kLaCj3XukG5LK4VnHDfdNUo2Y3CyAUgIIYQQQohTgoQqQogDcg6iyAHugKOCrXWkFn7xuUtaY5YTO+eBppg3/N9NQwyNheRz3nGvVrHOUi76fO0H+xifjskGBnfIt+XIepqHHq2zd6BBLuPJFiAhhBBCCCFOARKqCCEOSDF3U1xjNFNTMZec3c6G9e1M15JZvz91UMx57B5q8J0fD1MuHt9qFWtb92fvcMi3bh6mmPdwhxyptAKofN5jYKTBvQ9OUy76pE5SFSGEEEIIIU52EqoIIQ5Z6izOOX7p+cuII4tzs6cw1jnKRcP/XD/A+FRENvCO2yYZBxQKhu/eMsS+4ZBCzsO5w7tNoxVp4tj4wCQutRglzw8hhBBCCCFOdhKqCCEOmdGa6VrCxee0c+FZbUxON+fsrZLPeuwaqHH9rSO0lTzccdgjYy1kfc30dMJ/fW+ActHDHW6iQms7VKkUcNumCabqCZlAtgAJIYQQQghxspNQRQhxWJqxpZA1vPhZ/aROYRM3xwFHkc94fPX6fVTrCYGvj3m1inWW9naPb940xJ7hkHzWcAQyFayDbKDZPVBn1546gS+HVyGEEEIIIU52ctYvhDgsntFMVCKe/eRe1izNUQvn6q3iKBd8Hnqkyg/vGKW9HODSYxerWAvZTKtK5f9uHCSX0RzJXTrGtLYB/egno+RzZlFMORJCCCGEEEIcPRKqCHEKOZxmrHOJ4tZ44ldctYxKPUHNEVUoIBsYvnr9PhrN5JhWdDgs5ULATXePsmVHhbaCT7rAJZmrea9yCqM1d22ZJIosnpFDrBBCCCGEECczOeMX4hSgaPU/0Uodtduv1VOedVk3q5cVqDVizCy/K3WOUtFj80PT3HLPJOWSz7EqVvGMJkkdX/rWXgpZH7vAkMlaiGM763YhiyOfNewbDtmyo0Kx4JOmUq0ihBBCCCHEyUpCFSFOYopWg9g4cUxUIuphilGKI52taA21RkJvZ4YXPK2PSj3FzjWOGUXgaf7z23tw1mGMO+prkaSWzraAH94xzAM7qxTyekG9VJLEks1oOtsyRPGBgxLnWtuLRieabHpgilzWIJGKEEIIIYQQJy8JVYQ4iRkNjShlaU+W971pHaWiz8BYSBxbtD6yyYrSmsnpmJc8ewk9HQFhM531e1PnaCsGbHxgilvumaCzlDmqFR3Wgu9rosTyPz8YBK3wPL2AdVRU6gmrl+Z4/ctW0oxmf2zOOYp5nzu2TFCrJ2SMlmBFCCGEEEKIk5SEKkKc5Kxt9VJ5+ZVL+X8f3cCvXr2CZuIYnWgCbtZtOgs+mChoNBP6OgOufsYSpivxrOOVAYzX6k/y1ev3kuIWFHIsVKuXisfdmye5a/MknWWPdAHNVKxzJCk8+YIOnnFpF0GgiWJ7wM4xqYViznDP1mnGJyOCQCOpihBCCCGEECcnCVWEOAUkCQxPhGR9zbtedzqf/cAFXHFxJ2NTMZPVCK2PzJYghaYeWl749F7aSh5haGefBJQ6Oso+t987wcatkxTzHvYohQ9aaTxj+Pdv78P4LChIUkCcWMp5w9Mu6qG96LNqSZ44tqhZjqDGUzSbKT/ZMkE2a3DyFBRCCCGEEOKkJKGKEKcApcAoTaNpGRoNWbuiwCfedT5/8jvncNryIgMjDRrN9HHhyqEEAVpDtZpw+vIiVz65j6lqhJljm5FRGpTiS9/c05oCpI58/JBa6Ch5/GTLJHdvGaec87EL+DXGKCamEp715G76uzPUGimXX9hJo5nOOuNIK9BGccOdo2Q8AzJaWQghhBBCiJOShCpCnEoveA1aKyYrEWNTTZ59WTef+eD5vPO1p5MJDIOjIXHqMGauochzcwpqzZSXPHcJhayhGaWzV6s4R7ngcef9k9y7bZqOUnBEe6tYWgGH8TT//b29RInDD/S8AyOlWlUqmUDxnMt6cc6RpI6Lz23HwazhjHWtsdHb99TYM1wjlzt6VThCCCGEEEKI43iNJUsgxKnH6NZLf3g8JI7htS9ayd9/eAOvuHIpjTBlbDICFIfSy1ZrqNYS1q8pctmGLqZqCXqOI00m0NTDlP/54T48o9D6CB6WLJQLHlu2T3Pj3WN0lHzsAspUNFCtp5y5psQl57QzVUloxpYVvVlWLy3QaMyyvclBPqsZGIm478Eq5YJPKtUqQgghhBBCnHQkVBHiFGZMq+Hq4GiD9qLHH755HZ/+g/O45Ox2RqciGk3HoZSsWGeJY8srr1yGRhGnbtabSVJHVzng+ttHeGh39cj2VlGQDTRf+d4+4ijF99WCxig7oBlZXvC0PgJPk1poNhP6urOcvbZEpXHg7U2O1sSgxKbc+8AkLnWtrU5CCCGEEEKIk4qc5Qtxqh8EdCtcqTUsg+MR56wt81fvO58/+p31ZAK1oCk5+yk007WEC88q8eQLOpmcTtBzTALyPUXYdPznt/ZSzBmcO/zeKtZCKe/x0O4aP7xjlHLBX1BYo4AwcnS1Z3jmpV1M1xO0gtSBVorzzihjlCFNZ/v9jnIh4LZ7J5iqxWQySrYACSGEEEIIcbJdT8kSCCFgpt+KgrGpiKlKxEufs5TVS/NEkWWhO3K0bk0c0mhe8qx+NI4kmT1RsEBbweNHd43y0KNVSiUfe5i9VZyzFHOG/75+gGotaU3hWWiD2ukmVz6lm+72DGHY2sZklGaqEnPR+jYKeU2UHLhnjJ3ZArRnqMGuvXUC38iTTAghhBBCiJPtOkqWQAjxs4zRWAeT000aTXvI44CNgfHpiKdd1Mn6tWWqdTtrjxbnIJfRjE5GfO2HgxQyGqcPfcaztVAqeuzcU+O7tw5RLgWkC+ilooBmbCnlPZ59WTeJdY8FMlpDGFlOW55jWV+WKLazbm1SqvX1gztHyWcMTvqqCCGEEEIIcVKRUEUIcUBGaw63Z2xqLVppXvW8pdQbCXM1aEmto7st4Js3DbNvOKSQNYe8XcZhyWd9vnHjMBOTcSukWUA6pLWiWotZf1qZC89sY3I6wpifLoa1kDrFZed1EjYtapbxRsqB72nu2TpFlFg8T3O8YhVrf/olhBBCCCGEODIkVBFCHDUKzXQ94mkbujj39CKTlZjZWqs4IPANE9NN/uv6fbTl/UOq7LAOchmPkfEmX79xkHLBI11gjxbrHFHsePGz+nAOrFNPuK8WHDzpvE7i1M1azWOBXE6zd6jB5oenKOU93DFKNdLUYm2rUsYYRS6jyeU0uYxujcxWrQqhJLVHdIy1EEIIIYQQpxIJVYQQR+8AoyEMLaVCwC88aynNOJmzUsPhKOQM3755mH2jIYWcz0Kv9621tJcD/veHA4yMheSy3oKqVJSCepiyrC/Hky/oolJPf66+RqFpRCkr+nOsWpIjDA/cV8U5yPqGsemY+x+cJpc14I7umlvbCpY6ygHdHT75nIdnNJPVmKGRJpPVBE9DPmdoL/n0dWfpKAfATBDj5HkrhBBCCCHEfHmyBEKIo0lrzcR0xAue2suX/m8Pk5WI3CxNY52DQt5nz3DIt388xOtesoJaI2a++a+1kM95DI+GfPPGQYp5s+CJ0EYrpqoJv/S85XS2BQyNNTFP/PUaGg1Lf1fA+tNKfO/WYfpz2QNOSnJAMau4/f5JXn7VMjyjj1qukqaWQt6jkPO4/+EKN989xh2bx9m1r0EcW5xrhUaep+nvCli3usT568qcuabEulUFMoFmspIQRRbrLEZL7i6EEEIIIcRcJFQRQhxVWreavvZ1+Lz0OUv45L9sJ5/zZh2b7JyjrWj47+8P8JJnLiGb9eZsBvu4n8VSzgd8+aa97NpbZ0lvbmENahWEzZSOssczLumiGR24TEYDibN4RnPu6WW+f+sIs5V4pKmjUPDZuHWa8emY9oJPLUw50nmFtdDZlmFiOuYv/3Eb37llhFojoVTwCHxNPuv9zPdaBkaa7Nzb4L+v30dX2WfdaSWeekEXz7u8h96uLM3YMl2NAYVkK0IIIYQQQhyYedtrLr5WlkEIcTTtz0+W9+f50Z2j1BsJvj/7lXrGNwyONOnpDrj0nHYqtRh9kGlADvA9RWoVf/yFB0lSi+8tLA0wSjFVS7h4fQevffFKxqaamFl/b+vPC1nD928bwSo1a78YoxWVWsra5XnOPr1EI7QodeTW11robg/YsmOa93zifm7dNE5H0aejLSDwNVqpxyYRKdVqxJvxNYWcR3vJx6HYPVDn9k0TfOvmIYbGmvR3Z1mztIDTjii2OKeO6H0WYj6UgihyRE170GOAEEIIIcTxIJ8/CiGOOqOh2khY0Zflqqf2Uqkn6Dmu0B2ObFbztR8MMF1NyGb0QafWpKmlq5zhe7cOsWtvjULOZ4H9abE44sTy0mf3ESUpuNnvo9bQCFPWrirS2xXQbCazhg5aKbRx3PiTUbK+aTW6PULS1NJe9njo0Sq/92f3MzgWsqwnh/EUSepmXTfrWhOXktTheYqujgzdHQHWwZe+vZff+MhGrv3sVoZGWgFLJqOloa0QQgghhBBPPNeXJRBCHJODjdJMVxNe+qyltJd8wiiddUuPc1Aqejz4SJXv3z5CuRRg55gEZIFMoKnUEv73+n0EvlnwlhWtoBomnL6ywIb17VRryUEPkKltVaFccm4HUeRmnRhtnSMbaLbvqbN7qEEu6x2R0cbWQi5rqNdTrv3MVqZqMZ1tAal1CwqUnGttU3IzI6CX9GQxSvG/Pxjkmus28pkv70I56O3MPvZ7hRBCCCGEEBKqCCGO1cFGt6bqrFyS4zlP7mWqGs9ZrYKDQsbjf74/QCNMyASzBxHOQrngc+t942zaXqG97B+waezc90/RaFhe/KwlrFleJLWQHmSks6XV0PUp53XQjNNZJ/s4B/msz8BIg/senKat4B/0tudFQVsx4Iv/+ygP7KzRNROoHK40dfiBpr87i8Px+f/YyVuuu4cf/WSU7o6AQk4veH2FEEIIIYQ4Ka9zZAmEEMeKdZawmfKyZ/eTzxgSN3tvEeegUPS4f8c0N901Rrkw+2hko1sNbr/87b1kAz1rE9w5gwTrKOYN/3v9Pv7xfx+lWDB0t2dbVRx2toa1mmbTsXpZnmW9ecLm7I/H6FZYsXHrJGlqZ+2/Mu+1tFDKe2zbWeFrPxygq80/ouOQnQNrHRnP0N+TZfdQyHv/8n4++KmtTFVj+royj90PIYQQQgghTlUSqgghjhmjW1t0zlpT5GkXdbNrTx2jZm+AaoDAM/zndwew1uJ5P38Rn6aWznLALfdOsOmhCqW8xyFkKjgH2YxhcLTJh/52C7/zx5u4a8sEPV0BbYUAa93PFaJoDfVmSl9XlrPWFqk0klkb21rrKBcDbts8wVR97sqbed1fIJ/T/M8PB6jUErIZc0iPez6/x1pHe9Gns83nWzcN8Zbr7uV7tw7T3RmQzWik1YoQQgghhDhlr3Fk+o8Q4lhyDrTWnLY8z/BEyIOPVHEOMpkDZLwKAl/z6L4661YXOOu0MrX64ycBGaMIMppP/cvDPDrQoFw8vIqNINCUcj67Bup8++Zhdg/VWbu8wMr+PHFiiWML/DQISlJLd1uG3QMN7tg8QXGWUMfN3NfhsZCnXdRNf1e2NSr6ECpWrG0FKuNTMZ/+tx0o5TDm6GbkrvWoKRZ8qvWEb988zNR0wmXntVPIGWrNdO7tXEIcApn+I4QQQojFTkIVIcSxv0iKLV3tAS98xhKW9+V48JEae4dCjKcI/MdXXHheqxdLpZpy5ZN7iNPW7BxFa1tOe8nnvgem+NyXH6GzPYM9AuUaDijmPXxPcd8D03zvlhEaseW808t0tgdESUqStprbKhRKWYLA8IPbhnG2FZ4c8IBrIGxaCnmPZ17SPa9R0Qe8fw5KBcNd90/yle/to7Mtc1SqVGb73Vlfkw00d9w/yV1bp9iwvo1lfTlq4ezNh4U45OOFhCpCCCGEWMRk+48Q4rhcKFXrKdOVmBdc0ccXP7qBt7xqDZ4xDI+FWOseCybSFDrKPrdvnuCeByYp5QP2TyTWShP4mi99ex+t6pEjlyykqUNrRW9XFgt8/ss7ecMH7+abNw1Rynm0l1oVKQ6oNSxnrynS3ZYhTma/D8opPKO5Z+skzdjheYd+CDZac9t9k2R8g+LIPO75XrKmDpRW9Hdl2Lq9wm98+D5uvmuM/o4MCpDdQEIIIYQQ4lQhlSpCiONCKUiBWiPBU4YrLu7iqRd2Um0kbNlRIQwtuYyHUmCUptG0TFdjrr6ij1qYYp2lvehz/44KX/jKLgo5D3UUtp+0xgwrigWPyUrMd28Z5v6Hplm1rMDaZXm0UlTDhFLeZ8feGvdvr1DIzdLfRIFWiulqwoXryyzrzdMIkwV/Aq8UZLKav/33HTSaKYGvDzlW0Wqmska1HqsxCq0VCg56m85BKedRC1O+++NhykWfJ53fTqNpsSnIbiBxJI4TUqkihBBCiMVMQhUhxPG7YKIVMqTOMV1N6GrPcNXlvZy/ro09gw0efLSGUYpMVuN5ip37Glx4VhtrluSoN1LaSj6f+fJO7t9eoa3kH9IWGKXmd/HvXKu/Sz5r2Lm3wTdvGGRgrMmZa4os7cnMbGtyfPPGIUpz3JfA1wyMhqxdUeTSczuYrsWzNrc9EGsh47f6qXzpW3tQSs263Wgej4pqI2VkPCKKLHHqGBuPqDZSQOF7qlVNM8e62pl10Rq+f8cozimefnEnUdOSWglWxGEeIyRUEUIIIcQiJ6GKEOL4XzgBWivCKKERWtYuL3LV03pZ2pNl244qe0dCihlDGFqixPLMS3rwfcOOfTU+9W/bKeb9Q9vLqKDZtFjn8D09z1BGUch7eEZx97ZJrr9thCR1XHBWO/1dWb518xBRbPFmCzoUWKtwOJ55aRcubVXszHvrjbUU8x5bd1b4zi0jBL45pOAitY7x6Ziz1pS45hWr+OWrV3D10/t59pO6OW1FgalKwuBoSK2eEGQ0np57k5FnNBlf8+N7xgjDlGdc2k0U29ZWIXmKi0M9NkioIoQQQohFTkIVIcSioWfGK9caMc7BRevbueryXhSK+7dP04hS9gyEXHFJF2esLPA3/76T+x6coi3vL7iPh1JQr6cs682Cg4HhkELOYOYRrjgHSilKeZ9GmHLjXaPceNc461YXGJ+OefjRGvncLFOAHPi+YvdgyNVP66OQ94hjN+9gxFpHR9nnri2T3HDnGIWsWfA6p9YxXUl448tW8YG3nsl5p7fR35OhrzPDaSsKbDirjRc9YwkXrC9Tb1gefKRKM7bkDvK7jFbksoYfb5wgSS3PuLSbMEywVknFijgkEqoIIYQQYrGTUEUIsehorUhTqNZjshnDM5/UzWXndTDdSLl90wTOKS49r42PfGYb2Yw5pIstrRUTlZjfe8M63vrqNQyMNtm2s0LYtORz3rxuoxWQaEoFj8GRJj+6c4RaPSW1DjNHiqC1olJNWLuiwNmnl6mHlvk+hDR1dLQF3HTnGHfcNzHnVqPZfvfYZJNfvnoZ73rt6UxWYqaqEbV6Sj1MqdYTGk1HnFpWL8vz/Mv7OXddiZ176+zcXcfzNb6ZvWpFa0U+a/jxPeMYrbji4m7qYSpPanFIJFQRQgghxGInoYoQYtFeTGmtiBNHtZ7Q353l+Zf3cebqApsfqvC/Pxhg10BIe9vCe6koBbVawrK+LG959WrKRY8rn9zLOWvL7B1q8NAjNYxujXdmnv1W8lmD0opGMyVjNG6OnzMaGlFr29ELr1hCpRbN+4LRWkdne8AP7hjm7q1TtBf9eW+x2T91aeWSHB/57bOp1BKi2D3WnHb/1/48qB4mhE3L2hVFnv+0XnJZj41bp6mHCbmsN+u6a6XI+oab7xmnpz3Dxee2U60lR6WRsDj5jwMSqgghhBBiMZORykKIxX2Q0q1wZbIaMTrZ5Kqn9PFHv30WT7mok552n6GRkDi2C2rWqoF6s9X3o7scMDwaMjYZcdl57XzqD8/n99+8jlLBZ2isddvzuZizzqGBwJs7UGl9L2QDw/ZH6+wZbpDLedh57l9SCuLEUq9b9AKP4BpohAmvumoZ+YwhbKZz3obRGhSMToREkeXNL1/Fp37/PJb2ZBmdCGcd5ewAz9eUioY//+eHuP3eMbrbA6yT57MQQgghhDjJrldkCYQQJwIzc/U/MhFineJNL1vNP/7JxbzqBcsJI8voeBOYe9vNflHqyGUMVz+9j+laimdaFSmjkxGNMOUVVy7lix/ZwGtetIIocYxMzO+2HcyraqZV2aIZGGlw34OTtBd8UjfPVEWDs44otQtuABslllLR46kXdVGtpyg1v7cAYzRJ6tg3EnL22hKfv/ZCLr+wm5GJePZgxTlygcFZuPaz2xgYbVLKG9LUypNZCCGEEEKcNCRUEUKcUIzRNGPLwFiDbNbw3tedzqc/cAFPubCL0cmYyWrc2sIy688rpioxT72oi5X9ORrN5LFqDWM0cQJDYyEZX/OO157O5z54Ac+5rIfxqZjJavS47TGH9Ti0IrWOjQ9MkziHmWfAodGktrUNSC2gVMUYRaWWcPHZHbSXfMIoXXCli9GKkckmmYzHx95xDs95cs+cwYp10FbyGBtP+JO/exCjFb5v5l2VI4QQQgghxGInoYoQ4sQ7cGkwShM2LIPjTc5cVeTPf/c8/ujt61m5JMfAcINmlB4wAEmTVv+RK5/Si6cN8RMqJ7RuhSuNpmVoNGTNsgJ//Pb1fOJd57JmeZHBkQaNMD3scCW1jrZCwG0bx5mqxGQyet5hgwPcAoOJ1pYny1lrihRyhuQQK0Y8o6lUE+Ik5cNvO4tnPqmb0akIM8sWKWuhq9PjlnvG+Kev76a7I5AnsBBCCCGEOHmuTWQJhBAn7AFMt5qiTlYixqeaXHlZL5/54IW847Vr8XzD4GhImrrH+q0Ypag2YtauLPDkCzoYn25ijJ79tmd6uYxNxjz14i4++8ELeM/rzyCb9RgeC4mThfVy+VnOQTar2TsUsnNvnax/dJtwJtaRCRQr+7Kk1sFh9DcxBmqNhCixfPCtZ3LWmjJj09GsE4ycVXS1Z/jHrz3Kxq1TdLR5sg1ICCGEEEKcHNcksgRCiBPd/n4rw+MhAL/+4lX83XUX8NJnL6VSSxidjACHMtCMLFdd3kd+plpDz/O2R8dDktjxK1cv5x8+vIFXXLmMsLmwXi5PpBQoDT+6c5RcxsO5oxM0KAVJCsWCT1dHhmZk4TAzHGM0tbol62s+8JZ1lHIe9WY6a/VOEGiSxPHJf9uBtY7Al7cfIYQQQghx4pOzWiHEScMYTbNpGRxt0NmW5YO/sY5P/+EFXHp2O6MTEWOTEaW8x5VP7qFSTVDohd12bBkcDykWDO990xl85v0X/lwvlwVx4Huau7dMEUYWz9NHrd9IklrygaGjHJAkFq30EVhvGKvErF9T4vUvW8V0LZ61Ua+1js42j41bJ/nGj4boKAekqTxnhRBCCCHEiU1CFSHEyXVQ0/urKBKGxyLOO7PEX7z3XD7822eR9RVPuaCDJT1ZwuYhjCSe6eVSb1iGx5usW13gz3/3HD7622exoj/H4EhIFKdzNsr9WQ7I5TT7hmvcv6NCKe9xNKYOK1q9TXxfUSx4JEcwzPC0Yniiycufu5QNZ7YzXZu9WsU5RTHv8Y9f383IeJN87tBDpFS63QohhBBCiMVw/SFLIIQ4KQ9uurXtZWwiYrqa8MKn9/PFj17M61+2inpk5zX6eK7b1koxUYkYn4q56il9fO5DF/Bbv3waRhuGR0NS6w7ab8U5yPqGsemYTQ9Oksvqg3agtVi0ak3zcfMNFhRYa/E9TTbQRzyQiBMw2vH6l64iaiYoN/vjLeU99gw2+K/rBygX/UP6ezAGykV/5nHJc10IIYQQQhzH6w5ZAiHEycwYjXWwb7hJZ5tPT2dAvZ4suErlgLf9M71cHIo3vHwVf/fhDbz4Wf1U6gljk61+K3NxQDFruHPTFNVGimcOcsdsqzrE939mkPE8gwmtwDcz338Ej/4KmKolXLS+jQvPbmeyEjFbnpQ6R3vJ4+s/GmRoJCSfnX+1inWQCTRT0wnX3zpKT3tAqeBhrYQrQgghhBDi+JBQRQhx0lO0KjvCpiNsusMahXwgj/VyGWnQ1eHxwbeexafedx4Xrm+nUk+ZK/VIU0eh4LPxwUnGJiOygZkzIHCuNdY4m2mFCfM5iquZnzNGobXBuiN78NcamrGlkDc87ym9JCnYOe5/LtuazPSNGwcpF3wc80tEnIPAV1TqCe/+xGbe+5db2DPUoK87IJfTMlFICCGEEEIccxKqCCFOnQOe5ohUqMx228ZoajXL0HjEhrM7+MvfPY/1a0pUailzFaB4WtFsWu7YNEkme/A7mDpHMadRWrXSi3k2cHGuNW3oaDBKM1VNuPzCTtrKAc2mnTW8UjPByrdvHqbSiAn8VjXRPB4CzkE+p2krGX545yhv+tA9/PW/7KDZtPR1Z9EKCVeEEEIIIcSxu8aQJRBCiCN4UJ0JbvaNhJQLhrPXFqk1UuYqj9FKoTXcfNcomUDNWbnRGo9saS9n8I0idQ61SB532LQs7c1xxqoCzXj2hrWpg1LBZ+e+GjfdPUZnObOgPi/WgtKK3o6AwNP809ce5c0fvIf/+f4AhbxHd0cWnGwJEkIIIYQQx+A8WJZACCGOPM9AvWm54Mx2CjlDms5eimGdI5vVbN9dZ/dAk1zWmzMQSGLXChR8vaiCA+dagc/lF3bRjB1zzUBqVe4obr5rjDix+Gb+b0f7bzVNHZ6n6OvKMjYd8dHPP8DbPnovP9k8Tle7T6ngkaZOwhUhhBBCCHHUSKgihBBHgTGaai1lw5llSkVDGNk5Rg1DPuMxMNpg04PTtBV80lmmAGmtaSaW7s4MgadJUju/HjGKo17RYrE45zhzTYHUzt27Jkkd7SWf2zdNMDoekc2YQw4/rHUU8x49nRm27qjw9o9t4oN/u43h0QZLurPkMtJvRQghhBBCHB0SqgghxFGggCi2dLYFnLWmRBSlc4YMRisS67hn2yRpaplrGnOzaVnRnyWTUaTp/O+TdWDd0QsXNJoocXS1tapoJisxnqdmfdy+p5iqxNy9ZYKsf3iRz/7RzB0ln7aSz7dvHuF1H9rI576yi8Q6eqXfihBCCCGEOCrnwEIIIY4KCyTWcfn5XTQii5ojVUmto70QcPvmcaZqCZnMgbcAaT1T5VH06WwLiJODV6o4Wr1YrHUkiUPro9NvRGtohCnd7QHvff0ZlPKGgZGQKLYY/fN3UqvWJKMf3ztBJmNwRyDwSV0roOrtDNDK8dn/2Mk1127kWzcOUip6dLYFWCdbgoQQQgghxBE6B5YlEEKIo0NhSVLH+WeWyPiaJJn9St45yAaa3QMNduyukfX1nN+bWli/pkySzG9sjqL1M3HsDumxpHb+QUycWF767CX84x9fwi9fvYIksQxPNAGHmUmAHK3KGd9XPPhIlalqjO8fmbckRytACjxDf0+WobGQD356G+/82Gbue2ia/u4shZkRzBKuCCGEEEKIwyGhihBCHCUKTT1M6O3KcubqItV6ipljX48y4BvNDXeNksvNXbnhcJxzepEwSeesgNkfMhijiRNLPUzwFtIUVoFnFB1lj8w8e5NYC8OTIdms5j2vO53PfOBCrriok7GpmMlqhNaK/YUrmYxhfDLiwUeqFDIeyRHenmOto5z36ekI+MnWSd7xJ5v48GcfYHwqob8nN+/HJIQQQgghxIFIqCKEEEfrAKshjCw9nQFnn16m3kjmbBarnMIYxd1bpggji+cd+BDtsKSpY93qEr7R86pW0QqacUq1luKb+fUvsQ5yGc2t903wxf96hGzG0N3eGld8sBHIRmkaDcvQaMhpKwp84j3n8/F3nsOa5UUGRxo0mq0wKONrJioRjww0yOfNY71RjqTUOUDR3RaQzxn+9/v7eNO19/AP/70LZx29ndnW90nZihBCCCGEWOg5vyyBEEIcPQqIm44L1pXIZg2pnWO0Mo5CxrBvOGTLwxWKef+AVRQKTRim9HVlWLs8T6OZHLBnyWNcq1IlDG2reazR2PkECA4yvqZai/no5x/kbR/dyO2bx+nq8GkrBtjUMVcGojVorZisRIxPNnnmJd189kPn865fP52MZxgaDVuNZ1A8sqdGakHpo/e2lFqHMYre7ixJkvLX/7yTt3x4Iz+4Y4SuNp/2UoC10m9FCCGEEELMn4QqQghxNA+ySlOpJ2xY304p7xM25x6tHGQ0Y5NN7n1gilzWcKDre60hjB09Xa3JQtXa3M1qHeB7UKsnjE1FZDKK+RaEOBTZQLOkO8NDu2q88+ObeP8nt7FnqEF/T5aMP9ObZI7bMDNByfB4SBzBr71wJV/86AZeftUyqo2UepiwZzikGaZ4R/ldybnWlqCMb1jal2XvcMj7/noL7/7E/Wx/tEZ/d5ac9FsRQgghhBDzPd+XJRBCiKN4kNXQjC29HQGnryoQxXOPVrbOUcz7/GTzBLVGTMboAwYW1lmwiovObsfz1ZwVMA7QShEljoHREKUUCxlgbGeCiPZyQEebz3dvHeKaa+/lb/59J0nq6OvO4s1jXLExmii2DI42aCt6/P6bzuBv/vA8nnFJN1u2V6jUYzyjjkmYsb+ZbXvBp7vN58cbx/jNj9zHx/7uQeqNlP6uLL4v/VaEEEIIIcRBzvdlCYQQ4ihfwDtIUnjqhR00QstckYa1UCwY7nlgmrHJiCDQHChVMUozWYm57LxOOooezWj2ahVF6yaygWbX3jphM521X8tc0rR133s7syjl+Puv7uLNH7qbr/9wkGLe+5l+K3O86ehWuFJrWIbHm5y1usin/uB8fuuX1xDGM2OKjuE702P9Vjoy+AF8+Tt7ecMH7uE/vr2HbKDoln4rQgghhBBiDhKqCCHEUdYaH+w4f10bnqdJ3UEqOrQiilLu3DxJNmsOuFVHa4hiS29XwAVntVNvpHNWnzjryGYNDz1SoxFa/EOsCNlf4ZEJNP09WUYnIq797DZ+52P3ccf943R3BpQLHul8+q0oxdhURKWW8Kwn9VDItZruHo83Jmsdvqfp685SbyR8/Ivb+Y0Pb+Smu8bolH4rQgghhBBitvNaWQIhhDi6FNBopCztybFuZZF6w845Wlkr0EZxw52jZDwDs4QwzkGcWF7w1F6accpc+4pak3wMO/bWGZ2M8H19yI9l/++21lHIe/R2BGx8YJp3/ekmrv30NkbGQ/p7sgRGkdqD9FsxGuegUktJ0qP893CQPU/7H1Mua+jvyfDg7hq/9xebee9fbGHnnhpLe7LkMtJvRQghhBBC/My5uyyBEEIc5QOthjBK6eoIOGttgX3DDeLYomeZ2GMdZAPDjj019gw1yOW8WS/iG6Hl3HVtnL6yQLUeY+ZIDoxuJQc/uX+CTKA5lOnF7gBBBCi62wPKBZ//u3GQa667h8/+5y6UUfR0ZFr9VuzB10gdxb8D5yBJZl/zJ36vtY7OYkBXm88Nd43ymx+9lz//x4cJI8uS7iyeh/RbEUIIIYQQEqoIIcSxoJRmqhrzples5jd+6TSiyDEy0QTczwUhzkE+qxkcjbj3wWnaC/4BtwxpDY0wob874JmXdlOppXMe1ZVSaK248e5RAl/vT0QOFjHg3EwvFDV78JGmDq0VvV1ZogS+8OWdvO4P7uY7Px6mveTTXvJmworjs/6pteRzHiPjIUni5qwUeuxnZvqt9HRk0Frxz1/bzRs/cA9f+f4A+Zyhuz3AOem3IoQQQghxKjNve83F18oyCCHE0aUUJIkjGxie/aQennR+OxNTMVt3VokTSy7rPfa9DvCMYroW0dXm85QLuuYYxaywTrG0J8P3bh0lTSyeN8fWIhRTlYTLL+yis80njFL0LNUtzkEm0GzfU+MbNwwRBJogMHNmMc6B7ymKBY+pSsz3bh1l845p1izNc9qyPEopwmaC0mrBlSmtCh7NdDXhv64fIJ8x81776WrCX/zuuXS2Z7hryyS1Rkouo1FqfpUrnlEUCz6VRsIPbhvh3gem6e/Jsm51EaM1zWYKh/CYxMH/7qLIETXnV2UkhBBCCHGsSagihBDH8AIxto5qLWFJT5bnPbWX9WtL7NjTYMeeKsYoAs+gVCtA8LRmZDLi+Vf04futJq5PzACUgji2LO/LsWugxqaHpikW/FmDj8DXDIw1Wd6X5dJz26nUklkvVpVq9WxZu7LIqmU5HthVY2AoJBOYVk+Wg4QrQaDJZTXbH6nzzZsGGRgLWb+mzLLeHM3Izns7zn6HGqpoBZPVhDe/YjUvemY/G87qYHwyYsv2Sus2M/Mr2nSutX6FnM+jA3W+dfMwjw7UOX1liZVLc8SRI05TcAol1/9H7DUjoYoQQgghFjMJVYQQ4lheJNLahtNoJjSbjnWrSzz/qb10tPlsfbjCyESTwDP4nsZ4ioHRJk+7uIulPRmakTvgxbpzYIxiaU+Wb/14GKUUZraghFYWMj4Vc+XlvSilSVM3awjgZm7/krPbedaTevE8zaaHp5iupmQyeh4Xuq2qFaMUd2+d4vrbR8A5zjm9RHspIIxSrGVeIcThVKrUGgkveuYSjFF0tQc872l9rF1R5OE9VR4daGCUOmgVzs8q5D18o9j04DTfv32URiPhvHVlOtp8osiS2FaYIw7z9SKhihBCCCEWOQlVhBDiONCq1aCkVo/RSnPpeZ087/JeEgubH56mWk/I5zzixJLPGp5xcQ+VenzAC0ulIIwsa5bl2TPUZOO2SYr5A1erOFoVJI/urbNuTYn1p5WohemcAYB1UKnFFPKGp1/cxRUbuhifjtm6o0KaWLIZM2eXWedAaUWp4FMPU3501yg/vnui1bh3TRHfaMLYHjRYOZxQpdpIeNXzllMu+kxVYpLEcc7aMlc/rY/2ks/926cZHY/IZgyepw8arjjXCseKBZ8oTrnlnnF+cOcoxazHeWeUCQJNM7Iz3yfPdwlVhBBCCCGhihBCiCNOa0WSOmphTC7n8ZxLu7nonA6GR5s8vLtGI0zBwdXP7CdJ3KxVHdaB0YoVS3J878cjODd7M1Y1M41n30iDq6/oJXWOdI6JzGrmfkaxo9ZI6e7I8Lyn9nLW6tbWpV0DDZSCzDz6rQS+ppT3GJmI+PbNQzz0aJ01K/Ks6s8THWRU8eGGKq+8ahnlgkecgJsJtJRSXHZ+J8+4tIdm03L/jukF91vxPU2x4DNVibj+tjE2PTTNyqV5Tl+en1k3K8GKhCpCCCGEkFBFCCHE0bpw1EoRx45amLCiN8fVV/Rx2vICOwfq3PvANE8+v4NVS/PUmskBxybrmWqVVUvzTNVibts4QangzRpyZALNzj0N+rozXLy+neosVTBPvJ9KQTOyNOOUdWtKvPDpvXS3B2zZPs3gWJNcxuBpNee45v0NcHMZw4M7a3z9hkEmKzGXntOBs27Wnz0SoUqp4BHFDq1aQVGrCiehvRzw3Mu6uficDvaNhDz8SBUcZBbYbyWX1ezYXeNbNw+xdzhk7YoCbUWPJHXyRD/E14aEKkIIIYRYzCRUEUKIRXQBqZSi3kxoRjPbU67ooxEmNCLLhevKhE0361Yd58A6x9mrS9xw9xjT1Zisbw4YUigFSsPW7RWe8+Qeivlg3hUV+7+nVo+xwKVnd/LMJ/ViU8fm7RVqYUoQzKPSQykKBQ+c4ydbJnnZc5aSy2viePZqnCMVqvzs7WutCKOEemhZ1pfl6it6Wb4kx4O7quwZCvE8TeDrefZbafWQ8bTi7i1T3HDnKFc/vZ9MRpMkshXoUF4TEqoIIYQQYjHTsgRCCLG4GN06NA+PhzgHv/v6M3jhFX1MVVPMHEdtraFWT+juCHjLK1ZRb1jsLEGAc1DIGQbHQj797zso5BVKL6yawhhNmsLgWIO2ks/vvXEdn/vgBVxyThthOL+AJk0dntF0lDL4nuJ4DSU2WqMUTFYSKtWEF17Rz99/+CLe9Iur0VoxPBZi7exbqp74mLRW9HZnmawkxInDKHm7FUIIIYQ4GclZnhBCLFLGaBqhZWI6QRuF4+Chh2c0o5MRz3tqL896Ug+jkxF6liO9tdDVnuVbNw3xX98foL8zS2rdId3PWj1hcLTBhvXtXPPKNVTqyYIqC1JrWQwbZIyGxMHQWIjSit/6lTV8/oMX8IIr+piqJK31ZH4jk23qCHzVWn8pshBCCCGEOClJqCKEEIv5IK1bX24BiYO1EDZT3vHa0+jpDKjWUmYrsNDKUSp4/PU/b+f2TeP0dWZIE3dI9xMFlWqr0sMuNJxZRKGDphUURbFlYDhkSU+OD//Wev7qvedy/royQ+MhtUaK1mpeE4uEEEIIIcRJfL4uSyCEECfZgV3DdM3S353hHb92Go1mSmIPnFs4B7mMwTnFB/5mG9t2VejtzpAk7pB/t9JqwSGJWoRvSArQRjFdixgdj7j03HY++fvn8QfXnEl70WdwLCSKpdeHEEIIIcQpfe4tSyCEECcfz8DYZMxVl/fxK1cvZ2SiCerAQYl1UCoYKvWY9/7F/Tz0SJW+ngzpMZxY4wC7SNfSaA0KRicj6o2Ulz13CV/86AZ+/SUriBPH6EQTcAecyiSEEEIIIU5uEqoIIcRJSgETlYi3/tJqLju/g5GJaNaqCuugreAzNhnx7k9sZuOWKZb0ZHE4rD0291UdozU5VMa0JvgMj4YEnubtv3o6n7v2Qp5xSTfj0zET1egJW4Jk748QQgghxMlOQhUhhDiJRVErFLn2rWexakmeyelo1glC1kFb0WeqmvD2j9/Hf1+/j76ODLmMJk2PXrJyrKIHa/cHRIf+G7WeaSDctAyNhqxZmudj7zibv37veaxdUWRwpEEjnOm3ItuChBBCCCFOehKqCCHEyXyQ11CppnS2B1z3tvUUcj7T9XT2iUAOSnmD5yn+6PMP8EdfeBAL9HRmgdaUnhOR0opi3qOQ9xbeRHeWddVaMVmJGJ+KufScTj7z/vN5z+tPJ5vVjIyFxLGd1whmIYQQQghxAp9vyxIIIcTJzRgYn4o49/QSH/6tM3HO0Wiks06usQ6ygaGjHPBf39/HGz9wDz+4Y5SuDp/OtgAcR7Vy5UhztB7PP37tUfYNN1jam8Mz6og8hp/2WwlJEviVF6zk/330Yl5x1XLCKGV0vHlEQhwhhBBCCLE4SagihBCnwsFeK4bGmjzlgi4+8rb1xKmj3pi9YsW51s/0dmUZGg95/1/fz9s/tom7t0zR2e7T0ZbBzYQrj8sMFmF+4BwUc4b/+v4+3vTBe/ji/+zCM4rezgwoOBL5kDGaZmwZnGiQzxne98bT+ewHL+Tpl3TTjKy0VxFCCCGEOEl5sgRCCHFqaAUrIc++rAcHfOhTW6nWU4p5M2szWmsdpbyHyzruuHeCOzdN8sxLu3n185dx/hlllFFUqwlxah8b37MYW4kopejtzFJrJHzyX3fyvVtGeOMvruYZl3aRJI6pSjKzRoezvgCaRsPSCJucubrIx955DkliCaP0sG5bCCGEEEIsThKqCCHEKURrxdBoyLOf1EPm3Zpr/3Yrk9Mx7eVg1m0qzgFK0d2ZIY4t198+ws13jbPh7DLPuLSbp23ooqPs4ZyhXPQwRuEtwl4i1jryWUMh5/HoQIP3/eX9XHFxN2/6xZWcfXqJat1SrUUYow9zjQEUE1OHf1tCCCGEEGJxk1BFCCFOMWqmYuXyCzv5q987n/d/agt7h5t0dwRz9v9IU9faEtSZIUost2+a4M7Nk3zqX3ewqj9Pf08GlOPhR+qU8h5puvj2vDgHzjlKBY9iznHz3WPcuXmclz17Ka96/lJW9OcYnYxmmsweXiAigYoQQgghxMlPzviEEOJUPPjP9Fg5c02Rv/r9CzhzdYHB4RCl1KwNbPdLU4enFT0dGTrKPr6n2DVQ5+a7x7n5rgkmKjGZwCzsDh3j/GV/9U1PZ0AmY/iX/9vNNdfey5e+tY9C1tDdmQUFJ+iwIyGEEEIIcazOq2UJhBDi1GS0Ymwyorcj4FN/eAEvfnY/IxMhzShFH6QxSqtJrcM58IymmPv/7N1pmFbVmS7++1lrT2/NxSAYBZzFAYygESKDU+KUmM7p7tPDSceUA1MxqVFjjIJoOoMDChQUKNJ0PN2dfzo5HdPG7qQzCKg4FCokajqDCiogQ1HjO+21nv+HF2yTGGUooIb7d1350KEvYy3ed+9n3bXXvS1qqwLUVgVIQvOhwcweAkChpbtR6f84pPYERB8ZkKAjl+IbK36Na+94EU827UC/qgiV5QG8MlwhIiIiovfHUIWIqC/fBIygpS2FFWDOtOH40jUnoeiA5pY87D40znotvUXH9dAX3aS7+1YG10b43aYO3HjfL3DLfb/Em1s7MahfjExietRrpImIiIjoEM3TXAIior7NWqAz57GzuYC/+MRRaLjlDBw/pAKbt+WQpvqhT630FB/29Ixq6QVGNRUhaqpC/KxpO66Z8wLmf+s3SFPFoAEJjAHDFSIiIiJ6F0MVIiKCMaVAYev2HIYfV46Gr5yBa/7iGORTjx3NBQhkr4/0dEeqQGfWQeTDwxWngJFSIW8UWHzr3zfh6ttfwHf+822UZwL0r4lKAQyzFSIiIiLO0VwCIiJ696ZgBDvbClAA9X9zLJZ85QyceWo1tuzIoaMzhTHokeFKMfU4fkg5djYX0N5Z6ozZq0LeQDC4f4Ltu/L4xvJfYebfr8cLr7ZgYL9S34pzynCFiIiIqC/Pz1wCIiJ6LysG+bzHlm05nDC0HPffNAJzppyMfrURtm7PozPnEPSgI0EiQEfOYe604bhr1imoqQrxzo4c8gW/V0ebvFdUlQU4ol+CDb9pxayvb8DtC1/Blu1ZHDkgQSZm3woRERFRX8VQhYiI/vjmYEpPrexqK6Ajl+IzFxyJf7hrFKb+9bGoyAR4a1sWhaKHCGC7+aMrAqBYdPDe4zPnH4kV887EF/5sKFQV25rzAPRDfwanpQLefpUhKssCPP7kVlwz50Us/dfXUSwqjhiQQPgKZiIiIqI+x9b/3ei5XAYiIno/RgTOAe2dRQTG4twzB2DiWf1RloT47aZ2bN9VhPOKJLYwRqD7+OofAeC19GrmP//ERxAGBqnT9z2a4xVIIoPW9hTf+8lmlMV27/43BGjPpvizC4+CEcBDcP7HBuCckf3QvKuIV19rRzH1yCTBh/6zFKWwqaIsROo9VjftxJoXdqC6IsApx1UhjgyKKZOVriICFAqKQt73msJkIiIi6l0YqhAR0YdubI0ROFW0tRdQWRHg42fW4vKJg9G/OsLmbTm8/nYncnmPKBRYW/qP4INfr6z4n1DFwODPLzryoIYq//vio1BdGaIz59DRmWJw/wSXjD8Cw4+txOtvZfHbTe2wRhBFH/7PVQWsMaiqCNHcWsCPn3oHL7zSimOPKsfAmhDMVbrus8dQhYiIiLqzgEtARER7tcEFYK1BZ9ajM+sRhwafv2IILhs/GC+8ugs/e3Y7nnxxJ1qaCwCAskyAssQgMAIPQFV/P2URIBBB6oDWjiKcBxR60H8OA4ExwK72AqwYfPzM/hh1SjV+8MRWPPLvm7B5Ww79qkPEoYXzH/zv472isixEVUWI1eu2I4oFd193GlB0/MAQERER9QEMVYiIaJ+Y3W1chdTj7XdyiOMA5509EBPPGoDN2/P4+XPb8OIrrXj9rQ68vrkTxaJHEhmEoYE1BmJK3SPOeWQLDgbAx0b0QxAAB7vv9b0Rid39g2zfmUMUBfiby47GxLMG4FuPbsQPVm1BW4dDbVUAKwbuA841Oa8IjKC6MkBZYiHCJyqIiIiI+gqGKkREtF9ESk+uFAoe2/I5WGtQXR7g7z49BFd+2uDNdzrw2ltZvPF2Fm++k8Wbm7PYvqsA5zyCwGBgvwgnDa3EmcOrMfKkSqgKOvPu3dDmULHWoFj02LIti6ryAF+65kRcMn4wln/3NTz1wk7EsUV1ZQj17/8czZ4MxSv2uVOGiIiIiHo2hipERHRASiFIKQnJFjw6tuUgAlRkQowZkWDsyH5w6uEc3g0mBKUSXBsIFEBLWxFOgcNVm7HnZ+jIenTk8jjlmHLcd9MIPPH8Djz03dfx6u/aUF0VoiwJoLuLdf8Qn08hIiIi6nsYqhARUZcxAhi7O2DJe3Tk0t3/vYEx+L0CWtXSMSBVD7EGpjv8+xsAEOxsK8Aag/PPHoCzT6vB93+2Gd/6wZt4Z3sONTUR4sC827fCp1OIiIiI+vD8yyUgIqKDcoMxQGANAmvePdKj+j//2fP/Y7tJoPJee/pW3tmZgwfwd58eiofvOhN/dtFR6Mw6bG8pAFBYEbBChYiIiKgPz7xcAiIiovdnrUE+77FlexbVFQG+MulELLplBM46tQY7dhWwq70IY4RHf4iIiIj6KIYqREREH3SjNP/zKul3dhZw+olVeODmkZgz7RR85IgEW7bnUCgqjOVTK0RERER9DTtViIiI9sKeI0w7WwsIrMFlEwZh/Jn98U8/3ITv/ddmbNtRQDFVPrVCRERE1JdmRC4BERHR3rPGQBV4Z3sOKsCUvzoOD991Ji4+9wikqUchdVwkIiIioj6CT6oQEVGf0ZVPkezpW9may2NgTYz7bjwdv9nUgUKRrwMiIiIi6isYqhARUZ8gAjiv8F5hTNfEK3uOBLW0pxADDBmcoFBgqEJERETUV/D4DxER9WqK0qudrRgMqI4QWIHzXXwzNaWnYLI5BSMVIiIior6DoQoREfV6mdji1gW/xKNPbEVNdYiaygBeAX8QwhUiIiIi6js4/hERUY+w58CO3/0oyN6e4FEFMonFxi1ZfHnBy7j+7l/iN2+044h+McozBs55Pl1CRERERPuFnSpERNRjeF8KU3I5j102RXVlANVScPJhKssDVJQpnn1pJ9a9vBOfmnAkvvDZofjIwAx2tBRQKDhYy981EBEREdHes/V/N3oul4GIiLo7I0CaKqoqI4w4oRKvv5XF65uzMALEkd2rYAUQVJQHEBGse2UXfrp2O5wqRpxYhaqKCPmCg/elUls6/ESAQkFRyPsuKxcmIiIi6koMVYiIqEdRKE45rhKXThiEfpUBXn2tA1t25JCJLYLAfGi4ogoYI6gsD9GRLeKJ53bimQ3NGFgT4eRjKxFaQa7gocpw5XBjqEJERETdHUMVIiLqUVSB9s4UgGDMyH6YeFZ/eAh+8ZsWtHekyCQGshdpiCoQhQaV5RZbt+fwH0++g1+/0YFjh5ThmKPKAFXkCo6b+cOIoQoRERF1dwxViIioxzFG4BVoay+iqjLGhWcPwJmn1GL7zjxefb0dqkAS710/iioQxxaZyOCV19vx+OqtaGlNMfy4Shw5oAzZfIo05ab+cGCoQkRERN0dQxUiIuqZG26UwpVCwaM953D0oASXjB+EYz9Sht++2YGNm7MIAoMoNHvXtyKCyvIAUMHaDc1Y9fwOKAQjTqxCZXmIXM7B80jQof07ZqhCRERE3RxDFSIi6vEbbxEgm/coFD1GnFCNiz9+BMozAV75bSt2NBeQ7GPfSlV5iLa2In723Da8+EorBvSLcPKx5bDGIF9wUBWGK4fo75ahChEREXXreeXlH01SLgMREfUGHoA6jyQKUFMd4o03O/CP//4mfrhmC3yqqK0OISJ79eSKCCAKNHcU4Z3iwnMG4qrPDsOJwyrQ0lZEZy7lK5gPMmOA9naPttYU1jJUISIiou6HT6oQEVGvsedIkFNFW3uKfjUxLjpnAM4cXoO33snht5s6dvet2L365ymA8tgiCg1+8dt2/OjJbcjmHYYfW4mBtTFyeYfU8SmKg/b3ySdViIiIqLvPK3xShYiIeivnPYwY1FQEEAM8/uQ7ePi7b2DTliyqKkNkYgvv9+42aIwgV0jR3JLi2KPK8IXPDsWl5w6GwmNXa7r76BDXvCvxSRUiIiLq7vikChER9d5NuZS6TzrzHmnq8dGTq3DphEEIreDV33VgZ2seSWQRGIMPi1ZUAWsMqipCNLcW8JOnt+GFV1owZHAZThxWDoggny+96pl9K12DT6oQERFRt59X+KQKERH1Bd4Dqh5JEqC2IsSvN7Zj+f97Az99ZhuMCGqrI6jqXvWtWAGcKna1pTBG8MmPD8RVnx2KIYPL0dJeRI59K12CT6oQERFRd8cnVYiIqE8Q2d234hXtnSkG1Ma4+NwjMOKEKmzcmsVv3miHNYIo+vC+lVLuIijPWBgrWP9qC/7zqe3w3uPUYyvQrzpGNu/g2LdywH9nfFKFiIiIuvW8widViIioL3Lew4pBbVWEgnP44aqtWPn9TXj7nSxqq0LEkYXbi76V0iudBbl8iubWFCcfW44rrxiKi8YeUQpwOtK9evqF/hifVCEiIqLujk+qEBFR39ywiwACdGSLUAVGnVKDC8cOhFfBL3/bipaOFGWJgZW961sJrEFlRYh3dhTwo6ffwa9ea8OQQWUYWBshdUxV9gefVCEiIqJuP6/wSRUiIurr9vStlJUFqCoP8Ytft+Ifvr8RTzy7DVFkUF25L30rAqcezS1FOAW+c9/H0L86RDbn+XagfcQnVYiIiKjbzytcAiIi4uYdsNYgm/XYuj2HE4eW4xvXnYpv3DACxx5Vgc3bssjm3btvE/ogThWAYGD/GMXUoVhMYfmUBREREVGvFHAJiIiISkpPkgia2wqwxuC8s/rjYyNq8G8/eRvfenQTtu3Mobo6RBx8eN+Kd4rACowxADMVIiIiot45P3IJiIiIfp/dfU7nnZ05pEXF5z41FP/w96Px2U8chc6sw/ZdBQAK+yGPrbCgloiIiKh3Y6hCRET0J1hrkC96bNmeRWWZxZevPhGLb/0ozj69BtuaC9jVXmSBKhEREVEfxlCFiIjog26Uu/tWOrIeW5sLOPX4Csy/eQTumnEKjj4iwZbtORSKDsYIT/kQERER9THsVCEiItoLe97cs7OlgCAwuPjjgzDmjH747o/fxrf/421s2ZHDgOoIYWjgnIInf4iIiIj6wIzIJSAiItp71hqolvpWRATX/vkxWDbnDHx64mC0Z1Ns35WHQGF5hyUiIiLq9TjyERER7QdrDfJ5jy3bshjYP8Ed9cPxwJfOwOhTarB1Zx5tnQ7GGB4JIiIiIurFGKoQERHt703UAMYadHSkeGdHAR89uRLzbx6B26YMxxH9ImzelkfRK3gWiIiIiKh3YqcKERHRAdrTt7JjVwFhYPDZC47EeWcPwMJHfgv1gPdcIyIiIqLeSF7+0ST+/oyIiKgLOedRXhYgsAadOQf1LK7dH8YA7e0eba0prOVBKiIiIup++KQKERFRF7PWoDPrAfh3n2IhIiIiot6HoQoREdFBwDCFiIiIqA/MfFwCIiIiIiIiIqJ9x1CFiIiIiIiIiGg/MFQhIiIiIiIiItoPDFWIiIiIiIiIiPYDQxUiIiIiIiIiov3AUIWIiIiIiIiIaD8wVCEiIiIiIiIi2g8MVYiIiIiIiIiI9gNDFSIiIiIiIiKi/WBUVb33nktBRERERERERPThvHoPqA/iKBBjINlsMYWYQISLQ0RERERERET0h1QBdd7FmdAaAUwhX7zOWvlN/9pMICLwCqcK5VIREREREREREQEKQD0coOhXm7FxZDeq+JsEAHatu+Uj2WL7rM7O9LokseHO1rwXVRhj2LlCREREh4UxQHu7R1trCmv5KC0REREdHt57FYivLI+tU59WVsYNUbm//7hzF78uP/vZxOD8859IAaDlmWkjOtXc4VU+Wyx6tHbmvQEYrhAREdEhx1CFiIiIDidV76GicRzY6ooYqfrHq6vxlaHjlqwDgJ/NmRgIAGjjP5i1Zz8hY0evcACwZfW0S7PivxqIPTNXcMjmU2fFWPatEBER0aHCUIWIiIgOBwWgqXdRHNgkDpCqe6V/efSV4y9e/D0AUG00aIwhU+v8700oDQ0Pm2nTUohM8uteXhgMbnt1hkvl+jAwR+/YlYVCnAAMV4iIiOigY6hCREREh9Ke3hRVtbXVCUR0cxgEDcXj9d4zTl6cm78IJrErMXXqle++Qfl9JxRtutbK6AcdAGx9avpxNglmtrbm6+PYBs2tOa8KscZwuiEiIqKDhqEKERERHSrv9qZUxtZ752vKMisCFL55zCVL/xsAdH29lZENHvj9F/t84ISyZedlweB+P0wBoPnpWWd3qJsXBPaSjs4COnJFbwQwwr4VIiIi6noMVYiIiOhg894rID6KSr0pXt3Pq/tFtw/9+ILVwO/nIu/nQycUbVhhMC0PkSkeADatuv5/FyU3Nw7NKR0dKQrF1An7VoiIiKiLMVQhIiKig0UBqFNnA2OrymIUi8Xf9Ouf3HHcBYseAYC7GxrNF8MYMqnOf9A/Z68nFF2w0mDGlSoCfedHCyNX/aub0hT1NpDBzbty7FshIiKiLsVQhYiIiA4G9XBe1farTuC835EEZmnmzI67jj36W1kAoktWirynN+WD7NOEooBg3TQjoxY7ANi8duZJQWhv7OjIXRVYa1ra805VjWHfChERER0ghipERETUlbxXVcBXlEfWQLWyKvmWeL37xE8u+gUALFr0maC+/vtO5Pd7Uz7Ifk8oW7YuDwYPujoFgO0vzZqY6/Rzo8Ce19aRRzafOjBcISIiogPAUIWIiIi6wru9KaG1SRKg4NxTg/vFc445v+G/gN/PN/bVAU0oqg8ZIH23b+Wt1Tf8n7x23hmF9tiOziKKRce+FSIiItovDFWIiIjoQOx5RbIxYivLIxRT91ZSJnNGDDt9pZw2M/3m3Y3mxi8GELnG7+//RpdMKKorDVDqW9m5akZlZ4Qb4TBdLGp3NudgjDgIOA4RERHRXmOoQkRERPtDAcDDefWmuiIRGN+ZiYMF/SoHfmPQuHm7gNJDIgcSpuzRZROKKgRP1hsZ1+AAYMva2SPCEF9sz6afFyha2wsOgDGGz60QERHRh2OoQkRERPvKK1RUXVlZGITWIsmY7ySh+eYxFyx6HgBWrau3489s8PvSm/JBunxCUUBe27rcHrf7PNJbz029OJvVuZkoGNPRmaJQdOxbISIiog/FUIWIiIj2lvdQgfrAGltWFkIVz2Vi3HXKZUsfBYA3tq8Ihg6oc4KuCVP2OGgTiuoSA0xREdF3Hn8gcv1//YXOrLs9yQRHtbUWkDrlK5iJiIjoT2KoQkRERB+m1JvivREx1ZUJ8sV0e3kS33nqyJYHZegjWVWVdevqzOjR/+AOxv/+QZ9QVJcYkakeADZ//6ZaPzB7W+r0GhugsnlXTo0xnn0rRERE9IcYqhAREdGfsqc3xXlvaioT8fDZTCb4h7isYu4JE+9+BwBWrb7KThj/sDuY/x6HZEJRhQD1RqTUt7L5mRvPDIL83EJer0hTj/bOQqqAZd8KERER7cFQhYiIiN6PKhTqXSYTB3FkkMT28UyZzBk6ftFzALB6Tb0dd27X9aZ8EDnEP7hs3HS5HTb0sRQAtjV98YqOzuztobWj27N5FIveAexbISIiIoYqRERE9Pu8h4qoM2KC6soIXv1LtdXx14edt/BfAOCN+ZcHQ2c/5g5FmPLuvHIoF0AEOmzoY2lT03SrChk4+p5Hk/LCRDG4LrRmR211xhpjxXnvD90SEBEREREREVF35r33IoqayiSIItMShMGXBh5XMXFPoPLKr6bbYdc9lh7KQAU4xE+q/KFVq+vthPGlI0G7nrv+yHbNf8XncY0YiZrbcmqFfStERER9FZ9UISIiIu+9VwBVZbGBCJLErOhXFtxx5HkL3wCA55vq7VmjG9zh+vc77BOKKmT1mnqzJ1zZ8szsMVZwW1H9Zfm8Q2dnPlUYaww4TREREfUhDFWIiIj6Li291ieN4zBIohDG2J+YQOadftnCVcCh7U35INKNFuz3+lbeeua6v3Vp8eYgMCPbWvMoeu+gYhiuEBER9Q0MVYiIiPoeDyg8vDFiqysjqOqrFUl49yPPL/qHubfC69NTLMY0HvYwZY9uN6E0NU23o0Yt8iLQt5+YWqNJOCWXK34pE4fVzS1ZqKoXNtkSERH1egxViIiI+hbvvQdEaipjyRddtl915pvVg5LFR5xx9zsA5IUN082ZIxa57vTv3G0nlFVr6uyEcSscABQ2zBi2o0PuyBfd3xkR09Ke8wLAGGP4sSMiIuqdGKoQERH1DXt6UyoysRErSEL5dnlFxW3HnnfPrwHgpfWT7Bkjl7nu+O/erScUVZXVa64yE8aXwpWtT08bXwTuhPMTC16Q7SymEBMI5ywiIqJeh6EKERFR7/be3pQ4srAWz2aS4EsnfqLhZwCw9plJ9qUXx+rkyXW+284r3XmBRUQnjF/hVCGrnp5iB41dvHrJj0+5IIrt1YGxr9TUlgViBapI+RJmIiIiIiIiou5PFeo9nEJRW10WZGL766okqP/e+l+de+InGn721NNTrCpkzDnLXHcOVAD0rNJX3TDZyoilDgA2Pls/MKNmVmtnen2SsZldLXlVVeWRICIiot6BT6oQERH1Pl69FwiqK2KTL7rCgOrk/s44d/+IiQ9tBoANG6baESOWuJ7y8/TICUXXT7Ky+zxV2zM3ndCC7Dwt6t84r2jrzLNvhYiIqBdgqEJERNR7eC2dL8nEoUkyAcTg3yqqoq8cN37BL4Hff4iiJ+mxE8qChofNjGkdEJnhAeDNp2Z+EvB3iMiYbC5FNl9MDftWiIiIeiyGKkRERD2fKqDOuygObCYOoOrWVVWbOSdcuOzfS3/eaBYujjCz/irfE38+6fl/QSrAYhGp97fOmxjM/vSZk/JZd4O15rjmlk54FSeAZbhCRETUszBUISIi6sF7dQDwcCpq+1UlUO/ejDN2QTrstPmnD5+RLly0zATWYOrUa3xP/jl7zYSiL0yxcmajA4CWX846Otdppre1567PJEHY3JLzgPJIEBERUQ/CUIWIiKhn8t6rQHxleWxT511tbbLQhVg4fOLC3wHA+vXX2pEjH3S94WftdRPKe/tWdj13/ahOX5yjHlfkix7tnXlvwL4VIiKinoChChERUQ/bj6v3UNEkDmx5eQhV/Y+qfuGcYR9f+CwAbFl2WTB40g/T3vQz98oJRZeuMGvPWiVjR69wALDluamfyuXlrsDgjGzeI59PnYjhkSAiIqJujKEKERFRD9mDA9B0T29KCOfdryprK289+YL7vguUelPQGEOm1vne9rP36gll6dIVZuSoNTL27OXutUceC8tP+s/Z+aKfaa05urklCwX7VoiIiLorhipERETd257eFK9qa6oSGNHNYSiL/fGv3nP6yT/PLVwEE9iVmDr1St9b16BPTCjvPRK09anpx9kkuKG9rTjJBBK0tuU8ADHGcFojIiLqRhiqEBERdV97elMqyiMLUV9VGa+0Fl877vxFvwaA9eun25EjF3nszl56qz41oWzZeVkwuF/p/Fb7+lln72p3Xw3D4BPtHXlk86kDVIywb4WIiKg7YKhCRETU/XjvFRAfRdbG1qMIt2pgVebW4z+5dM0f7rv7gqAv/eUP7vfDVJetMHcX86gYOeU5AJ/c2TT7r8XgjtrKzEkd2QIKRfatEBEREREREb2XAlCnzgbWVlXEtpi632UivWPU5Su/JSL6zYZGc2MYQ/rVpX1pXfpsdKBLVhrZfa4r9/LUZEdLcLPzmBYEOGLHzhzEsG+FiIjocOKTKkRERN1g7wzs7k3xprY6I6q+ORMHS4tJ21dHnP+tdgCi9y4RuWGq74vr06cnFFUI1tUbGd1Q6ltZM3t4UIYvtncW6owY09qed6pq2LdCRER06DFUISIiOry8VxXAlZdHgRVBRWX4LWvknuMuWLgeALY0fCYYNO37TqR396Z8EE4ou23ZujwYPOjqFADa1l9/Xlt7cW4U2YnN7Xnk80UHBcMVIiKiQ4ihChER0eHxbm9KaG1ZHMIhfbpfZfT3x160+N/fs392QN8NU/bghPIeqg8ZIIXIFA8Abz495cp8HnOTJDimvaOIYtGxb4WIiOgQYahCRER0iPfEANTDGSO2sjxGMS1uzlQkc6tHhiuGfmR+8Zv3NJobbwggco3napVwQnm/D5IuMcAUFRHd9MTUmiAJb3apThaD2p272LdCRER0KDBUISIiOkR7YODd3pTqikRUfGcmiRaXl6dfHzZh6Y7SPnm5EbmaYcof4ITypz5UCsGP64x8ckWpb+WZ6SMRhDfns8W/hSha2wu7jwQxWiEiIjoYGKoQEREdfF6hourKyqIgDA3iOPieDfG1ky5Y9DwArF5Tb8ed2+D7cm/KB+GE8iFUIRs3rbDDhpZeC7X56UmXZItmThQGYzqzKQpF58AyWyIioi7HUIWIiOjg8R4qUB9YYzPlAaB4riyT+erwix/4PgBs3LQiGHJ0nWOY8iHzCpfgg4lAhw2tS5uavmBVVY4cu+w/KjpOmWgFUwNrNtdWJ9ZaK17hlB81IiIiIiIi6sYUgPfei6hUVSXWBmZnlNjZZ1YeNXH4xQ98XxXS1DTNDh1SlzJQ2YvMgEuwjx9AXWJESu/fzr18e832lubbvdNJ1qJ8566cGmM8BPx9GhER0QHikypERERduJcFAA/nvDc1VYl49YWkLFh+wkA7Jxm9aBsArFpTbyeMa3Bcrb3HCWV/PowKwZp6I+NLH7bNT844yyTmtrTgrig4RWd7IVXAsm+FiIho/zFUISIi6qo9rCpUXSYJgyQOESX28VDcvOM/sWQtAKxaXW/Hj2Nvyv7ghHJAH0wIMMWINDoAePPJ6/6XS/O3hnE4qq0jh2LRO0CMMVxnIiKifcVQhYiI6MB4DxVRZ8QEVVUJ1Pn1AwaUfePocff9EwDo01MsxjQyTDmQeYVLsP9EoCKN7tlnp1tVyNHnzv9excDKiUiLN0TW7KitSawxIs57vnaKiIiIiIiIDpndvSmoqUyCKDQtQYRbjuwvE/cEKr94ZbqVsY0soj3QXIBL0HVWra63E3YfCXr7qRuOghZuK6qvE5FoV1tODaDGGAZZREREe4FPqhAREe07771XAJVlsVFRLc8E/9h/UPncQaPueR0Anm+qt2eNZm9KV+GE0sVUIaufrDd7yn2aX5g5ppDKXPV6cTbn0JnNpyrGGuHaExERfRCGKkRERPu0FwXUp3EcBnEEGGOeCCKZc9olS58A2JtysHBCOXgfaHlt0wp73NC6FIBsfuaLn0uL2ZuCyJ7e0ppH6tRBwb4VIiKiP4GhChER0V7tPRUKL0ZsTWUEr/hVWZne/c/Pnr5izq0zPHtTDi5OKAf7A940zWLUYi8CfeVHM/tVVfmpnZ3pLeWZsHxnS04B5ZEgIiKi98FQhYiI6IN59V4gqKqITaHo8rVVyTfjwC0eduGSLQDwwobJ9swRS3nU5yDihHKI6Jo6K+NWlF7B/PwNx2ihMC/1+ncKoLU95wUAwxUiIqL/wVCFiIjo/e3pTSnPxCYKBdaa/6+qOr5t2Pj7/xsAXtowyZ4xYhnDlEOAE8ohpKqyes1VZsL43eHK09Mmqsg873VCIa/oyBdTIyYQ/q0QERExVCEiIvqjPSWgzrskE9o4sjAGz1WUB7ccf2HDTwBg7TOT7EsvjtXJk+v4BtpDhBPK4fkiCLBCROr8l+ctNDdc8uurO4v+izYwJ+1qycOrd1Bh3woREfVpDFWIiIje3UOqKryI2urKBAr8rqLc3P+Pz7y85M5bf56u/uspdtw/szflcOCEcji/GC9ca+XMBx0AbH166mANoxkdbYXrkyRMWtqy3nvlkSAiIuqzGKoQERHt6U0BKisyppimxdrKeJFJwvtOmHj/mwCgL0+1cuoSHvU5TDihdAO6fpKVkaXzbluen35KWpQ7APxlWkzR1llk3woREfVJDFWIiKgv8+o9FMjEsUkyFgL8oH9N5rajxt/3EgDohklW2Jty2HFC6SYWNDxsZkzrgMgMDwCbnq6/2HiZa4yM6cylyOWLKdi3QkREfQhDFSIi6ov29KZEcWAzSQDn3brKMnvHyZcsfRQAtKHRLAwjzJx0FXtTugFOKN3uC6QCLBaRen/rvInB9EvOrPcunSFijt/VmoVXcQJYhitERNTbMVQhIqI+tRcEAA8HUVtdlUC931SWsYtzx5x6zxknz0jnL1pmksRg6jXXMEzpRjihdNcv1AtTrJzZ6ADgrR/POjoagNktu/KzMkkUNLd0eghghEeCiIio92KoQkREfYX3XgXiK8tj67x31dXxkjAI7zv2/PmvAYCuv9bKyAd51Kcb4oTSzalOsiKlc3Lb184elfPuDivmU9liivbOvDcMV4iIqJdiqEJERL1/v+c9VDSOAltZGUIV/1lVKXOGTlj8DABsWXZpMHjS4ylXqvvihNIDLFjwsJkxowCRKR4ANv68/gpvcJc1MiJXSJEtpM6K4ZEgIiLqVRiqEBFRb6UANPUuiK3NhCGc978uTzK3nvbpBd8BANVGg8YYMrWOR326OU4oPciCBQ+ZGTM8RCb51zZfHyavu1mpczeEgR28o6UTCvatEBFR78FQhYiIeps9vSle1dZWJ4DBtjjAAydcIveGsiSnClm4cKXMnHklw5QeghNKT/wiPj/JylmlI0Fvr519UhzKjNbO3FRrrG1rzztVNcYY/t0SEVGPxlCFiIh6E+9VBfAV5ZGFqK8qj/+hLLb3HDXxgVdK+7x6K2c1eOzOXqhn4ITSg23ZemkweFDpfN329bPH5jvcvCi0F7W255HNp06gIuxbISKiHoqhChER9QbeewXEx5G1kfUoeLd6YL/w9hMuWv7zP9zXUc/DCaWHU11h8EAeMrvUt7K9adbftLUU5sZJeFJbtoBiMXXCvhUiIuqBGKoQEVHP3qsBqnCBFVtRHqFYTDcmZTrn9EsfWiki+s37G82Ns2KIsDelJ+OE0lu+sEtWGplaOnf3kk5LBq21txQ8pliLI3Y25yCGfStERNSzMFQhIqIeuTcDdvemeNOvOhHntTmO7YOD4uo7B1z49XYAovcuEblhKsOUXoATSm/68ipk66Ir7OAZj6YAsPX52cON+C93dKafM0akrb3AvhUiIuoxGKoQEVFPs7s3xZWVRYG1gsrEfFuC5KsnXDR/AwDounqLMxu8CHtTegtOKL3Ulq3Lg8GDrk4B4M21U8/PZnVeHMu4fE6RLzoHhitERNTNMVQhIqKeYk9vSmitLa8IkapfW5P4O0+4+KEfvmd/5sAS2l6HE0ovprrEAFNURFQff8Zu7vfIldlsekcSBUe3dhThHPtWiIio+2KoQkRE3X7PBUA9nDFiK8tCFL3bmmTMvOP6D1hecc7f51VVgEYR4VGf3ooTSl/4omuDEan3ALD55dtrfFvzzS7VeiumcmdrpxoxHgKOq0RE1K0wVCEiom67xwLe7U2prkgE4vNxJlxUU5P7+lFjHt5e2oc1GpEpDFN6OU4ofeVLr5DVa+rNhPENDgB2vFh/pi8GN2UL7q9VFe3thVQBawyfWyEiou6BoQoREXVHXqGi3pUlcRAlBnFo/i2K8PXjLlj8DACsXlNvx53L3pS+ghNKH6MK2bhphR02tC4FgLfXTPl0wcvtcRSe1dZZQIF9K0RE1E0wVCEiou7Ee6gA3lixlRURRHVdeSb6+xM+ufC7ALBx04pgyNF1jmFKH5tXuAR9iwh02NC6tKnpC1ZV5SPjGn9g7OaJqqbeGtnSvzpjrRHxCqe8FBAREREREcF770VUaqpiG0eyMwr8DZkB0XknfHLhd1UhTU3T7NAhdSkDlT64x+YS9G2r11xlx4972AHAa6uuHxCHxa8UUz8pCCSzY1dOrWHfChERHR58UoWIiA6nPb0pzntTXZmIel+Iy+yKfuXldxw18d7Npf1UnR0/boXjavVdnFAIqhCg3oiU+la2PXPd2SbQL+eK7s/Sgkd7J/tWiIjo0GOoQkREh3GPpFDvMpk40NggCOXHmUx8+6kT718LlMKUcec+7EWET6b0cZxQ6L0XDtm46XI7bOhjKQC8+fT1f+F97kvG2tEd7QUUU+8AMcbwc0NERAcfQxUiIjrUvIeKqBMxQVVFBBG8FFWG9w4/f+EjAuhTT0+xY8c0soSW/mde4RLQHqW+lcfSpqbpVhVy9Nj7/nVI5siJUH9zYM2uftWJNSLivOdrwYiIiIiIqFfZ3ZuCqspMEMemzUa4fcCx5RNPOX/htwTQda9Otx8f28giWvr9fTSXgP6UVaun2QnjFzsAeHPVLR+RsG1OmuIqIxo0t+fVAGqMYTBHREQHBZ9UISKiQ8Gr96pARSY2YgVlsVnZ/2iZO2jk4tcB4PmmenvW6Ab2ptD74oRCH0gVsubJejN+XOkisqXpuo8br3O995/ozDl0ZPOpEWNF+FkiIqKuxVCFiIgO8l4HXn2aRGEQGECMWZVJgjmnXb745wCw6i/q7fjvNPCoD30gTii0txccwdopRsY2OgCy6ckvfs6Y/M3W4LTmtgKcUwcF+1aIiKjLMFQhIqKDtLdRVXhj1NZUlgHqf21D/capl56+QmSGZ28K7QtOKLRvF6B10y3OXORFoK89ef2AxBYmd2TTL2UyUUXzrqwCyiNBRETUJRiqEBFRV/PqvUBQXRGbfDHN96vJfEOdLD3pkoVvA8C6dZPtqFFLedSH9honFNovuqbOyu73se98atqJOQnmFJ3/PwDQ2p7zAoDhChERHQiGKkRE1FW8914BlGdiE0QGgZF/rcrYOcdcuOhlAFi/YZIdOWIZwxTaZ5xQaL+pqqx+8iozYXe4svGpGeeL4E4Fzi0WUmSzxVTEBMJPGRER7QeGKkREdOB7FgDq0zgOgzCwsGKaKqvsLcdfuOjHALD2mc/Zl168UCdPruMbTmm/cEKhrrhQCbBCROr8Dy7/nP3YHf2uLRb89daYE5tbs/Aq7FshIqJ9xlCFiIgOYI8CKJyK2prKBAL8LozNAn/Myw2nD/95+tRff96O/eeVXkTYm0IHhBMKdd2F66XJVs4onT987adXH1leVT2rrb1zdhwHcUtr3qsqjwQREdFeY6hCRET7tS9R7z2A6orEpM4Va2uSxUEY3nPshPlvAsCLG6baj45YwqM+1CU4oVDXX8Q2TLYyohSubHl++ilpAXeJkf9VzKdozxZ9aVBmuEJERB+MoQoREe3TPkS9VwUycWjKMjEA98MjBpsvDzp78UsAsGPZpUH/SY+nXCnqSpxQ6KBY0PCwmTGtAyIzPAC89dzMy9NON8+GdlQ2V0S2UHRWjGXfChER/SkMVYiIaG+oAuq8C+LAVmRCFNWtLw9k7qmfWvb/AGBRQ6OJ4hiTrmFvCnU9Tih0kC9wKpi/WOT6er/u5YnBkW1nziim6ewwMEN37spCIU4AhitERPRHGKoQEdEH7jUAwMN5Vdu/JoHzfnN5xi4q31l291F/c29RVaWxsVGmTp3KMIUOmoBLQAfT7uIn1fVTrJzamAJPzN+0dur/sxLMTOJgZhIHdldbznlVMWCVLRERERERfTjvvQrEV5bHVuFdWSZYIpEuOH5iw68B4Pl1dVZEPAAGKnRw97xcAjqUVCdZkdL737c9N/ucQsHNsYG5tDOfojNbcICKEfatEBERn1QhIqL32094DxWNosDWVMYouuJ/1VaU3z7k/PlPA8CWZZcFgyf9kL0pdMhwQqFDfyFc8LDBjAJEpngA2PLUzM90Fot3RqEdkc2lyBdSJ+xbISLq8xiqEBHRu3sIAJp6F8TWlschUvX/nQmj20//dMO3AUC10aAxhkxlbwodWpxQ6PBdGBc8ZDDDQ2SSX/fy1OSo1nh2waWzrJXBzS059q0QEfVxDFWIiOi9vSk1VQmMYJsNpaH/Ue6eI89Y1qEKwcKVIjOvZJhChwUnFDrsn0FtmmRkdOlI0OYXZ5wUOntdW3vx2jAQ29Ked6pqjDH8rBIR9TEMVYiI+jbvVQUo9aaI95Vl8bfKM/YbR0144BUA0KZ6i9ENXnZnL0SHZUPLJaDuYsvW5cHgQVenAND+4vRzd2UxLwzsBW1tBeSKqQPDFSKiPoWhChFR3+S9V0B8FFobWA9Vv7p/v+D2Ey5a/vPSvuHSYPCgxx0YplA3wAmFuhXVh8zdD6S4aXapb2XXi9f/7c5d2XlJFB7fls2jWHTsWyEi6iMYqhAR9bW9AKAKZ63YirIIqUvfLCvXOade/NAKEdFv3t9obpwVQ4S9KdR9cEKh7nlBXbLSyNTSuciXfjktGdRuvpSmqBdrBuxszkIM+1aIiHo7hipERH1k9gd296Z4U1OdiCpaIiuNg0+quWvAyV9vByB67xKRG6YyTKFuhxMKdd+Lq0K2br3CDh78aAoAbz0787TIys2d2fRzIpDW9gKPBBER9WIMVYiIer/dvSmurCwKAmtQkTH/Egi+fuwnF78E7O5NGdXgRXjUh7onTijUIz6nW7Yut3v6Vt5ee+1F+YKdm4ntue0dDrmCcwDDFSKi3oahChFR77WnNyWw1laWh0hT92xVonedePlDPwCAN3asCIb2r3MsoaVuP69wCagH0MGDrk5VlxhVlY+MefC/HvrJKec5J9eKlU39ahIbWivewykvuURERERE3XewB+A9nDFWaioTG4fYYgOpHzHcTjzx8od+oKrS1PQFO6x/XcpAhXoC/tqHet6FWJcYkakKQLe/9KX+ab7jS8Wim2TEVu1syaoxxkPA32kSEfVwfFKFiKgXzfDAu70pVRWJiCCXiWXpMScP+Grm+Lu2leb8RiMyhb0p1KNwQqGeeVFWCNbUGxnf4ABge9PMjwL2y9lc8S+9V7R3FFIFrDGssiUi6qkYqhAR9ZrZXaHeZTJREEcWcUZ+EAjuOuGiJc8CwKrV9Xb8OPamUM/ECYV6+gVaNm5aYYcNrdvdt1J/RbGIrwSBPbujs4BC6hxUjDH8rBMR9TQMVYiIejbvoQL1xhpbWREBzr9UHpXfeeLl878LABs3XR4MOfoxxzCFevS8wiWgnkwEOmxoXdrU9AVb6ltpeLRwdMtEK5hprWyvrU6sMSrOe8++FSIiIiKiQ8N770VUqioTG4WmNQ7kpoEnVEw88fL531WFNDVNt0OHPJYyUKEevyflElBvsnr1VXb8+IcdALy57sYjbDF7e6GIa61BtHNXTq1l3woRUU/BJ1WIiHoev/uXmVXliYH4NMoEKwdUBbcfee7Ct0vzep0dP36F40pRb8EJhXqdP+pbeWHWGE3lK0XnL88XUnR2FlKFsTwSRETUvTFUISLqUTP47t6UMFAXIorNT0Pxt5/+mSVPAsDqNXV23LkPexHhkynUq3BCod58YResnWJkbKMDgM3P3vRXabHzS4E1H21tz6PoPPtWiIi6MYYqRETdn/dQEXUiJqiujKCKX0RheO8ply5cKQJ96ukpduyYRpbQUq/FCYV6vWfXTbdnn7nIi0A3vvi5aunoN7VQLN6cScKa5pYsvKq3xrBfiIiom2GoQkTUvZV6U0SqKxPJF9O2igp790fCpKH2wgd2AsC6ddPtqFGLeNSHejVOKNRnrF493Y4fv2j3K5inDckWZa4r4koxsK2teS8CGIYrRETdBkMVIqLuyXvvvYdUVsRirSCy+siRR9XO6T/qG78DgOfX1dmzRrE3hfoGTijUp6hCVq+pNxN2961sWTfzXFFzO7z/ZEenQzabT1WMNcLvBhHR4cZQhYio283SgPo0jsLAGgNj9YlMEtxx6mVLfgYAq/6izo7/DntTqG/hhEJ99Ybw3r4VeXv19Vc5U5xtA5ze0lqA8+qgYN8KEdFhxFCFiKjbzM4KhRejtqYygYP/79iE80+5fPgykRl+9dNT7Dj2plAfxQmF+vYNYt10i919K1ubZvZTJ9M7OvM3JUlU3rwrq4AqjwQRER0eDFWIiA4/r94rBLUVscnli4Xafsk9YbUuPO5jS7aU5unJVkYt5VEf6rM4oRAB0NV1VsaXzn3ufOGGE/PZwh0F7/8GELS153xpuGe4QkR0KDFUISI6fLx6DwXK4tjEiYG1+G5FTcXtx5x7z8sAoOsnWRm5jGEK9XmcUIh2U1VZveavzYTx33YA8E7T7POyheLXRM2YYjFFZ7aYGjGB8FtDRHRIMFQhIjocMzHgnXdJEtgwEFgrL5Rlwi+ffPHi/wCAtc98zja9eKHWT67zXC0ihipE73MjUVm99kozYew/uh9c/jk75u/7XZ3r0JsDa45rbumEV3EArOG3h4jooGKoQkR0KGdgAAqnorZfVQIo3ogjuS933KmLzzh5RvoXf/15+51/XskSWqI/wAmF6E/dWH4xxcrpjQ4AWp6ddXTByrTWltwNcRJGLW05r6o8EkREdBAxVCEiOkRzr3rvPVBdlZg09WltTbjIZPDA8ecufh0AdMNkKyPYm0L0fjihEH3YTeY950W3b7jh9Fx7YZ4FPptNU3R2FNm3QkR0kDBUISI6yHOueu8UKI9DU14eQqE/rB6QuW3oOfPXAcCWZZcFgyf9MOVKEf1pnFCI9uaG0/CwwbQCRKZ4AHh7zeRP552dG4dmVEfeIZ8vOhFj2bdCRNR1GKoQER2k2VYBdd4FUWArykI4l66PE9xx+mUPfa80+zYaxDHkGvamEH0YTihE+2DJkodMLvW4bsYkv+7lhcFHOn49Oy346TYww3buykIhTgCGK0REXYChChFR11IA8HBe1farSeAVb2fKTGPZ9szXh/7NvUVVlYWNjTJz6lSGKUR7iRMK0f7ckNZfa2Xkgw4ANj01Y1gS2S+2teenRrG1LW15570aa1hlS0R0IBiqEBF1He+9CsRXlkfWQ31lZfxQGOg9x53f8GsA0HV1Vkat8NidvRDR3uGEQnQAtuy8NBjc7/EUALa9OO2cfDacGxpc0p4rIJdLnULFCPtWiIj2B0MVIqIDtydMiSJra6oSpKn7WVJrbj9x3OI1pXn2smBwP/amEO0vTihEB0iXrTAo5iH1pb6Vjc/c8Beaz91pQzO8M1tEoZCyb4WIaD8wVCEiOoAZFYA6dTawtqwsgPf6WnmS+cqplz3wT8Du3pQwhkxibwrRgeCEQtRVN66HVhpkr4TMgH/lR5/L9K8dcF2+4GZZiyOaW3LsWyEi2kcMVYiI9nMu3d2bUlOZwBjsiiK5/8io7d6aCx9pV4WgcaXI1CsZphB1AU4oRF38ndIN042MWOQAYOvzs4cHRq5r68hdY4w1be15p6rGsG+FiOhDMVQhIto33qsC8OXlkbVGfVlF8khlxtx71LkPrAeAVeum2/GjFnlhbwpR120AuQREB8eWrcuDwYOuTgHg7Remjs+36p1JYie2d3jki6kDwxUiog/EUIWIaO947xUQH4XWxlGAYuqeqq7UW0+5dPnPAWDb9suDgQMec2CYQtT18wqXgOjgGDzo6lT1IaP3N5qPnLlk9UOrT7lAHD5vrfltv+qMDa0V771T3tqIiIiIaD+oAt7DWWulpjKxYWQ2xZG/+py/HDnxlEuX/1xVpanpajtwwGMpGKgQHRT8tQ/RobjhLXjIyMxrPABsbppULmlyS6Hop9pA+u1szkEMnEDYt0JE9B58UoWI6E/MlgDg4bx60686kdSjNYmxdNjIgXdVHH1XKwDo15cY+dJU9qYQHWScUIgO1c1PIa+98xl73KDvpwCw+ckbTrdx8eZczn8OApT6VmCMYbRCRAQwVCEiej/eQwXqysqjIDBApjz6diLp14+5qPFFANCmeotRDV6ET6YQHQqcUIgOMQXkta3L7XG7+1Y2P1l/cd7pbWFgz+3MFZEvOAewb4WIiKEKEdH/8B4KqA+tseUVIdTrM5lEvzb8kge/DwBvbF8RDB1Q51hCS3SI5xUuAdGhJYAeN+jqVHWJUVU58tyG/9zQsWsiBFMCY97qX5OxNrDiPdi3QkRERERw3nsjItVViQ0Du80EOnv4kCMmDr/kwe+XelO+YIcNqEsZqBAdlv0dER1OqkuNyGQFoK+9NKl/nEtu8UU/CYLK5racGjEeAv6Oloj6HD6pQkR9nffeq0KqKmIRkXwUm6WDjqr46sAz7n4HAFatrrMTxq9wXCmiw4cTClE3oApZs6bejB/f4ABgy5rZo2yktxac/19p0aO9M58qxLJvhYj6EoYqRNSHZ0OF9y7JhEEmCRCF5rEosnced8HCZwBg1ep6O34ce1OIugNOKETd6wYqGzetsMOG1qUAsO2ZWVd0Foq3h2Ewur2jgELqHFSMMfzuElHvx1CFiPqa3SW03hhja6piONX15XFm3okXz/8uAGzcdHkw5OjHHMMUom40r3AJiLoPEeiwoXVpU9M0qwoZeM4Dj8blR070aXGWtdhWW52xxqi40qOgRERERNRLeO+9iEpVVWKDyLRai5uGDC6ed+LF87+rCmlqmm6HDnksZaBC1M32cFwCou7rvedktz9/zZEFV3ZbseCutoFEO5tzai37Voio9+KTKkTUF3jvvQKoKksMxKdhEnxrSFXVnNpx39gEAKvWXGUnjHuYvSlE3RQnFKJuTlUFa642Mr50M93+7KwxKub2onOX5gsOnZ35VMVYI/w+E1HvwlCFiHr3jAdAfZpJwsBaIA7sz8PAf+Xkyx58EgBWramz48992IsIn0wh6sY4oRD1nBuvYO0UI2MbHQA0v3jd37Z1Fm8KjZyxq70A5zz7VoioV2GoQkS9kQcUHt4YsTWVMQD/y7Iyc+8jz5y6cu6tM/xTT0+xY8c0soSWqIfghELUw/zilen29FMWOQDY+KPrq8PK4oz2fHpTWRxU7mrNQVW9MYZ9SUTU4zFUIaLexnvvAZHqyliKqeuoqojuzZS5BcMmLN0BABs2TLYjRizlUR+iHoQTClEP9fy6OnvWqFLfSmfTTUN2pfk7ioX0SghMa3veCwCGK0TUkzFUIaLewmvpJQMVmdAEoYUN5V9qg/S2IZ986DcA0LTuKjt6FHtTiHoiTihEPZiqyuo1V5k9ZbZvPzNjgnf+DoGely8qOrLF1IgEIvyqE1HPw1CFiHr+rAZAfRpFYZBEFkb0yTg2dwy/tPHHpT9vNMBkZW8KUQ+eV7gERD2XiOiE8SucKkSfnmI/cs7CVUv+a/iFUWSviQP76sDa8sCIgVc473kul4iIiOhQUAXUwwkUtTWZIJMEv8lkZPqWyuzE4Zc2/vipp6dYVYjIFBbREvX0PRmXgKgX3cA3TLYyYqkHoG+u++IRkStM29VeuKkiE2V27soqoMojQUTUU/BJFSLqibx6LwAqyxNTTNNidU3mnvIyWTTk3IVvA8BLL02xZ5zRyKM+RL0EJxSiXkjXT7IycpkDgHearh+ezxfvAPR/ewe0deR8abPCcIWIujeGKkTUk3gtPReciWNTVmYBg+9VZfT2Yec3/vIP5zMi6j04oRD1Ug1LV5hRZ/xExo55xAHAW0/OuMh5fyeMGVMspOjMF1MjJmDdChF1VwxViKgnUAXUeRcngY0jC4FfF0bBbadf3vhDAFj7zN/Zphcv0PrJdZ6rRdT7cEIh6vU3ehWsvdLI2H90P/jx5+xZ1bVTXYrrAmuO29nSCa/iABgjvB4QUffCUIWIuvWMhd29KaK2uioBFG8kMRbkjz1twRknz0hVGwwwjSW0RL0cJxSivnLjf2mKld3nd99aP+voMC8zWtvz15UlNmxuzXtV5ZEgIupWGKoQUXflvVcAWlWZGJ+6tKoiWlI+ILj3qLMWvAEA2nStldEP8qgPUR/ACYWoj1GdZEVK53k3Pz19ZKqYJyKfKRQ8OrN59q0QUbfBUIWIut8c5b0qEMehqcgEgOA/aioytw05b/7zALBl2aXB4EmPp1wpor6DEwpRXxwIFjxsMKMAkSkeAN58uv4K73BXYGRERy5FvpA6EWPZt0JEhxNDFSLqNrPT7t6UIApseRIi9ekrlRV62/CLl38XAOY3NJrZcQy5hr0pRH0NJxSiPmzBkofMjNRDZkzyyx+5Pvz0ScUZxaLOFitDmltyUIgTgOEKER0WDFWI6HBTAPBwXtX2r0ngFFviWBqqzyz7xlGD7i2qqjQ2NsrUqVMZphD1UZxQiAi6YZKVEaUjQW83zT42Bq5v6cxPjYy1Le1551WNNYbXCyI6pBiqENHh5L1Xhfjq8siqqK8six+MysP7jhk3/78B4Pnn6+xZZ63w2J29EFHfxAmFiN61ZeelweB+pXPAu34x/WPtrTIvjOzF7e15ZPOpA1SMsG+FiA4NhipEdDiUSmjFx5G1NVUJiql/orpfMHfYuQt/DrA3hYh+HycUIvo9umyFQTEPqS/1rby95rq/zPncHZENTunMF1Fg3woRHSIMVYjokM5AANSps4G15eURnHO/C8JozpmfXvQIAGhDowF7U4joD3BCIaL3HyyWrDSYcqWKQHXz9WVbN/obi6mbai0G7WjOQQz7Vojo4GKoQkSHZOYB3u1NqamKAZHmJNLFQ5z7ZsWnHmpVhaBxpcjUKxmmENEf4YRCRB94jdDn642c1eAAYMuzN5wcBnpje0euTowxbe15p6rGsG+FiA4ChipEdLB5r6qAryyPrBjRyoronwKT/+ZxFyxbDwC6rt5iVIMX9qYQ0Z/aMHEJiGhvbNm6PBg86OoUAHaunXFea744L4rs+Pa8QyHvHBiuEFEXY6hCRAfLnt6UMLQ2iS0U/qmKjL9j+CUP/wgAtm1fEQwcUOfAMIWIPmxe4RIQ0d4YPOjqVPUho9po+o1Z+PMHf3rKeTDmC4ExG2urMjYMrXjvnXL0ICIiom5KAXgPZ62VqqrYRoHZEsY6ZfRJIycOv+ThH6mqNDV9wQ4cUJeCgQoR7QX+2oeI9n0g0YeMyDUeAN55/HMVaU3tLd7rFLHSb2dzFsYYB/atENEB4pMqRNRlswuwuzfFm5qqRDx8S1kSPHRsWHZncuG9LaX5ZokRmcreFCLaJ5xQiGj/hhOFANONyKJS38ra2SOs9bdm8/6vVBRt7QUHhTGG0QoR7R+GKkTUFbxXFcCVZaIgDAzKM8H31KZ3nnRR44vA7t6UMxu8CJ9MIaJ9xwmFiA6IAvLa1uX2uN19K289N/XibFbnZsJgTEc2RaHgHMC+FSLadwxViOhAeA8F1IfW2LLyGN675zK18V2nnrfwUQDYuH1FMGRAnWMJLREdCE4oRNQlVJcYYIqKiL7z+AOR7/frqzuz7rYkCY5saS/ApepEeCSIiPYeQxUi2l/Oe2/EmqrKCMWie6e83H711NPaH5Shj2QVkHWvTDOjT1nsuFJEdKA4oRBRl3rveeTml27pn8u3fblQwBQrKGtuy6kR4yHg9oiIPhRDFSLapxkEeLc3paoiFhVfzET2wcG1R8zr//E7twLAqqbpdsLoRQxTiKjLcEIhoq4fahSyek29mTC+wQHA1rX1Z5kg/HIhdZ9NCx7tnflUYawxvAYR0Z/GUIWI9mH2UKh3mSQMkiREGMm/2yj4+5POX/A0AKxaU2/Hn8veFCLqepxQiOhgDjiycdMKO2xoXQoAm5+c8pdFRDcHFqPbOvIopt5BxTBcIaL3w1CFiD7Mnt4Ua42trIgAj/WZJP76yZc88M8AsHH+5cGQ2Y85hilEdLBwQiGig66p6Qt21KgVXkR0y7pry30unpQt6JfLEjOguTVXek6XTbZE9AcYqhDRB/HeexExVZUJCsW0taws+NoRVdI4aNySXaqQdS9ON6PP5FEfIjq4OKEQ0SGzavVf2wnj/8UBwPZfXX9kYWdxTjH1ddZI1Nya8yKAMcZwpYgIYKhCRO/Pe+9Vgary2EA0TSL7SM2A8jlHjbl3I1A66jNhXAPDFCI6JDihENEhpaqCNVcZGb+iFK48P2sMjNxRKPhP5goO2c58qmKsEV6fiPo6hipE9PszBADv0zgTBmKBKDarQ9FbTr/swScBYPWaejuOvSlEdIhxQiGiwzUYCTDFiDQ6ALLzpS/+VXtb9tYosKc3t+fhHPtWiPo6hipEBABeoVB4Y9TWVCZQg1fDGN845dnT/lFuneGfenqKHTumkWEKER0WnFCI6LD6xS+m29NPL5133tE0s18ur/W5QnpjWRJW7mzJqqoqjwQR9U0MVYhod28KaioSky0Us7VV0d02U9FwwsS73wGAdRsm21EjlvKoDxEdNpxQiKhbeL6pzp41unQkqOX5G45pK+TvSL1+XgC0tue9gH0rRH0NQxWivstrqTelIhMaGwSIY/l2JglvP+78Bf8NAOs3TLIjRyxjmEJEhx0nFCLqNlRVVq+5ykzY07fy9Mzzcj6dKyIT80WPjmwxNWIC4ZWLqE9gqELUF2cBAOrTKAqDTGQh4p5MkmjeyZcs/lHpz5ebxYsF9fVXea4WEXUHnFCIqDsOVLJ67RQzYWyj+/K8heaGS391Ta6A6ySQ4btaCvDqHSCGZbZEvRtDFaI+de8HFA6itrY6gff4bXkmWPRbu2vhJRc+4tibQkTdFScUIuq+A9aGyVZ2n5N+c90Xj4h9fmZLW3pDJgmTXa1Zr6o8EkTUizFUIeobvHovEK2siG0xdcXqyuiBIIkeOGHi/W8CwEsvTbFnnNHIoz5E1C1xQiGibk/XT7IysnRueudzs07LOTfXO/xF6hTtnXlf2nwxXCHqbRiqEPVuXr2HApkkNOVJCBV9tF+/stuP+vh9LwGAbphkhb0pRNTNcUIhoh6hYekKM+qMn8jYMY84ANj8zKxPqvN3eujHsnmHXJ59K0S9DUMVot5JFVDnXZwENokCQP2LYRDcfvoVS35Q+vNGs3BxhJnsTSGiHoATChH1sEFMBWuvNDL2H92t8yYGMy85c0padDfYAMfsbMnBqzgBLMMVop6PoQpRL7uHA4Av9aZUVyYwFm8kkSx4ckfZwrq/ubeouswsXGgwc+Y1DFOIqMfghEJEPXMw2zDVyoglDgBeXzN9WHVFML15V35WFNuwpTXnFYARHgki6skYqhD1Hr70hmStLk+Mqk/LK4KloZF7jv/E4tcBQNdNsjKKR32IqOfhhEJEPZrqJCtSGsK2PHP9Gakr3mUC86lcNkVnNu8hDFeIeiqGKkS94T7tvVMgE4WmsiyEiv5owMDMLUeeM38dAGx58LJg8LU/TLlSRNRTcUIhop4/sC142GBGASJTPABsWnPdnznNzwsDO6IzW0S+kDoRwyNBRD0MQxWiHnxv3t2bEsTWViQRUu9eGVATzjnmgsXfAYD5DY1mdhxDrqnjUR8i6tE4oRBRr/H1BSvNzTOuVBHoa49cH2ZOKt5QTDHdWhzVvCsHBftWiHoShipEPY8CUA+nqqZfTSLeu61JJlx83MD+34hH3ZkHIEtWrpSpV17JMIWIegVOKETU24Y5wbp6I6MaHABse+aG433gvtjZWbg2NMbuast5AGKM4fWPqJtjqELUs3ivKoCvLI+tivdVFfFDKKbzT7ys8VUAWLTiiqC+7lEnuztriYh6A04oRNRrbdl5aTC43+MpALStv3nsrvbOeVFoLmrvKCCbTx2gwr4Vou6LoQpRz+C9V0B8HFlbXZkgdcUnagYm84aOWfDT0v14eTC439XsTSGiXokTChH1arpshUExD6kv9a28uXbWXxdyhTviKDipI1dEgX0rRN0WQxWibn6PBaBenbXWVmQiFF3xjSCK54y6omElAGhDo0EYQCbxFclE1HtxQiGivjH4LVlpMKXUt/LmujvLbXHbjWnqp1krA3e05GAgDuxbIepWGKoQdeP7qofz6m1NVQJAW8LYLjrhiOI3k9EPtapC0LhSZCp7U4io9+OEQkR9ZwAEBE3TjIxeXOpbeWr6KYiCmzpyhc8biGnpKDhRNexbIeoeGKoQdT/eq6qHr6iIrLWiFeX2X0LFN4795OKXAGBVU70dP7rBszeFiPoKTihE1CevfVu2LreDB5XOd7/53OyJhc7cV+MkPDebLSKXdw4MV4gOO4YqRN2H96oAfBhaW56EKHr3zBH9g9uGTVzyYwDYtmNFMLB/nQPDFCLqa/MKl4CI+iAdPOjqVPUho3c3mqPPvv8JeT05Xz2usiJv9KtOrLVWvPdOORoSEVFfvmEC8F6dMUaqqhIbBGZLFOnkU44aOHHYxCU/vm/+MrN+/bV2YP+6FAxUiKgP4q99iIgDoy43Ild7ANj4oxuqbWX+ltRjSmBN9c7mThVjvAEsr5hEhxafVCE6jPdGAPBwzntTU50IoO1xYh86dXB0p3z0gZ1/eP8kIuqrOKEQEQFQhbz2+hX2uGMfTQFge9PMj6qXL+UK7q88gNb2vBOFMYZVtkSHCkMVosPDK1TUu7KyKIhCizgKfhD78I5jL5vfBAC6ut5iXIMX4ZMpREScUIiI3kMVsnHTCjtsaF0KAO88V/+pXE5utdaM6cgWUCg6B7BvhehQYKhCdGh5DwXUW2tsZUUE9Xi+rDb+xskTH/hXAHhj0+XB0KMfcwxTiIjeM69wCYiI/ocIdNjQurSp6QtWVeWIsxv+/fXgt+cBmGUDeae2JrFBYMV7sG+FiIh6De+9NyJSW53YKJSdsZUbjxhcNvHkiQ/8qwLS9Mp0O2zIYykDFSKiP9g/cAmIiP401aVGZLIHgNaXrx/Q2uZudUU3yQrKdrbm1BrjIeDv0IkOAj6pQnTwee+9KqSqMhZVLZRl7MO1VeGdR5678G0AWF16RbLjShERvT9OKEREH0IVsnpNvZkwvjRUbl1bfxbC4DZX9FfkCx6dnflUYawxvKYSdSWGKkQH9d6mUO8ySRgkSYgwxH+YQO44+aLFawFg9Zp6O+5c9qYQEX0YTihERHs/gP5e38rbT173l0Ut3BKH9syWtjyKTh0UhuEKUddgqELU9byHCuDFiK2ujKDqNyRx5mvDL3ngXwDoxvmXB0NmszeFiGiv5xUuARHR3vmfvpVpVhXykXPnf6fGm4lFxRetleba6sSKqHjv+XpJIiLqdkr3J0VVVWTjyLSHgfnyGUfWTBx+yQP/rAo0vTDdDr2OvSlERPu0R+ASEBHtn1Vr6u2EcaUjQa3Pzjq6tahznHd1YsTuasmpMaXXBHGliPYPn1Qh6hree68AKssSIwJEkawcMqD89pox924s3c/q7IRxK9ibQkS0HzihEBEdAFUI1tQb2d23smXdzHMDDW9P0+InO/NFZDuLKcRYEV5vifYVQxWiA75HAerTOA6DKABsIKuiwN52ymWNq4BSmDL+3Ie9iPDJFCKi/cQJhYioawZXwdopRsY2OgCy48Ub/q6jM39TYM1pLS15OGXfCtG+YqhCtH+8QqHwxqitrkwAxatl5XLvPz1z6sNzbp3hn3p6ih07ppEltEREXYATChFRF9JXp1sZvsgBwPYXJ/VPC5n6jo78jUkmqtjVklVV5ZEgor3EUIVo33n1HipSUxVLvuhylWXBfba88oGTJ979DgBs2DDZjhixlEd9iIi6CCcUIqKDQJuusjL6YQcA77xUf1zaYeYVnf8/CqC9I+9LG0aGK0QfhKEK0d7z6r0qUJ6JTRgIbIB/raoKv3LMhEW/AgDdMMnKiGUMU4iIuhgnFCKig0RVZfWaq8yE8aXyv7fXXndBmhbuBPDx1Hlks8UUYgLhlZjofTFUIdqbew0A9WkUBUEShhBxz5aV2dtPurjxP0t/vtAsXFyOmfVX8c10REQHAScUIqKDP/DK6rVTzISxje4HP/6cPauy/1Wp+i9ag5N2tRTgVR0AY1hmS/R7GKoQfcC9BQA8nIraftUJvOprmSS8vzj0F4tPH/7z9KmnP2/HjlnJEloiooOMEwoR0aEagF+aYuWMRgcAW5++ebAJsjNaOgo3ZKIgbm7Le6jySBDRezBUIfoT9xMtvSO5ujwxKVyxtjx+ICjDgmPHN2wCgBdfnGo/+tElPOpDRHQIcEIhIjrUw/D6SVZGls6179ww67TO9vQOK+bP8wWP1s68N2DfChHAUIXoD3n1XlQ0iQNbUR7Dq3u0X7W9/ajxDS/94f2FiIgODU4oRESHQcPSFeacs1bJWaNLfStbnp99SSFfnGeNPbszV0A2nzorxrJvhfoyhipEJaqAOu/iJLBRaOHFbyjLhLeddsmS7wOANjSahWGEmZPYm0JEdKhxQiEiOoyWLl1hRo5aI2PPXu5unTcxuO6TI2dkvc4OrQzd2ZKDV3ECMFyhPomhCvV1e3pTIGqrKxMYo29ZKwsHTTht/oCKGQVdtMwsTAxmXnMNwxQiosOEEwoRUXcYnDdMtTKidP79rWe/eExs05ktbfkZSWyDlra886pihEeCqG9hqEJ9mS+9IVmryxPjAFdVHjxYnvh7jp645LcAoC9da+WMB3nUh4joMOOEQkTUjWzZeWkwuN/jKQBsXzt7VFHcPIG5vDOXojOb9xCA4Qr1FQxVqC9S9V5VNBMHtrw8hFf9yUf6m1sHjF38TOk+cVkwuN8PU64UEVH3wAmFiKi7DdQNKwym5SEyxQPAm0/O+mzqC/PCMDi9o7OIQiF1wr4V6gMYqlCfuvYD0NS7ILa2LAnhnP/vgbXRbcdc0PD/AcD8hkYzO4whk+p41IeIqBvhhEJE1E19fcFKc/OMK1UE+toj14dlJxVvKBb9DLHmI7taclDACYThCvVaDFWoL9jTm+JVbW11AoXfkoll6bGDjvhafOadeQCyZOVKmXrllQxTiIi6IU4oRETde9gWrKs3MqrBAcCm52edEIrclM+mV1mBbWnPO1U1xhhez6nXYahCvZ33qgr4yvLYinhfVZmsjKDfGHbRol8BwKIVVwT1dY862Z29EBFR98MJhYioh9iy9dJg8KBS30rb+pvHtnR03BWF9oKW1gLyxdQJVIR9K9SLMFSh3sp7r4D4KLQ2jjyKTlcdeYSdM2zi8p8DwJady4PB/a5mbwoRUQ/ACYWIqAdRXWHwQB4yu9S38tZT1/1tvpC7I47tCR2dRRSKjn0r1GswVKFedw0HoB7OGrEVZRGKrrixLMac0z710EoR0W82NJobwwAyia9IJiLqKTihEBH1xMF8yUqDKaW+lXdevrnCteRuSuGmWZH+O1pyEIgTgOEK9WgMVajXXLOB3b0p3tRUJSLQtjCyC8oH9f/mMaPvagUgeu8SkRumMkwhIuphOKEQEfXcIV3QVG9kdKlvZcezM0/zIjd25t3nRVRa2gtO2LdCPRhDFeoNvFcVwJWVRYENDSoywT+JxT0nXrDoBQBoaqq3o0Y1eBH2phAR9UScUIiIesG1fMvW5XbwoNL5+43Pz/hEvqM4Nwntx3M5h3zBO8AzXKEeh6EK9WR7elPC0NpMEsJ7/0y/KrnzuIuWPgYA27avCAYOqHNgCS0RUc8exLkERES9g+pDBvekkBuneN3wQLCl7bdXdhYKdyRJdFRrex4uVSfCI0HUczBUoR55LQag3ntjrKkuj1B0bmsmY+4YNqD/wxUf+/v8ffOXmYsufE5GjnzQcbWIiHo+TihERL1toNeHjEip5HDTT6fW2PLg1rSok61B5c7WnBoxHgJuUanbY6hCPeraCwAezqk3NRWJAGiPE/NwZkjNvONGfG1H6fq83Ihczd4UIqJehBMKEVFvHO4VAtQbkd19Ky/ecKYWi7dmC/7PvSpa2wtOAGMMn1uh7ouhCvWga65CvcuUxUFkDcrKgx+G4m8/9qLFTQCgq+stxrE3hYioN+KEQkTUuwd92bhphR02tC4FgM1rp16WLcjcOAjO7sgWUCg6B7DMlronhirU3XkPBdRba2xVRQTv/QtJv+SuUyYs+B4AvLHp8mDo0Y85hilERL14XuESEBH1XiLQYUPr0qamL1hVlSPHLPnh0I/smqgGs4zFtn41GWuMFa9wypGfiGivee+9iEptTWKj0Oy0odx0wsB44ikTFnxPAWl6ZbodNuSxlIEKEVEvn7e5BEREfYfqUiMy2QPAlnXXHuFyZV8p+sIkKzbe1ZpTY9i3Qt0Hn1Sh7sh7772HVFfGAoiLEllxRFwxd9CF97wFAKua6u2E3a+6JyKi3o8TChFRH6MKWb2m3kwYXxr6Nz89/ZzA2i+nqlfk8g6dnflUYawxvEfQ4cVQhbrZtbPUmxKHASSENfKfUXl054hL7n8SAFatqbfjz2VvChFRX8MJhYio724QZOOmy+2woY+lAPDWU9f9rdf0izaQM9va8ig6dVAYhit0uDBUoe7Ae6gVOBUJaqpieO9/AR/fc8afLfhHEejG+ZcHQ2azN4WIqM/OK1wCIqK+qdS38lja1DTdqkKO+vj8f6oahIne6U1BIM211YkVUfHe8/WfRNQnla5/iorKKIhj0xFF+pXaWpz30c8uWAkAq5+abodex94UIqI+PVNzCYiICABWra63e44Edb50/dCWXPH2fNF/wYrY5pacGlN6TRBXig4VPqlCh4v33qsCFeWxEVGNIvvIUUcEc/t/bNHvAGD1mqvs+HEPszeFiIgYqhAR0f9QhWBNvZHd4crv1s0816YyzykuQL6Ajs5iakQCEd4+6OBjqEKH4RoIqE/jJAwkAKJA1sQV0ZdPPb9hNQCsWlNnx5/7sBcRPplCREQAGKoQEdH7bywEa6cYGdvoFJCtL97wd4WO3JeiIDiluSUHp95BhX0rdFAxVKFDeM1TKLwYtVUVCcTi1TDEfac8f9pyuXWGf+rpKXbsmEaW0BIR0R/hhEJERH96o/HqdCvDFzkA2Phs/cDAh9OyufyNSRyUN7fkFFAeCaKDhqEKHQpevRcIqipiUyi6fP/qeH55XDb/yIl3vwMA6zZMtqNGLOVRHyIiel+cUIiI6EPp+klWRi5zANDx7PXHN2txni/q36pXtHbmvQBguEJdjaEKHUxeS70p5ZnYRKGBhPhuVUVw67ETFv0KAHTDJCsjljFMISKiD8QJhYiI9krD0hVm1BlPy9gxpU3Gm09Pv0hTvUOM+Xi+kCKbL6YiJmDdCnUVhip0MOzpTQmjIMhEIVT02fJA5p78qcbHS3++0CxcXI6Z9VfxzWdERPShOKEQEdG+bkgEWCEidf4HP/qcPaem/+SC87OtkRObW7LwKk4AI8J7DB0YhirUxdcuqMJB1ParKYNP0zfK4+iB/HG/WHj6yT9P75vfYK6bPU1ZQktERPuCEwoREe3fBmXdZCujSj0Dr6+a8ZGyMjOzrT1/XRKHUXNrzkOVR4LogDBUoS67Xqn3CqCqIjFp0aW1Vcn9LpZFw89b+AYArF8/xY4c2cijPkREtM84oRAR0YFtVt7Tt9K+4YYzmtsKc43gz4oFj9Zs3huwb4X2D0MVOuDrk3oPFY3iwFZkQqjoYxX9g7nHjV30PMDeFCIiOnCcUIiI6IA1LF1hzjlrlZw1eoUDgC3PzLg8XyjeaYw9s1Bw6MynqWHfCu0jhiq0v1QBdd5FcWCT2AKqv0wq7VdO/UTjvwGANjSahWGEmZPYm0JERAeGEwoREXWZpUtXmJGj1sjYs5e7dS8vDI5q/dVM5zEbxg5pbumEQpwAluEK7Q2GKrSvFAA8nBe1tZUJjGBLFJv5Owb0e+Dc0XflddEyszAxmHnNNQxTiIioS3BCISKirt/YvDjZykdLfSstTbOPzYvObm8rTItCG7S05Z1CxQiPBNEHY6hC+8J7rwLxleWRVYUrrwqXJ4juPeYT8/8b+P2jikRERF2FEwoRER00m7deGhw56PEUANr+e/ao1h361SCQS9o78ujIFb0RgOEK/SkMVWhveO8VEB9H1lZVJPBwP6vul7ll6Nj5zwDAlsWXBoOnla5DREREXY0TChERHVSqKwweyENmT/EA8Mbz1/25a8/PS+Lw1PbOPArF1IkYHgmiP8JQhT742lLqTQlCa8vKInjvfntETXTb0Asa/hkA9P5Gg1kxROp41IeIiA4aTihERHRIfH3JSnPz1CtVAH3y+U/Fx6cnfLHg0ulBIIObd+XYt0J/hKEKvZ93e1NUTW1NIl799iS2S0457civyZDbswBkwZKVMnPqlQxTiIjooOOEQkREh24zpJDXF3/GHlv//RQAdr448ySXmi+2d+avDq01Le15p6rGGMP7EzFUoT/ivVf14qurIqsqWlUV/kOQ+HuOHbf4ZQBYuOiKYHr9o06klL0QEREdbJxQiIjosNi8dXlw5KCrUwDYtWHm+I5OnRtZc0FLewG5fOoEKsK+lT6NoQrtsac3JQqtjaMAaerWDKiwdx5/2dIfAcCWrcuDwbuvJ0RERIcSJxQiIjpsVB8yeCB9t2/l9Sdm/51HcU4cyfEdnUUUio59K30YQxVSAOrhrBVbWR6hkKZvlEX2jtM+ddpKkZn+m/c0mhtvCCDCVyQTEdHhwQmFiIgO/8ZpyUqDKVeqCHTn6hmV2UC/5IHJRqT/zpYchH0rfRJDlT58TQB296Z4U12VCIDWJDSN/avla4PGLd4FlEJZhilERHS4cUIhIqLusokSNNUbGd3gAGDHszNPU8GXOvL+/4iotLQXnLBvpU9hqNI3eVUVhSvLRIENDCorgm8r0q+fdFHjiwDw/Lp6O/rMBs/eFCIi6g44oRARUbe7N23Zutzu6UfYuXb2J1uzublBEozNZVPkit5BPcOVPoChSt9S6k0xPrRiy8sieO+fq6iUO076xNLHAGDb9hXBwAF1DmCYQkRE3Whe4RIQEVE3o4MHXZ2qPmS+eXej6Tfm/h/piclEo+5aMXirtjK2NrDiPZxya0XU87/wALz33hgr1VWxDSNsDyM/o+KjR0486RNLH7tv/jKzfv21duCAuhQMVIiIqJvhr32IiKh7b7h0uRG52gPA5ldvqvW7sremqU4JDMp3tuTUGOMh4HMMvRCfVOnl320A8HDOe1NTnYh65JJMuKyyNr5z6Jh7t//h95+IiKg74oRCRETdf/OlEKDeiJT6VrY2zR4tXm8ppu7PU6doby+kClhjWGXbmzBU6dXfaYX3LlMeBVFoUZYJ/90E6Z0nnL/kWQDQNfUW57I3hYiIuj9OKERE1JM2YrJx0+V22NDHUgDYtHbyn/licGsQmLPaOwsoFr0DWGbbWzBU6X28hwLqrTW2ujKCd/6Fsn4VXztpwn3fAYCN8y8Phsx+zDFMISKiHjOvcAmIiKinEIEOG/pY2tR0tVVVGTJm6b8ZE0/0DjcYY7b3q85YY6w473lcgKib8d57EZXa6sRGgdkZBHLj8QPjiSdNuO87CkjTr6bbodc9ljJQISKiHjWfcgmIiKinWr2mzo4ft8IBQH79zEHbcnp7WvBXW5G4uS2nZvdjK1ypnolPqvQO3nvvAakujwXQNEmifxw0KJwzYPT9bwLAqqZ6O2H3q9SJiIh6Gk4oRETUo6lCVq+pNxPGlzZlO5puOCf16VzncUk+l6Izm09VjDXCe15Pw1Clx383AfVpHIdBHIQwAX4al8vtwy9c/CQArFpdb8ePY28KERH1bJxQiIiot2zg3tu3Im89dd3fOF/8UhTKiOa2ApxTB4Uxhve+noKhSs/kFSoKL0ZsdVUEhX+5PE6++X+fW/CtubfCszeFiIh6E04oRETUqzQ1TbejRi3yItB3nr6pNjWFyZ0duS9nMlHlrtasqqoKm2x7BIYqPU+pN0VQWRGbYt5lq/vFX6s20njkhYu2AZD1v5huRp6+iEd9iIio1+CEQkREvdKqNXV2wu6+lW0bZgwrduqcQk6/YAJIS1veCwD2rXRvDFV6Dr+7HLo8E5soMghCfaSmQuYeNb7xtwDw0oZJ9owRyximEBFRr8MJhYiIei1VFay5ysj4UrjyxnM3jofJzXUpLkAuRUe2mBqRQIS3w+6IoUpP+I4BUJ9GcRhEgYEYeTqJ9SunXrrspwCw9plJ9qUXx+rkyXV8IxcREfVKnFCIiKgvbPwEa6cYGdvoFJCtv7ju84WWwi1REJzc3JKDU++gwr6VboahSrf+TqkqvDFqqyoTGINfZzLxPf+NHcsvv/ARp7rCAHXK3hQiIurtOKEQEVHf2Qi+Ot3K8FKfw+bVMwcFiZnS0p6/KZMJy5p3ZRVQvoK5G2Go0j159V4gqKqITaHgCgNqy+4rlOnCU85d+DYA6LrJVkYt5VEfIiLqEzihEBFRn6PrJ1kZWep32PXMrJPa1d/hUv1rqKK1g30r3QVDle7Fq/eqpd6UODIwBt8ri8puO/6T9738h98rIiKivoITChER9UkNS1eYUWf8RMaOecQBwNurZ36iCHenNeacfCFFLl9MISZg3crhw1Cle1AFvPMuSQKbhCEg/tmysnjuyRcvfLz05wvNwsXlmFl/FXtTiIioz+GEQkREfXzDqAIsFpF6/4Mffc6eU9tvSqHgrzOBHL+rpQCv6gSwDFcOPYYqh/m7AQAeDqK2tioDiH8tjIPFbtgv7z/95J+n981vMNfNnqYiwt4UIiLqszihEBER4fd7IDY9dcNRYVCY3dGRzkriINzVlvWqPBJ0qDFUOXx86aSPVlckxjuXVlTHDRXW3Xf0BY0bAWD9+il25MhGHvUhIqI+jxMKERHRe7y3F2LLi9efUcwV7rCQz+TyHp3ZvC9t9hmuHAoMVQ7D5393b0och6ayPIaoPpapMHOPO2/R8wCwY9llQf9JP0y5UkRERCWcUIiIiP7AgoaHzYxpBYhM8QDw9hNTPl2wMi+w9qPZXIp8PnUihkeCDjKGKoeOKqDOuyAObFls4VVfqSzPfOXkixd8DwC0odEsjmPUX1PH3hQiIqL34IRCRET0JyxY8JCZMcNDZJJ/7ZHrw8pT3Kxczs0ygTm6eVcWCmHfykHEUOXg29Ob4kVtbWUCAd6JE3PvjgH9Hjh39F35+YtgkmQlpl5zJcMUIiKi98EJhYiI6MM2nusmWRlVOhK09anpxwWZYHZLa35aFFrb0pZ3XtVYY3hP7WIMVQ4u770KxFeWR9aL+qqKZFlZ5B44euLiVwFA19dbGdngsTt7ISIioj/GCYWIiGgvbdl6WTB4UKlPYvtLM8fkOv28MLCfaO8ooiNX8EYAI+xb6SoMVQ4O770C4uPI2qqKBE79z2tqktuGjpu/BgC2NFwWDK5nbwoREdHe4IRCRES0D1RXGDyQh8wu9a28uar+f3vReUEQnNyeLaBQYN9KV2Go0tWfXUBVXWiNLSuPkKbutYE1lV855sL7/gkA9P5Gg1kxRNibQkREtLc4oRAREe3PBvXelQbXX6ki0Je+Ny0ZeGRwY9Gl08PAHrGjOQcx7Fs5UAxVuvDz6uG8qqmtTsSr355EZllt//KvHnnOvZ0ARJesFJnK3hQiIqJ9xQmFiIhofzeqCnn93ivssV98NAWArWtmD7cZ3NyRLXxexJiW9rwTVWPYt7JfGKocOO9V1cNXVEbWAFpdHf3f8th/7chxi18GgEUNVwT10x51IuxNISIi2h+cUIiIiLrAlq3Lg8GDrt7dtzJrYmdLbl4YBhM6sh65YurAcGWfMVTZf96rAvBRaG0cBfDePVWR6NxTPrX8x3/4eSUiIqIDmFe4BERERAdu8KCrU9WHjN7daAac8cATS39y6vkKc5UYvFFbmbFhaMV775TPA9BBpAC8V2eMkdqqxNpA3goiTD7rz0dOPOVTy3+sqqK6xDBQISIi6hr8tQ8REVFXb2z1ISNyjQeAnb+ZUZlrxs2ugGnGoHbnLvat7C0+qbIPnzkA8HBevamuSkSMtkfGLMtk4q8ed+EDO0ufyyVGZCp7U4iIiLoQJxQiIqKDsclVCNbVGxnd4ABgy9rZI8JQb+rIuc8Bipa2ghPAGMNo5U9hqLJ3vEJFvSvLxEEYGZTFwXfK4vDrR583fx0ArF5Tb8ed2+DZm0JERNT1OKEQEREd5Hvtlq3L7bt9K2vrL20v4LYwMGM7c0XkC84B7Ft5PwxVPpj3UEB9aI2tqIjhvWtKYjfvlEuXPwoAb2xaEQw9uo4ltERERAdzXuESEBERHVS6p2/lm3c3mgFjGh7X48KJRt1ka+Wt2prE2sCKV7BvhfbuAwXAe++NEampSmwQ2W028DOOOhYTT7l0+aOqKk1NX7DDhtSlDFSIiIgOLv7ah4iI6FBuiHW5EbnaA8D2plv65wrttzqnkwKD8p0tOTXGeAj4XAb4pMoffXaAPb0pUl2VGPU+l0TB8rh/dOcJYx/YCgCrVl9lJ4x/2PHTQ0REdGhwQiEiIjrUm2OFAPVGpNS3srVp5mjjzVcKRfdnqfdoby+kCti+3rfCUOX3PjMK9a6sLA6i0KAsDB6XxM094fwlzwKArqm3YG8KERHRIcdQhYiI6PBtlGXjphV22NC6FAA2rb3uz5zL3xYZO6qts4Bi6h1UjDF9837NUOV/elOsMbaqPAKMvlBWG3/jxPELvg0AG+dfHgyZ/Rh7U4iIiA7XvMIlICIiOjxEoMOG1qVNTdOsKmTImPn/1tpROdF4vTGwZmdtdWKNEXHe8zW4fZD33ouo1FYlNopMSxD5L2dGRBNPHL/g2wpI06+m26HXPcbeFCIiosM5z3EJiIiIuofVa+rt+HGlI0E7Xr55cH5Xx5yi06uNkbC5Ladm92uC+sp69NUnVbz3XgFUlcVGRX0UBiurquLbj5l4/5sAsLqp3o7f/apuIiIiOrwYqhAREXUjqpDVa+rNhPGlTfPm52aMNYo5qubibD5FZ2c+VTHWSO+/h/e1UEUV8OrTTBwGVkIE1v5XHOu8Uy9vWA2UQrdx7E0hIiLqVhiqEBERdc8NtmDtFCNjGx0A2fz0df+n6Is3RYGMaG4twHtNVWF7c99KXwlVPKDw8MaoralK4Jy+WhYl95x06QMPi0CfenqKHTumkWEKERFRd5xXuARERETdjwhUxja6Z9dNt6rAkWPnPxKasokquDUMpa2mOglE9N2jItQzee+9ekV1ZWTjKMjGsbm9srZq4smXPbBcBFi3brr9+NhGFtESERF115mNS0BERNT96Zo6K+NWOADYvuH64wtt+TmFIj5nLKS1Pe8BoLf1rfTmJ1X2hGHlmdhEgUEUyz9XVgV3DDl34a8AYP2GSXbkiGXsTSEiIurmGKoQERH1EKoqq9dcZSaML4UrW5+ZMaHg3F0AxheKis5sMTViAukld/feGKqoAlCfxnEY2MAABs9UVga3Dr9w8U8AYO0zn7MvvXihTp5cxzc+ERER9QAMVYiIiHrexlxWr51iJoxtdLfOW2iuu/w3V+Vy/qYgwIk7W3LwKg6A6elltr0pVCmFKXAQtdWVCYzgN2Fi5g+3rUvlwkfc6qc/b8eNWelFhMd8iIiIehCGKkRERD11o75hspURSx0AvPbT64+sqPL1LW35G8oSmzS35r2q9ugjQb0lVPHqvQCorEhMmqbFyurMgooyuW/IuQvfBgB9aYqVMxp51IeIiKgHYqhCRETUw+mGSVZ2929sfnb2cFdM74TBX6Spor2j5/at9PRQxav3UCATxyZJDBDi0YGZ6MsfOW/BLwFA10+yMpK9KURERD0ZQxUiIqJeYEHDw2bGtA6IzPAA8OZTMy51Pp1nbHBWIZeiM9/z+lZ6aqiiCqjzLooCm0ksoPpCJrZzhl/e+AMA0IZGszCMMHPSVexNISIi6uEYqhAREfUiqiq4f7HIdfV+3byJwVGXj55cLBSvD4wct7MlC6/iBDDSA/pWelqo8t7elNqqBE6xKclggRt22v2nnzwjXbhomQkSg6nXXMMwhYiIqJdgqEJERNQL6S+mWDm91NPxmyemDemXiWbu6szPiuMw3NXa6VW7/5GgnhSqqHoPFa2sjG1a9K6qJl4UB+EDx54//zUAWL/+Wjty5IMeAItoiYiIehGGKkRERL3Ye3s73nlu5kfTot4BgytyeY9sruBUVbpruNITQhVV71WBOApNVWUM791/VNWEc4aNW/gsAGxZdmkweNLjKT+JREREvRNDFSIiol5OGx42mFaAyJRS38ra+s+kqb8jDIIzOrNF5POpEzG2u/WtdOdQ5d3elDiwmUwI79zLmfJozqkXN/xrac0bDeIYck0dj/oQERH1YgxViIiI+ogFCx4yM2Z4iEzyq5ddHp/w0ROu80VXL4E5unlXFgpxAnSbcKU7hioKAB7Oi9qaygQG2BpGWBRER9570oVzsvcvgomTlZh6zZUMU4iIiPoAhipERER9jL4w2cqZSx0AbH1x+nFSDG5o7yxMjgJjW9rzTlWNMeawzwjdLVTxHipQX1keWw/vqyqS5UmZ3Dt03IJfAYBuqLcyooG9KURERH0IQxUiIqI+asvWy4LBg36YAsD2528YUywW7rSBvaitI4+OXNFbAUQOX99KdwlVvPcKiI8ja6sqInjvn6jub24b+vElq0vreGkweBB7U4iIiPoihipERER9mOoKA+Tf7VvZ8fx1f9WaLcyLrT2pLVtAsXj4+lYOd6iiCqiqs9bYykwM54sba2uTW4+7YNEjAKD3NxrMiiHC3hQiIqK+iqEKERERQResNDLzSgWgL706LTmi2dzkPKZbawZub85CzKHvWzlcocq7vSmqpl91Ik61OY6wuP0o/do5ZyzrACC6ZKXIVPamEBER9XUMVYiIiAgAoArZuvgKO7j+0RQA3nxm2qlJEN3Y0Vm40hoju9rzDoewb+VwhCreqwrgysvDQES0qjL4J4F+44SLlmwAAG2qtxjV4EXYm0JEREQMVYiIiOh95oMtW5fbwYOuTgHgnRdnXtDZWpgbh3Z8W9ahUHSHJFw5lKGK91BAfRhaWx6HSOGf7l+mdxx78YP/CQBbti4PBg+62oEltERERPTeeYVLQERERH9ABw+6OlV9yOjdjeaIjy746YM/OeU8MfYaa2VTbXViw8CK93DawyMGBeA9nDEq/aoTG4byZhCZKUecUz7x2Isf/E9VFdUlZnfAxECFiIiIfg+fVCEiIqIPpPqQEbnGA8CmH19fHVQUbil4TAkE1TtbcmqM8RB0+bMkB/tJFfVwTr2prUrEq++I4/Choz8Szqv56AM7Sz93o9lT4EtERET0fhiqEBER0YdShTQ9WW/OGtfgAGDb89POgERfzufS/+1U0d5WSFVgjem6KtuDFap4hYp6l0miII4tMnH4/0IrXz32ogVNALBqdb0dP469KURERPThGKoQERHR3lPItk0r7MChdSkAbHlu1qey+cJtsQ0/1p4toFBwDuiavpWuDlXe7U2xYsvLY3jv15WXVdx58sX3/RsAvLFpRTD06DrHMIWIiIj2el7hEhAREdFeE+jAoXXp+vXX2nvvW2YGn/3Avx9Z7ScW1deHRrb0r0msNSJeu1ffivfeGxGprszYILQ7wzCcfeYp/SaefPF9/6YKaWqaZocNqUsZqBAREdG+jUZERERE+0l1uRG52gPAWz++8QipzN1aLPprbSCZ5l0H1rdyoE+qKAB4OOe9qa5MBOLzUWgersqYecMuXLIFAJ5YXWcnjl/h+DdJRERE+4OhChERER0QVQhQb0R29608M+tsCeS2fMF9uuA8OtsLqWLf+1YOJFRRhUK9yyRhEMchklh+ZCJz+4nnL3oGAFavqbPjzn3YiwifTCEiIqL9xlCFiIiIuoQqZOOmFXbY7r6VN1+47n+5jsJXwsCc2dZRQDH1Drr3fSv7E6rs6U2xxtiqyggKrK/tn/nasHPnfxuA6tNTLMY0soSW/v/27iA0riKO4/hvZt7uZrPdpNGDqMEiFU9tpbaHLk1TD4Li3V4UsUEkddNClVAwB0M8SqllNxJKQQoeioJHD4ogTXAD2mJNIRa8WEEPim4ad7vb3Td/D6kIatFDduPh+zm/9w5zGr68+Q8AAJuCmSoAAGBTOCfb8dDR7uXVV4JJbnTvmQ+3R384pn46Cf6Xe4fzwbvgYow9uaY4xhhNppGhgZDN+rVs4l+/f8Qd3nHwzEVJdu2bqeBKCwyiBQAAm7f/YQkAAEAvXLpcDuP7No4EfffV8QeSps12U73ovGXq623zd64Jutv7//VPlRhjNJOGCjlvzlk+7y5sHym88eCB0zck6csr5bD/8XnmpgAAgE1HVAEAAD1jJqelsneHNqLGz1ePl7ptP+fMnmy2UjVvtbvmfPDu73uSf4sqZpIsdnO5TDKQychn3aeDLsw98kzlkiQtLpXD2MF5jvoAAICeIaoAAICeM5PT8qR3pYVUkltfnn6u3m2cSrLJrvrNtmJqXTMF7//cm9wtqkSTBSk155LhYlZmWt1WzL39Xu3s+dkZxc9rk6HE3BQAANAHRBUAANA3165MhV17q1FOtvrxiXuGi1ZuNDunBguZwq/1lunOJFvpn6NKtBidnIa25fztTtoaKgy8VbxPldF91Z8kuZWVKb97d5WjPgAAoC+IKgAAoO9s6WhwY++mktRYeXXnWiOd7XTT5yXT+m/tKElJ4v0fUcV5i2ZSIZ/zuYxX4nVxcDiZfXi8el2S7OuXg9tzjpgCAAD6iqgCAAC2hJm5xaUJP35oI678WDv2RCe6N4N3Y61WVLuTpo1GGm7W07RQSEI2E+SDvijmMjM7n6p+svGNiq+8U9CJ8kRkRQEAQL8RVQAAwJYyk1tcnvTjpYV0Zq7iTz59faLZ0XQS9Oj3P9wyb8Hlsv7bfCFzullbOf/YzGfdxdoLYezAheicY24KAADYMkQVAADwv2DvPxvckQ9SSbr60UujgwPhtbX19Fj3ts0nFs7uP3Luxl+fAwAA2Eq/A3SprwzWQcXrAAAAAElFTkSuQmCC;" parent="1" vertex="1">
          <mxGeometry x="359.68" y="185.00000000000006" width="60.64" height="70" as="geometry" />
        </mxCell>
        <mxCell id="SJgRToUTvnGPl91xTuY3-5" style="edgeStyle=orthogonalEdgeStyle;rounded=0;orthogonalLoop=1;jettySize=auto;html=1;entryX=0.5;entryY=0;entryDx=0;entryDy=0;startArrow=none;" parent="1" source="SJgRToUTvnGPl91xTuY3-6" target="SJgRToUTvnGPl91xTuY3-3" edge="1">
          <mxGeometry relative="1" as="geometry" />
        </mxCell>
        <mxCell id="SJgRToUTvnGPl91xTuY3-2" value="&lt;b&gt;&lt;font style=&quot;font-size: 14px&quot;&gt;Package registry&lt;/font&gt;&lt;/b&gt;" style="text;html=1;strokeColor=none;fillColor=none;align=center;verticalAlign=middle;whiteSpace=wrap;rounded=0;" parent="1" vertex="1">
          <mxGeometry x="327.98" y="250" width="124.68" height="30" as="geometry" />
        </mxCell>
        <mxCell id="SJgRToUTvnGPl91xTuY3-85" style="edgeStyle=orthogonalEdgeStyle;rounded=0;orthogonalLoop=1;jettySize=auto;html=1;entryX=0;entryY=0.5;entryDx=0;entryDy=0;" parent="1" source="SJgRToUTvnGPl91xTuY3-3" target="SJgRToUTvnGPl91xTuY3-16" edge="1">
          <mxGeometry relative="1" as="geometry" />
        </mxCell>
        <mxCell id="SJgRToUTvnGPl91xTuY3-3" value="" style="shape=image;verticalLabelPosition=bottom;labelBackgroundColor=default;verticalAlign=top;aspect=fixed;imageAspect=0;image=data:image/png,iVBORw0KGgoAAAANSUhEUgAAAQAAAAEACAQAAAD2e2DtAAAABGdBTUEAALGPC/xhBQAAACBjSFJNAAB6JgAAgIQAAPoAAACA6AAAdTAAAOpgAAA6mAAAF3CculE8AAASS0lEQVR42u2deZyOVRvHfzNomshkN2QPjbFmy67eFGNJlCVTilKf9BEiZWmhlLQp1SskFS1SETG28GrxMpZCRaWokLIbyyzP+8dj3tme5577Pve5zjn3/Vy/6//7us75nuc5+3UAv6skEpGEuzAW0zAfn+Mr7MReHMJJnEE6spCFdKThBA5hL3biKyzFPEzDWAxGFzRCabA8pxg0RD9MwgdIxTEEXNpRbMb7eBLJuAqxXLnmKhZtMRJv4zuku4YezjKwE/MwAm1xCVe4KSqLmzANm3GODHsoS0cqXkJvlGcA+n7xnTAF25GlFHx+y8I2PIcbcDEDUaeKGIxPcEor+Px2GotwFyowHFrF436sRYZR6POOEdZhGCoxKPmKw51YaTD6vM1gNQahJEOToyhcg7mG/eHbsTS8jY6IYoBuVAoj8IPn0Oe23RjJi0liSsQbSPM0/JwB4kzUZ6BOdC1SNE/v5E8Xl+M6Bmunx++Fjb5Cn9s2oRePCqzhb/Mt/GzbjpsRzbALqksEwM+2bejGwHPraqyLGPjZth5XM3gAqIb3fDbgsz8wfB/VI31D5wmciUj4OctFEyN3a7knfo1o+Nm2Fz0jD34VfMroc9mnqBJJ072hOMHQ89lJDI2M6WEtfMG4w9g61PL7b38ITjJoCzuFe/y7VlgBSxixDVviz5NF1+Mgw7VpB9DJX/CL4hlkMlgHlonJKOoX/BV52Cdka1HRD/hb40+GKWh/oq3X8Q9RfGHDb3YOd3u555/OCCXYq94cDcRhOcOTZCneO2ReBTsYnETbgapewt8AvzM0ybYfDbyCvz2OMjACO4b2XsCf5JPT/GYeHzH+LGE/nGdQhHYefU3Gn+yR65tetgwkm4p/IONX1AQGmoh/AONXuFU0wDT8txCmZmIraOm4xST8XXjop2GXoLMp+NvgNAPRYKfRxgT8iTjCMDTZEdTTjb8SfmMQGu1XvSmpSmArQ9BsW1BCF/5oLGYABtgiXRdKpnLlG2JT9Sz7csWbY8qXh5vynp9h+4RNVeIvw2N/A+cDZdQN/j7nCjfQlqoaDI7lyjbUHlFz0YO3fczdImpFjf8yaWldVqEOiiMKMaiApuiDJ7EMxyNkwLYaUzAALVEZxVEMcaiHNZK+vRdxtA1gvrRq6BnyKkkzTECqb7OGfYtJaI1iIUreS5qPeZT4+0oL8x9cZOGnJsZjt6/Q/4ZJlhs3MRK31PpQ4Y/HP9KCnFWotyh0xIc+GG9kYhE62xifvynN49+Ip2kAMvN6dbXpsyqe93BCqTRMxxU2S9pdot9PKfD3l3qUwckrW6XxmAevmpzEFJRzUMpYqWur/eSv/R2WGN4yx/5L4SkPPRtzBi84gh+UzMu0f8leF3xTagWNFhyDzPDAmCAT7womfXxIahyzZOJvL3liJp4nuwFWGY3/SzQTLlsrqZFkoZ0s/EXxndTQziLG5RH0/Y7HxalYijl4FqNwF/oiCW3RDI2RiLqoi/pojOZohyT0xd0YjamYi8+x1fGc5yCSXeX4i8FZqfW8XVZiiWGSfyWpEo6iPVdIZ3AAa/A6RqIrElDchZ9EJGE4ZmAtDhXyx/8aLnNdrlTJNX2/DPzlpI/A50g6kbAlxHLLB3gYnYmya1VCF4zBRyFyH+xEayke5kg/NVzWfVCvSO8nx0jrmsbjHALIwna8iN64XNl5iMq4BdMuPFydjsnSno4eI72uX3YbUl2COz83S0TRQOsT7mVwC5pL/N7N0uv6POq4C+ljgpFyC7BCqwVBbS90FxDFvlxVJh1GVQhqO8vNf9RKkrnypUw67KyDor5XiC//UISTwW9nWuyA0qx0Ci4J0ay5nWLOFqLZ+VwpEkobosXSE0zZQlS7ngLrFFSvexxnyhoawGfO59dU5/LSmbKFzhLVehbqOwvkbcIdsxjmHHZtk67W5zoJJJ40y39lJh1GFQhr/ZyTk4KTSPfMr2LSYdSItN4n2g0jBn+RBnITkw6j7qT1fshu53sr8amZ0Uw6jIYT13x/e2GsJw7jLSYdRjOJa36dnSDqkZ+b28akw2gTed0nFB4EfeafDN4OCqlYBflWny18JnpAwdnZzkw7hK5VUPN/FnZQtJuSw9MvMO0QekZJ3SdZBzFPSRA/85ZwCO1SUvfvWoVQXNn1q9bMO5+aKLuzaHFMvp+iILJs3w6OHHVS9r66Rf6ADxWFMIZ5h9BIRbX/QfhpyEklAfBCUDi9oagTiA3tvocS95ukXaPwn2LwtRIG3fW1v+OoyZwtVFXJ8xszQrmOwh8KXPdnxoWotwIKv4eahquYhixgvjY0XwGJRgXdPkTu9B+Nt/i8pDLE5zECCGBUQbcryJ3ew2xtahA5i5SC40/q/P+puh428aCisJE8gV2+00HtyNvcdczVgTqQ82ib1+F4YncrmalDLSMmMjavuxRidx2YqEO1ISaSJ1djNHEmzi+Zp4DWkTI5knstIIG4tfVlmgYuCV2Z4+oO4mNIxZimgIqGyEcm0wbmuHqZ1NFUZimop0m5TMtxRHsToAGTFBTtEf11OcsOlBn5v2eOLrSTdGf2wjCwOmk7e5oputBTpGyqBZ0kqVxxYhm0GtAl6GQU6fEjngG4UTHS7vnBoBPKk0DLmaHBS8IXTgatIXTxBBN0qccJ6awOuthH6ILP/7tVV0I6vwLARaQXEqoxQZeqSkgnE8WAGqRDQL4D6FZRpLc1qlNlBA7aVuYnQVsJCbWT+yBkflvE9CRoMe0xfcrERK8yPQl6jZDQA7Q7TjwJlKGJhIQmA7MJPz+c6UnQCEJCs2heBcq2QUxPggYTElpIuw54G9OToNsICa1BiOcX+SygWaLM27IF2MMNwHD1JSS0G6QHD29lehJEmbt5P0gTEtzO9CRoIOmNbZwm/PzdTE+ChhASOg3St0GGMT0JGkZI6CyQoe4CIktI4wgJZYDsdbAAAniG6UkQZQ7hLJAeB5nB9CSI8sxmJoheqw3aR0xPgj4iJHQeOEP4+fVMT4IoL+6lgTQzwG6mJ0G7CQkdBQ7SzjJZrkW5UnMA+In08lFZ5udSZUn5/ARsI3XQggm6VAtSPlupcwPwdpBb9Sflsw5YROpgIhN0qSdI+XwCzCF1wCsBbrWAlM+bwLOkDngi6FY/kvKZAjxI6iATJZmhC11K/JTUSCCZOBvdtUzRhToS07mV3gVvCbvRw/QpfK9QmZOW5VBLienUAmKIe5kTnCVIWEVxnHiEFgOAOCFpAO2YpKCoM4bvD7pZT+yGMwWK6iliMhdyhc4idrODSQrqW2IyM4Nu6N8Lu5JZCqg2OZfRQUfdyR09xjQFNJ6cS7ego5rkjnZzsigBfU/OpUbQUbSCV8PbM0+Hak3O5ETOz3IDubP5TNSh5pIz2ZDjbDq5s3OIZ6YOVB5nyZm8kuPuTnJnvBrgTBMVELkjx12iAnfHUIq52lRJ/KOASL0ch9HEa858PMyZJij5QeZ5yzlFgcuTqMBsbagMjimgke8lh0cVuOTLovY0XQmLCXmddlDiNAPNmG8hakx6XTfsyszFpJdEcywVRZmxhYrgGyUc0oInAXJrlRLHAYxjyhYarYjCyoKuxyhyfR5NmXMYNVSw/BO0hwo6b6LIdQB7EMesQ6iEgu2fbGtS0H0U/lDmfnHeOSgLQBTxHaDc9kfo3dmZygLgheGCelxh7c8MHUIPhSEEcC8zR+7dmCyFdd89dBCxOKUwiAz0Z+4X1FvR3D9opxAbLpAFSv8D0jmb+AX855XW+4LwofRRGkgAGZxNGHco/fUHEECf8MEUV9oJBO2JCD4vGIXxSvv+YAdQ3Cqk+cobQAAfWIfkW12CeRpqe551UF01hBTADtSPOPwJ5Nc+QluSdVhFcUBLWGkYFkFdQRSGIk1LPR8ofDNuqpbAAghgDepEBP7aWK2tjp8tPLx6yoclOXYGj+ISn/f7jynaeA9tCXaCXK8xwAD24zaf7hQUwUDs11q3NpN3D9AaZAABfI++PmsERZCscK8vnA2wF2yMUALp/ViKWXgZ7+JrKVfN9uA+n3QHJTEcP2uHH8DBgqeAwmmSw0+n4Kp87b0ZHsUu1yEfwTSPTxCbYwZOGAA/gAAm2Q+7kqO3xP4K27LaYbGEIeUmjEAlz6GvhXHYYQj64OU8R3Xo5GriYcu55dXYKCWd0Zd4KPddFoN7+5aYhO0GoQ/aXGfFaOjol2v9PmA0Rkqb+uzDLCSjuoHgo1EfQ7FAyaUu55aFhk4LtMTR30vnQr7WBHulFuhXLMCDuAalta/p1UQvPIkU0qd33NsS50VzlqLsbKHHO8rha5KWvRdLMBWD0B7xihaT49AYN+NhvIWNxgzwCrM2IgVd5RDFC7jI8nvFsYJ8R2EX8RslPUgf26ay1WKFbe/Y0Va0svxiLL7w/EnDER5sAMIJelYIjNat/wfiSDdBn1LSBbzoMfwrxYvaQmgWvwHlLL5ZHYeJCrpK0fJxUQU5lWSOklx1igsFl3GrWXyzC8l+43FUUTb2r6nh6JyoLXRX1DqCJ1b3WuJ4laCgw5VO/x7xCP501HVbVNF0BT9YzNFLSN8W/UlxUvqLsc8TDWC6+6KWEZ74rLWA0ltyQQcrXwK6zwP4j8p5uXWYcAAvWXx1sdSNzos0nO352/gG8ICsUa/41O3GsF+tKHE2MFnLMvDzhuP/Tl42lvbC4/ZDKB/2q92kPVaToKUBNDJ8+tdBZmHfFA7EKkuwnCvR+h6k2GNwA5gjt6hl8ZdwKNdZ7KW9I6GoU7Q1gBeMxX9YzvAvt/q76IuKhP1qMXziurDXa2sA3YxtAAMoiruYZJJWzOV9xExcqq0BlNJ4h0Ly7r8dxQufdtlnOU2LwkQXw8FdWg+E7DYQ/xG6E5S3ki3UdMGfgl/+UGsD+DhS/v6zJfp3vbvQnbrSeB0Zjr/7O27S2gAmG4f/fdoCX4bfBAPrYePrCXjX9ubTWXyCntqfpR1iGP599K8ytBFMabLc9khjFL6xHBPswxz0Q0mYoCSj8GeoeaZ3nOBovaqjLahuGI+3sRpbsQs7sQkpmI1x6OnoK/RqaVQDmKCm0NFYJhSeH18MqWMQ/hR1F2rLCo0EDqOE7xpAFYN6/3IqC95U6K7PeN81gAqG4D9DfBw+hAYKhHnCg5c8rVXOkAZwp1f2wxdyAyCwF/UUvgiWCgR7u68aQHkD8C+z2Gwj1qXY6jjcU77KCai/AXyrd0XkcoHTsb9YnBLiQaDTpfAquqsgUeBi9BZc5pMGUFEr/mNoYEIltBPIerkJZbgBuL4L3cGUaugqcH/oR9TyQQOI13jnp7tJFdFHYCv3qFlF8FQDyDTvvZXbBU71ZOHfhuzqiaqSJvyDTKyMO4QOdv2BZA9nBa2kBf9gU6tjoEBHEEAA29BH32KGK1Vm/HnVT/gBpF8wwbC9fnvrIKqHfgNMr5IeLnICZmEjJqCtzaue5dEJj9AfgbKU2u3gM5pPQNpURxx3WdCzSMUcTEAyOqEZaqMmqqI6EnA1knAnJmAONvz/plI1rWWtqhD/CVzrlT/GRvhdWbXU0FrS6srKeSBfQm7DVU1ZomS9y0k1FJXye80NXUBx5Gkhg1ZbaylrKinjGs0jHUEVE84v5MTqai3jFQpKOEP77QcXutfRywPeSQ6RrdrEpTuP+72+Wt5a+NafPUvUWjraY+EHzdnvc7dhQpkhWO+O+JWEJfsSleETFcFkafmA8lsjrSVLIMvw85yXe/5Quo6oK2iitVSJJGU6hC7wocpLzQ2YbU21lqk+QYmWIx6+1RApbwrmtuZay9NQcmlO436/P6JdA2ukVllLzYveMsuyQfOyliJF414ck1ZprbSWpYm0cpzEMJ++mRxSl0vLrtNGazmaSirFZ5p3NbWoG36RUHXttZahmZSL3b0QoYrFowJ3CvJaR60laOH6iMckFEdEqwrecZVuUe8hiZauFns+9N4mL42aO3yj0F4mYhVqJRz3f9CawefWDfivxzIFw/H7qtm23VbSvIhTFG7EFseV2VlrzG0FUmf3iaTpnvNG0A3feOgfoLWjWDejN8O397taYnv3UO95gBq2B3wrNI9WPKcr8ZqN5xkPab5RFGUjQUYaZvsqK4pCxWEYdllW7uPaY7R+QnIPRsl/uyPyOoS3wuwhbkas9uhisDHM734+/uX3nT11KoHbsTLf1dMFhhyWLoWP8l3fXIshiGNo8lUR9+IVzMNsjDGsV22IsXgL7+FVDMXlDIrFYrFYLBaLZbT+B3FtfBG1VkFeAAAAAElFTkSuQmCC;" parent="1" vertex="1">
          <mxGeometry x="355" y="380" width="70" height="70" as="geometry" />
        </mxCell>
        <mxCell id="SJgRToUTvnGPl91xTuY3-6" value="&lt;b&gt;&lt;font style=&quot;font-size: 14px&quot;&gt;Locate and validate source repository&lt;/font&gt;&lt;/b&gt;" style="text;html=1;strokeColor=none;fillColor=none;align=center;verticalAlign=middle;whiteSpace=wrap;rounded=0;" parent="1" vertex="1">
          <mxGeometry x="320.64" y="320" width="139.36" height="30" as="geometry" />
        </mxCell>
        <mxCell id="SJgRToUTvnGPl91xTuY3-7" value="" style="edgeStyle=orthogonalEdgeStyle;rounded=0;orthogonalLoop=1;jettySize=auto;html=1;entryX=0.5;entryY=0;entryDx=0;entryDy=0;endArrow=none;" parent="1" source="SJgRToUTvnGPl91xTuY3-2" target="SJgRToUTvnGPl91xTuY3-6" edge="1">
          <mxGeometry relative="1" as="geometry">
            <mxPoint x="390.31999999999994" y="290" as="sourcePoint" />
            <mxPoint x="390.31999999999994" y="440" as="targetPoint" />
          </mxGeometry>
        </mxCell>
        <mxCell id="SJgRToUTvnGPl91xTuY3-22" style="edgeStyle=orthogonalEdgeStyle;rounded=0;orthogonalLoop=1;jettySize=auto;html=1;entryX=0.5;entryY=0;entryDx=0;entryDy=0;" parent="1" source="SJgRToUTvnGPl91xTuY3-8" target="SJgRToUTvnGPl91xTuY3-21" edge="1">
          <mxGeometry relative="1" as="geometry" />
        </mxCell>
        <mxCell id="SJgRToUTvnGPl91xTuY3-8" value="" style="rounded=0;whiteSpace=wrap;html=1;dashed=1;" parent="1" vertex="1">
          <mxGeometry x="500" y="150" width="220" height="140" as="geometry" />
        </mxCell>
        <mxCell id="SJgRToUTvnGPl91xTuY3-10" value="&lt;font style=&quot;font-size: 14px&quot;&gt;Package code for version X&lt;/font&gt;" style="text;html=1;strokeColor=#006EAF;fillColor=#1ba1e2;align=center;verticalAlign=middle;whiteSpace=wrap;rounded=0;fontColor=#ffffff;" parent="1" vertex="1">
          <mxGeometry x="520" y="160" width="180" height="40" as="geometry" />
        </mxCell>
        <mxCell id="SJgRToUTvnGPl91xTuY3-11" value="&lt;font style=&quot;font-size: 14px&quot;&gt;Package code for version Y&lt;/font&gt;" style="text;html=1;strokeColor=#006EAF;fillColor=#1ba1e2;align=center;verticalAlign=middle;whiteSpace=wrap;rounded=0;fontColor=#ffffff;" parent="1" vertex="1">
          <mxGeometry x="520" y="210" width="180" height="40" as="geometry" />
        </mxCell>
        <mxCell id="SJgRToUTvnGPl91xTuY3-12" value="&lt;b&gt;&lt;font style=&quot;font-size: 14px&quot;&gt;Download package code&lt;/font&gt;&lt;/b&gt;" style="text;html=1;strokeColor=none;fillColor=none;align=center;verticalAlign=middle;whiteSpace=wrap;rounded=0;dashed=1;" parent="1" vertex="1">
          <mxGeometry x="520" y="240" width="175" height="50" as="geometry" />
        </mxCell>
        <mxCell id="SJgRToUTvnGPl91xTuY3-29" style="edgeStyle=orthogonalEdgeStyle;rounded=0;orthogonalLoop=1;jettySize=auto;html=1;entryX=0.5;entryY=1;entryDx=0;entryDy=0;" parent="1" source="SJgRToUTvnGPl91xTuY3-16" target="SJgRToUTvnGPl91xTuY3-21" edge="1">
          <mxGeometry relative="1" as="geometry">
            <mxPoint x="770" y="320" as="targetPoint" />
          </mxGeometry>
        </mxCell>
        <mxCell id="SJgRToUTvnGPl91xTuY3-16" value="" style="rounded=0;whiteSpace=wrap;html=1;dashed=1;" parent="1" vertex="1">
          <mxGeometry x="500" y="340" width="220" height="150" as="geometry" />
        </mxCell>
        <mxCell id="SJgRToUTvnGPl91xTuY3-17" value="&lt;font style=&quot;font-size: 14px&quot;&gt;Release commit for &lt;br&gt;version X&lt;/font&gt;" style="text;html=1;strokeColor=#006EAF;fillColor=#1ba1e2;align=center;verticalAlign=middle;whiteSpace=wrap;rounded=0;fontColor=#ffffff;" parent="1" vertex="1">
          <mxGeometry x="517.5" y="360" width="180" height="40" as="geometry" />
        </mxCell>
        <mxCell id="SJgRToUTvnGPl91xTuY3-18" value="&lt;font style=&quot;font-size: 14px&quot;&gt;Release commit for &lt;br&gt;version Y&lt;/font&gt;" style="text;html=1;strokeColor=#006EAF;fillColor=#1ba1e2;align=center;verticalAlign=middle;whiteSpace=wrap;rounded=0;fontColor=#ffffff;" parent="1" vertex="1">
          <mxGeometry x="517.5" y="405" width="180" height="40" as="geometry" />
        </mxCell>
        <mxCell id="SJgRToUTvnGPl91xTuY3-19" value="&lt;b&gt;&lt;font style=&quot;font-size: 14px&quot;&gt;Identify release commit from repository tags&lt;/font&gt;&lt;/b&gt;" style="text;html=1;strokeColor=none;fillColor=none;align=center;verticalAlign=middle;whiteSpace=wrap;rounded=0;dashed=1;" parent="1" vertex="1">
          <mxGeometry x="530" y="455" width="160" height="30" as="geometry" />
        </mxCell>
        <mxCell id="SJgRToUTvnGPl91xTuY3-35" style="edgeStyle=orthogonalEdgeStyle;rounded=0;orthogonalLoop=1;jettySize=auto;html=1;entryX=0;entryY=0.429;entryDx=0;entryDy=0;entryPerimeter=0;startArrow=none;" parent="1" source="SJgRToUTvnGPl91xTuY3-36" target="SJgRToUTvnGPl91xTuY3-30" edge="1">
          <mxGeometry relative="1" as="geometry" />
        </mxCell>
        <mxCell id="SJgRToUTvnGPl91xTuY3-92" style="edgeStyle=orthogonalEdgeStyle;rounded=0;orthogonalLoop=1;jettySize=auto;html=1;entryX=0.5;entryY=0;entryDx=0;entryDy=0;" parent="1" source="SJgRToUTvnGPl91xTuY3-21" target="SJgRToUTvnGPl91xTuY3-38" edge="1">
          <mxGeometry relative="1" as="geometry">
            <Array as="points">
              <mxPoint x="780" y="315" />
              <mxPoint x="780" y="500" />
              <mxPoint x="395" y="500" />
            </Array>
          </mxGeometry>
        </mxCell>
        <mxCell id="SJgRToUTvnGPl91xTuY3-21" value="" style="ellipse;whiteSpace=wrap;html=1;aspect=fixed;dashed=1;" parent="1" vertex="1">
          <mxGeometry x="810" y="305" width="20" height="20" as="geometry" />
        </mxCell>
        <mxCell id="SJgRToUTvnGPl91xTuY3-30" value="" style="rounded=0;whiteSpace=wrap;html=1;dashed=1;" parent="1" vertex="1">
          <mxGeometry x="1055" y="260" width="240" height="140" as="geometry" />
        </mxCell>
        <mxCell id="SJgRToUTvnGPl91xTuY3-31" value="&lt;font style=&quot;font-size: 14px&quot;&gt;Phantom files&lt;/font&gt;" style="text;html=1;strokeColor=#2D7600;fillColor=#60a917;align=center;verticalAlign=middle;whiteSpace=wrap;rounded=0;fontColor=#ffffff;" parent="1" vertex="1">
          <mxGeometry x="1085" y="270" width="170" height="30" as="geometry" />
        </mxCell>
        <mxCell id="SJgRToUTvnGPl91xTuY3-32" value="&lt;font style=&quot;font-size: 14px&quot;&gt;Phantom lines&lt;/font&gt;" style="text;html=1;strokeColor=#2D7600;fillColor=#60a917;align=center;verticalAlign=middle;whiteSpace=wrap;rounded=0;fontColor=#ffffff;" parent="1" vertex="1">
          <mxGeometry x="1085" y="305" width="170" height="30" as="geometry" />
        </mxCell>
        <mxCell id="SJgRToUTvnGPl91xTuY3-33" value="&lt;b&gt;&lt;font style=&quot;font-size: 14px&quot;&gt;Output artifacts that are present in the registry, &lt;br&gt;but not in the repository&lt;/font&gt;&lt;/b&gt;" style="text;html=1;strokeColor=none;fillColor=none;align=center;verticalAlign=middle;whiteSpace=wrap;rounded=0;dashed=1;" parent="1" vertex="1">
          <mxGeometry x="1065" y="350" width="210" height="35" as="geometry" />
        </mxCell>
        <mxCell id="SJgRToUTvnGPl91xTuY3-36" value="&lt;b&gt;&lt;font style=&quot;font-size: 14px&quot;&gt;Compare package code and repository code&lt;/font&gt;&lt;/b&gt;" style="text;html=1;strokeColor=none;fillColor=none;align=center;verticalAlign=middle;whiteSpace=wrap;rounded=0;" parent="1" vertex="1">
          <mxGeometry x="885" y="290" width="120" height="60" as="geometry" />
        </mxCell>
        <mxCell id="SJgRToUTvnGPl91xTuY3-37" value="" style="edgeStyle=orthogonalEdgeStyle;rounded=0;orthogonalLoop=1;jettySize=auto;html=1;entryX=0;entryY=0.429;entryDx=0;entryDy=0;entryPerimeter=0;endArrow=none;" parent="1" source="SJgRToUTvnGPl91xTuY3-21" target="SJgRToUTvnGPl91xTuY3-36" edge="1">
          <mxGeometry relative="1" as="geometry">
            <mxPoint x="780" y="300" as="sourcePoint" />
            <mxPoint x="940" y="300.05999999999995" as="targetPoint" />
          </mxGeometry>
        </mxCell>
        <mxCell id="SJgRToUTvnGPl91xTuY3-49" style="edgeStyle=orthogonalEdgeStyle;rounded=0;orthogonalLoop=1;jettySize=auto;html=1;entryX=0;entryY=0.5;entryDx=0;entryDy=0;" parent="1" source="SJgRToUTvnGPl91xTuY3-38" target="SJgRToUTvnGPl91xTuY3-43" edge="1">
          <mxGeometry relative="1" as="geometry" />
        </mxCell>
        <mxCell id="SJgRToUTvnGPl91xTuY3-38" value="" style="rounded=0;whiteSpace=wrap;html=1;dashed=1;" parent="1" vertex="1">
          <mxGeometry x="280" y="520" width="230" height="170" as="geometry" />
        </mxCell>
        <mxCell id="SJgRToUTvnGPl91xTuY3-41" value="&lt;b&gt;&lt;font style=&quot;font-size: 14px&quot;&gt;Identify code delta between version X and Y&lt;/font&gt;&lt;/b&gt;" style="text;html=1;strokeColor=none;fillColor=none;align=center;verticalAlign=middle;whiteSpace=wrap;rounded=0;dashed=1;" parent="1" vertex="1">
          <mxGeometry x="307.5" y="650" width="175" height="30" as="geometry" />
        </mxCell>
        <mxCell id="SJgRToUTvnGPl91xTuY3-103" style="edgeStyle=orthogonalEdgeStyle;rounded=0;orthogonalLoop=1;jettySize=auto;html=1;entryX=-0.013;entryY=0.597;entryDx=0;entryDy=0;entryPerimeter=0;" parent="1" source="SJgRToUTvnGPl91xTuY3-43" target="SJgRToUTvnGPl91xTuY3-55" edge="1">
          <mxGeometry relative="1" as="geometry" />
        </mxCell>
        <mxCell id="SJgRToUTvnGPl91xTuY3-43" value="" style="rounded=0;whiteSpace=wrap;html=1;dashed=1;" parent="1" vertex="1">
          <mxGeometry x="550" y="520" width="225" height="170" as="geometry" />
        </mxCell>
        <mxCell id="SJgRToUTvnGPl91xTuY3-46" value="&lt;b&gt;&lt;font style=&quot;font-size: 14px&quot;&gt;Map code delta to commits&lt;/font&gt;&lt;/b&gt;" style="text;html=1;strokeColor=none;fillColor=none;align=center;verticalAlign=middle;whiteSpace=wrap;rounded=0;dashed=1;" parent="1" vertex="1">
          <mxGeometry x="582.5" y="650" width="160" height="30" as="geometry" />
        </mxCell>
        <mxCell id="SJgRToUTvnGPl91xTuY3-104" style="edgeStyle=orthogonalEdgeStyle;rounded=0;orthogonalLoop=1;jettySize=auto;html=1;entryX=0;entryY=0.5;entryDx=0;entryDy=0;" parent="1" source="SJgRToUTvnGPl91xTuY3-55" target="SJgRToUTvnGPl91xTuY3-63" edge="1">
          <mxGeometry relative="1" as="geometry" />
        </mxCell>
        <mxCell id="SJgRToUTvnGPl91xTuY3-55" value="" style="rounded=0;whiteSpace=wrap;html=1;dashed=1;" parent="1" vertex="1">
          <mxGeometry x="810" y="480" width="230" height="210" as="geometry" />
        </mxCell>
        <mxCell id="SJgRToUTvnGPl91xTuY3-56" value="&lt;font style=&quot;font-size: 14px&quot;&gt;GitHub Pull Request&amp;nbsp;&lt;/font&gt;" style="text;html=1;strokeColor=#006EAF;fillColor=#1ba1e2;align=center;verticalAlign=middle;whiteSpace=wrap;rounded=0;fontColor=#ffffff;" parent="1" vertex="1">
          <mxGeometry x="840" y="510" width="170" height="30" as="geometry" />
        </mxCell>
        <mxCell id="SJgRToUTvnGPl91xTuY3-57" value="&lt;font style=&quot;font-size: 14px&quot;&gt;Author and committer&lt;/font&gt;" style="text;html=1;strokeColor=#006EAF;fillColor=#1ba1e2;align=center;verticalAlign=middle;whiteSpace=wrap;rounded=0;fontColor=#ffffff;" parent="1" vertex="1">
          <mxGeometry x="840" y="557.5" width="170" height="30" as="geometry" />
        </mxCell>
        <mxCell id="SJgRToUTvnGPl91xTuY3-58" value="&lt;b&gt;&lt;font style=&quot;font-size: 14px&quot;&gt;Determine if commit was code-reviewed&lt;/font&gt;&lt;/b&gt;" style="text;html=1;strokeColor=none;fillColor=none;align=center;verticalAlign=middle;whiteSpace=wrap;rounded=0;dashed=1;" parent="1" vertex="1">
          <mxGeometry x="845" y="650" width="160" height="30" as="geometry" />
        </mxCell>
        <mxCell id="SJgRToUTvnGPl91xTuY3-59" value="&lt;font style=&quot;font-size: 14px&quot;&gt;Gerrit, Prow&lt;/font&gt;" style="text;html=1;strokeColor=#006EAF;fillColor=#1ba1e2;align=center;verticalAlign=middle;whiteSpace=wrap;rounded=0;fontColor=#ffffff;" parent="1" vertex="1">
          <mxGeometry x="840" y="600" width="170" height="30" as="geometry" />
        </mxCell>
        <mxCell id="SJgRToUTvnGPl91xTuY3-63" value="" style="rounded=0;whiteSpace=wrap;html=1;dashed=1;" parent="1" vertex="1">
          <mxGeometry x="1075" y="480" width="220" height="210" as="geometry" />
        </mxCell>
        <mxCell id="SJgRToUTvnGPl91xTuY3-64" value="&lt;font style=&quot;font-size: 14px&quot;&gt;Code review Coverage&lt;/font&gt;" style="text;html=1;strokeColor=#2D7600;fillColor=#60a917;align=center;verticalAlign=middle;whiteSpace=wrap;rounded=0;fontColor=#ffffff;" parent="1" vertex="1">
          <mxGeometry x="1097.5" y="510" width="170" height="30" as="geometry" />
        </mxCell>
        <mxCell id="SJgRToUTvnGPl91xTuY3-65" value="&lt;font style=&quot;font-size: 14px&quot;&gt;Reviewed commits&lt;/font&gt;" style="text;html=1;strokeColor=#2D7600;fillColor=#60a917;align=center;verticalAlign=middle;whiteSpace=wrap;rounded=0;fontColor=#ffffff;" parent="1" vertex="1">
          <mxGeometry x="1097.5" y="557.5" width="170" height="30" as="geometry" />
        </mxCell>
        <mxCell id="SJgRToUTvnGPl91xTuY3-66" value="&lt;b&gt;&lt;font style=&quot;font-size: 14px&quot;&gt;Output code review data&lt;/font&gt;&lt;/b&gt;" style="text;html=1;strokeColor=none;fillColor=none;align=center;verticalAlign=middle;whiteSpace=wrap;rounded=0;dashed=1;" parent="1" vertex="1">
          <mxGeometry x="1080" y="650" width="205" height="25" as="geometry" />
        </mxCell>
        <mxCell id="SJgRToUTvnGPl91xTuY3-67" value="&lt;font style=&quot;font-size: 14px&quot;&gt;Non-reviewed commits&lt;/font&gt;" style="text;html=1;strokeColor=#2D7600;fillColor=#60a917;align=center;verticalAlign=middle;whiteSpace=wrap;rounded=0;fontColor=#ffffff;" parent="1" vertex="1">
          <mxGeometry x="1100" y="600" width="170" height="30" as="geometry" />
        </mxCell>
        <mxCell id="SJgRToUTvnGPl91xTuY3-83" style="edgeStyle=orthogonalEdgeStyle;rounded=0;orthogonalLoop=1;jettySize=auto;html=1;entryX=0;entryY=0.5;entryDx=0;entryDy=0;" parent="1" source="SJgRToUTvnGPl91xTuY3-74" target="SJgRToUTvnGPl91xTuY3-1" edge="1">
          <mxGeometry relative="1" as="geometry" />
        </mxCell>
        <mxCell id="SJgRToUTvnGPl91xTuY3-74" value="" style="rounded=0;whiteSpace=wrap;html=1;dashed=1;" parent="1" vertex="1">
          <mxGeometry x="20" y="320" width="210" height="230" as="geometry" />
        </mxCell>
        <mxCell id="SJgRToUTvnGPl91xTuY3-75" value="&lt;font style=&quot;font-size: 14px&quot;&gt;Registry, E&lt;/font&gt;" style="text;html=1;strokeColor=#A50040;fillColor=#d80073;align=center;verticalAlign=middle;whiteSpace=wrap;rounded=0;fontColor=#ffffff;" parent="1" vertex="1">
          <mxGeometry x="40" y="335" width="170" height="30" as="geometry" />
        </mxCell>
        <mxCell id="SJgRToUTvnGPl91xTuY3-76" value="&lt;font style=&quot;font-size: 14px&quot;&gt;Package, A&lt;/font&gt;" style="text;html=1;strokeColor=#A50040;fillColor=#d80073;align=center;verticalAlign=middle;whiteSpace=wrap;rounded=0;fontColor=#ffffff;" parent="1" vertex="1">
          <mxGeometry x="40" y="375" width="170" height="30" as="geometry" />
        </mxCell>
        <mxCell id="SJgRToUTvnGPl91xTuY3-77" value="&lt;b&gt;&lt;font style=&quot;font-size: 14px&quot;&gt;Input: Update to version Y &lt;br&gt;from version X&lt;/font&gt;&lt;/b&gt;" style="text;html=1;strokeColor=none;fillColor=none;align=center;verticalAlign=middle;whiteSpace=wrap;rounded=0;dashed=1;" parent="1" vertex="1">
          <mxGeometry x="45" y="500" width="160" height="30" as="geometry" />
        </mxCell>
        <mxCell id="SJgRToUTvnGPl91xTuY3-79" value="&lt;font style=&quot;font-size: 14px&quot;&gt;Version, X&lt;/font&gt;" style="text;html=1;strokeColor=#A50040;fillColor=#d80073;align=center;verticalAlign=middle;whiteSpace=wrap;rounded=0;fontColor=#ffffff;" parent="1" vertex="1">
          <mxGeometry x="40" y="415" width="170" height="30" as="geometry" />
        </mxCell>
        <mxCell id="SJgRToUTvnGPl91xTuY3-80" value="&lt;font style=&quot;font-size: 14px&quot;&gt;Version, Y&lt;/font&gt;" style="text;html=1;strokeColor=#A50040;fillColor=#d80073;align=center;verticalAlign=middle;whiteSpace=wrap;rounded=0;fontColor=#ffffff;" parent="1" vertex="1">
          <mxGeometry x="40" y="455" width="170" height="30" as="geometry" />
        </mxCell>
        <mxCell id="SJgRToUTvnGPl91xTuY3-93" value="&lt;font style=&quot;font-size: 14px&quot;&gt;Identify lines of code (LOC) added in version Y &lt;br&gt;from version X&lt;/font&gt;" style="text;html=1;strokeColor=#006EAF;fillColor=#1ba1e2;align=center;verticalAlign=middle;whiteSpace=wrap;rounded=0;fontColor=#ffffff;" parent="1" vertex="1">
          <mxGeometry x="300" y="530" width="200" height="50" as="geometry" />
        </mxCell>
        <mxCell id="SJgRToUTvnGPl91xTuY3-96" value="&lt;font style=&quot;font-size: 14px&quot;&gt;Identify lines of code (LOC) removed from version X &lt;br&gt;in version Y&lt;/font&gt;" style="text;html=1;strokeColor=#006EAF;fillColor=#1ba1e2;align=center;verticalAlign=middle;whiteSpace=wrap;rounded=0;fontColor=#ffffff;" parent="1" vertex="1">
          <mxGeometry x="300" y="590" width="200" height="50" as="geometry" />
        </mxCell>
        <mxCell id="SJgRToUTvnGPl91xTuY3-100" value="&lt;b&gt;&lt;font style=&quot;font-size: 14px&quot;&gt;GitHub repository&lt;/font&gt;&lt;/b&gt;" style="text;html=1;strokeColor=none;fillColor=none;align=center;verticalAlign=middle;whiteSpace=wrap;rounded=0;" parent="1" vertex="1">
          <mxGeometry x="335.32" y="455" width="110" height="30" as="geometry" />
        </mxCell>
        <mxCell id="SJgRToUTvnGPl91xTuY3-105" value="&lt;font style=&quot;font-size: 14px&quot;&gt;Map added LOC to commit &lt;br&gt;via git blame&amp;nbsp;&lt;/font&gt;" style="text;html=1;strokeColor=#006EAF;fillColor=#1ba1e2;align=center;verticalAlign=middle;whiteSpace=wrap;rounded=0;fontColor=#ffffff;" parent="1" vertex="1">
          <mxGeometry x="562.5" y="530" width="200" height="50" as="geometry" />
        </mxCell>
        <mxCell id="SJgRToUTvnGPl91xTuY3-106" value="&lt;font style=&quot;font-size: 14px&quot;&gt;Map removed LOC to commit via reverse git blame&lt;/font&gt;" style="text;html=1;strokeColor=#006EAF;fillColor=#1ba1e2;align=center;verticalAlign=middle;whiteSpace=wrap;rounded=0;fontColor=#ffffff;" parent="1" vertex="1">
          <mxGeometry x="562.5" y="587.5" width="200" height="50" as="geometry" />
        </mxCell>
      </root>
    </mxGraphModel>
  </diagram>
</mxfile>
